<?xml version="1.0" encoding="UTF-8"?>
<!DOCTYPE svg PUBLIC "-//W3C//DTD SVG 1.1//EN" "http://www.w3.org/Graphics/SVG/1.1/DTD/svg11.dtd">
<svg xmlns="http://www.w3.org/2000/svg" version="1.1" width="1000px" height="1196px" style="shape-rendering:geometricPrecision; text-rendering:geometricPrecision; image-rendering:optimizeQuality; fill-rule:evenodd; clip-rule:evenodd" xmlns:xlink="http://www.w3.org/1999/xlink">
<g><path style="opacity:1" fill="#8c8d91" d="M 853.5,22.5 C 861.167,22.5 868.833,22.5 876.5,22.5C 877.01,25.3878 876.344,27.7211 874.5,29.5C 864.167,29.5 853.833,29.5 843.5,29.5C 843.5,27.5 843.5,25.5 843.5,23.5C 847.042,23.8128 850.375,23.4794 853.5,22.5 Z"/></g>
<g><path style="opacity:0.251" fill="#313133" d="M 842.5,22.5 C 842.813,25.2469 842.48,27.9135 841.5,30.5C 840.859,31.9935 839.859,32.9935 838.5,33.5C 836.656,31.7211 835.99,29.3878 836.5,26.5C 816.167,26.5 795.833,26.5 775.5,26.5C 741.833,26.5 708.167,26.5 674.5,26.5C 728.332,25.6672 782.332,25.1672 836.5,25C 838.158,23.3375 840.158,22.5041 842.5,22.5 Z"/></g>
<g><path style="opacity:1" fill="#8c8d90" d="M 775.5,26.5 C 795.833,26.5 816.167,26.5 836.5,26.5C 835.99,29.3878 836.656,31.7211 838.5,33.5C 839.209,34.404 840.209,34.7373 841.5,34.5C 841.281,33.325 841.614,32.325 842.5,31.5C 853.084,33.0962 863.751,33.7628 874.5,33.5C 876.5,33.1667 878.5,32.8333 880.5,32.5C 880.5,30.5 880.5,28.5 880.5,26.5C 885.833,26.5 891.167,26.5 896.5,26.5C 901.093,28.1438 905.759,29.8104 910.5,31.5C 914.957,34.6187 918.291,38.6187 920.5,43.5C 921.38,45.3888 921.38,47.3888 920.5,49.5C 922.124,49.3601 923.29,50.0267 924,51.5C 924.236,55.3391 925.069,59.0058 926.5,62.5C 925.897,64.1897 924.897,65.6897 923.5,67C 924.448,67.4828 925.448,67.6495 926.5,67.5C 926.822,69.7224 926.155,71.5557 924.5,73C 924.578,76.9142 924.912,80.5809 925.5,84C 923.122,84.9745 923.456,85.6411 926.5,86C 924.541,88.3158 924.541,90.3158 926.5,92C 925.552,92.4828 924.552,92.6495 923.5,92.5C 923.439,94.5922 922.439,96.0922 920.5,97C 920.957,97.414 921.291,97.914 921.5,98.5C 919.604,99.4656 917.604,99.7989 915.5,99.5C 915.877,86.4539 915.377,73.4539 914,60.5C 911.859,51.3876 906.693,44.5543 898.5,40C 832.168,39.5 765.834,39.3333 699.5,39.5C 700.144,34.4257 702.477,33.4257 706.5,36.5C 707.476,34.1296 706.476,33.1296 703.5,33.5C 700.342,35.4338 697.008,36.1005 693.5,35.5C 687.887,34.3479 682.387,33.0145 677,31.5C 675.103,31.8964 673.603,32.8964 672.5,34.5C 670.58,30.807 669.247,30.807 668.5,34.5C 666.014,35.1494 663.514,35.4827 661,35.5C 656.222,34.2466 651.389,33.2466 646.5,32.5C 645.619,31.0295 644.286,30.1962 642.5,30C 643.252,29.3292 643.586,28.4959 643.5,27.5C 687.67,27.832 731.67,27.4987 775.5,26.5 Z"/></g>
<g><path style="opacity:1" fill="#4c4b4b" d="M 876.5,22.5 C 878.346,22.2222 879.68,22.8888 880.5,24.5C 885.985,25.1668 891.319,25.8335 896.5,26.5C 891.167,26.5 885.833,26.5 880.5,26.5C 880.5,28.5 880.5,30.5 880.5,32.5C 878.5,32.8333 876.5,33.1667 874.5,33.5C 874.5,32.1667 874.5,30.8333 874.5,29.5C 876.344,27.7211 877.01,25.3878 876.5,22.5 Z"/></g>
<g><path style="opacity:1" fill="#7a7b7f" d="M 465.5,27.5 C 490.833,27.5 516.167,27.5 541.5,27.5C 542.039,29.5049 542.705,31.5049 543.5,33.5C 544.167,32.1667 544.833,30.8333 545.5,29.5C 547.795,32.3896 550.795,33.2229 554.5,32C 553.664,30.7567 553.997,29.5901 555.5,28.5C 556.893,29.8631 558.559,30.6964 560.5,31C 561.337,32.0113 561.67,33.1779 561.5,34.5C 563.527,34.3379 565.527,34.5045 567.5,35C 566.289,35.8928 566.289,36.7261 567.5,37.5C 570.591,35.0679 573.591,35.0679 576.5,37.5C 576.567,35.5756 576.9,33.5756 577.5,31.5C 582.416,34.4159 587.749,35.2492 593.5,34C 588.697,32.9224 588.53,31.7557 593,30.5C 594.394,31.6133 595.561,32.9466 596.5,34.5C 597.451,33.6744 598.451,33.5078 599.5,34C 598.483,35.0495 598.316,36.2161 599,37.5C 601.719,36.3234 603.219,34.6567 603.5,32.5C 604.48,33.9814 605.647,35.3147 607,36.5C 609.333,36.1667 611.667,35.8333 614,35.5C 615.376,36.7051 616.542,38.0384 617.5,39.5C 589.5,39.5 561.5,39.5 533.5,39.5C 533.5,38.5 533.5,37.5 533.5,36.5C 529.239,35.9492 525.072,35.9492 521,36.5C 518.769,33.482 515.936,32.8153 512.5,34.5C 510.605,33.027 508.939,31.3603 507.5,29.5C 506.497,31.542 505.163,31.8754 503.5,30.5C 502.719,31.7366 501.719,32.7366 500.5,33.5C 498.995,30.8694 498.329,31.2027 498.5,34.5C 495.95,34.4392 494.45,33.1059 494,30.5C 491.869,33.4521 489.036,34.6188 485.5,34C 486.891,32.98 488.391,32.1466 490,31.5C 490.591,30.5165 490.257,29.8499 489,29.5C 486,31.1667 483,32.8333 480,34.5C 477.493,34.2838 476.66,33.2838 477.5,31.5C 476.372,30.7379 475.205,30.0712 474,29.5C 469.781,30.6518 465.281,31.1518 460.5,31C 462.5,30.6667 464.5,30.3333 466.5,30C 465.748,29.3292 465.414,28.4959 465.5,27.5 Z"/></g>
<g><path style="opacity:1" fill="#818286" d="M 541.5,27.5 C 575.5,27.5 609.5,27.5 643.5,27.5C 643.586,28.4959 643.252,29.3292 642.5,30C 644.286,30.1962 645.619,31.0295 646.5,32.5C 651.389,33.2466 656.222,34.2466 661,35.5C 663.514,35.4827 666.014,35.1494 668.5,34.5C 669.247,30.807 670.58,30.807 672.5,34.5C 673.603,32.8964 675.103,31.8964 677,31.5C 682.387,33.0145 687.887,34.3479 693.5,35.5C 697.008,36.1005 700.342,35.4338 703.5,33.5C 706.476,33.1296 707.476,34.1296 706.5,36.5C 702.477,33.4257 700.144,34.4257 699.5,39.5C 672.167,39.5 644.833,39.5 617.5,39.5C 616.542,38.0384 615.376,36.7051 614,35.5C 611.667,35.8333 609.333,36.1667 607,36.5C 605.647,35.3147 604.48,33.9814 603.5,32.5C 603.219,34.6567 601.719,36.3234 599,37.5C 598.316,36.2161 598.483,35.0495 599.5,34C 598.451,33.5078 597.451,33.6744 596.5,34.5C 595.561,32.9466 594.394,31.6133 593,30.5C 588.53,31.7557 588.697,32.9224 593.5,34C 587.749,35.2492 582.416,34.4159 577.5,31.5C 576.9,33.5756 576.567,35.5756 576.5,37.5C 573.591,35.0679 570.591,35.0679 567.5,37.5C 566.289,36.7261 566.289,35.8928 567.5,35C 565.527,34.5045 563.527,34.3379 561.5,34.5C 561.67,33.1779 561.337,32.0113 560.5,31C 558.559,30.6964 556.893,29.8631 555.5,28.5C 553.997,29.5901 553.664,30.7567 554.5,32C 550.795,33.2229 547.795,32.3896 545.5,29.5C 544.833,30.8333 544.167,32.1667 543.5,33.5C 542.705,31.5049 542.039,29.5049 541.5,27.5 Z"/></g>
<g><path style="opacity:0.749" fill="#5a585a" d="M 896.5,26.5 C 901.817,26.4983 906.484,28.165 910.5,31.5C 905.759,29.8104 901.093,28.1438 896.5,26.5 Z"/></g>
<g><path style="opacity:1" fill="#797a7e" d="M 842.5,22.5 C 846.167,22.5 849.833,22.5 853.5,22.5C 850.375,23.4794 847.042,23.8128 843.5,23.5C 843.5,25.5 843.5,27.5 843.5,29.5C 853.833,29.5 864.167,29.5 874.5,29.5C 874.5,30.8333 874.5,32.1667 874.5,33.5C 863.751,33.7628 853.084,33.0962 842.5,31.5C 841.614,32.325 841.281,33.325 841.5,34.5C 840.209,34.7373 839.209,34.404 838.5,33.5C 839.859,32.9935 840.859,31.9935 841.5,30.5C 842.48,27.9135 842.813,25.2469 842.5,22.5 Z"/></g>
<g><path style="opacity:1" fill="#717276" d="M 279.5,28.5 C 341.331,27.5009 403.331,27.1676 465.5,27.5C 465.414,28.4959 465.748,29.3292 466.5,30C 464.5,30.3333 462.5,30.6667 460.5,31C 465.281,31.1518 469.781,30.6518 474,29.5C 475.205,30.0712 476.372,30.7379 477.5,31.5C 476.66,33.2838 477.493,34.2838 480,34.5C 483,32.8333 486,31.1667 489,29.5C 490.257,29.8499 490.591,30.5165 490,31.5C 488.391,32.1466 486.891,32.98 485.5,34C 489.036,34.6188 491.869,33.4521 494,30.5C 494.45,33.1059 495.95,34.4392 498.5,34.5C 498.329,31.2027 498.995,30.8694 500.5,33.5C 501.719,32.7366 502.719,31.7366 503.5,30.5C 505.163,31.8754 506.497,31.542 507.5,29.5C 508.939,31.3603 510.605,33.027 512.5,34.5C 515.936,32.8153 518.769,33.482 521,36.5C 525.072,35.9492 529.239,35.9492 533.5,36.5C 533.5,37.5 533.5,38.5 533.5,39.5C 490.833,39.5 448.167,39.5 405.5,39.5C 404.932,35.6786 402.932,34.6786 399.5,36.5C 397.945,36.278 396.611,35.6113 395.5,34.5C 394.452,35.3829 393.285,36.0496 392,36.5C 385.576,36.4543 379.076,36.2876 372.5,36C 373.659,32.8436 375.159,32.6769 377,35.5C 378.434,35.0696 379.601,34.2362 380.5,33C 377.139,32.6633 373.806,32.1633 370.5,31.5C 364.7,34.7353 358.867,35.0686 353,32.5C 351.451,35.0026 349.784,35.0026 348,32.5C 346.769,33.1078 345.436,33.4411 344,33.5C 341.667,32.8333 339.333,32.1667 337,31.5C 335.342,31.6752 334.009,32.3418 333,33.5C 332.693,30.1238 330.86,28.7904 327.5,29.5C 327.5,30.5 327.5,31.5 327.5,32.5C 324.208,32.8804 321.875,31.5471 320.5,28.5C 319.264,29.2458 317.93,29.5792 316.5,29.5C 316.5,30.5 316.5,31.5 316.5,32.5C 313.081,33.3377 309.748,33.671 306.5,33.5C 305.614,32.675 305.281,31.675 305.5,30.5C 303.304,30.41 301.137,30.0767 299,29.5C 296.752,30.229 294.585,31.229 292.5,32.5C 291.707,31.6446 292.04,30.8113 293.5,30C 291.965,29.5038 290.465,29.6705 289,30.5C 286.065,28.8084 282.898,28.1417 279.5,28.5 Z"/></g>
<g><path style="opacity:1" fill="#58595c" d="M 674.5,26.5 C 708.167,26.5 741.833,26.5 775.5,26.5C 731.67,27.4987 687.67,27.832 643.5,27.5C 609.5,27.5 575.5,27.5 541.5,27.5C 516.167,27.5 490.833,27.5 465.5,27.5C 403.331,27.1676 341.331,27.5009 279.5,28.5C 253.831,28.3334 228.165,28.5 202.5,29C 207.167,29.3333 211.833,29.6667 216.5,30C 219.584,31.0635 222.584,32.2301 225.5,33.5C 228.926,33.1976 232.092,32.1976 235,30.5C 237.024,31.5127 238.857,32.846 240.5,34.5C 246.489,35.6444 252.489,35.6444 258.5,34.5C 279.061,36.8937 279.394,38.8937 259.5,40.5C 228.135,40.189 196.802,40.5223 165.5,41.5C 165.206,38.3539 163.539,37.1872 160.5,38C 161.337,39.0113 161.67,40.1779 161.5,41.5C 159.139,41.3259 156.806,40.9926 154.5,40.5C 154.357,38.7376 154.691,37.0709 155.5,35.5C 154.975,34.8076 154.308,34.3076 153.5,34C 154.381,33.2917 155.047,32.4584 155.5,31.5C 157.734,29.5541 160.401,28.3874 163.5,28C 168.5,27.6667 173.5,27.3333 178.5,27C 343.833,26.5 509.166,26.3333 674.5,26.5 Z"/></g>
<g><path style="opacity:1" fill="#66676a" d="M 279.5,28.5 C 282.898,28.1417 286.065,28.8084 289,30.5C 290.465,29.6705 291.965,29.5038 293.5,30C 292.04,30.8113 291.707,31.6446 292.5,32.5C 294.585,31.229 296.752,30.229 299,29.5C 301.137,30.0767 303.304,30.41 305.5,30.5C 305.281,31.675 305.614,32.675 306.5,33.5C 309.748,33.671 313.081,33.3377 316.5,32.5C 316.5,31.5 316.5,30.5 316.5,29.5C 317.93,29.5792 319.264,29.2458 320.5,28.5C 321.875,31.5471 324.208,32.8804 327.5,32.5C 327.5,31.5 327.5,30.5 327.5,29.5C 330.86,28.7904 332.693,30.1238 333,33.5C 334.009,32.3418 335.342,31.6752 337,31.5C 339.333,32.1667 341.667,32.8333 344,33.5C 345.436,33.4411 346.769,33.1078 348,32.5C 349.784,35.0026 351.451,35.0026 353,32.5C 358.867,35.0686 364.7,34.7353 370.5,31.5C 373.806,32.1633 377.139,32.6633 380.5,33C 379.601,34.2362 378.434,35.0696 377,35.5C 375.159,32.6769 373.659,32.8436 372.5,36C 379.076,36.2876 385.576,36.4543 392,36.5C 393.285,36.0496 394.452,35.3829 395.5,34.5C 396.611,35.6113 397.945,36.278 399.5,36.5C 402.932,34.6786 404.932,35.6786 405.5,39.5C 356.84,40.4002 308.173,40.7335 259.5,40.5C 279.394,38.8937 279.061,36.8937 258.5,34.5C 252.489,35.6444 246.489,35.6444 240.5,34.5C 238.857,32.846 237.024,31.5127 235,30.5C 232.092,32.1976 228.926,33.1976 225.5,33.5C 222.584,32.2301 219.584,31.0635 216.5,30C 211.833,29.6667 207.167,29.3333 202.5,29C 228.165,28.5 253.831,28.3334 279.5,28.5 Z"/></g>
<g><path style="opacity:1" fill="#e1e1df" d="M 405.5,39.5 C 448.167,39.5 490.833,39.5 533.5,39.5C 561.5,39.5 589.5,39.5 617.5,39.5C 644.833,39.5 672.167,39.5 699.5,39.5C 765.834,39.3333 832.168,39.5 898.5,40C 906.693,44.5543 911.859,51.3876 914,60.5C 915.377,73.4539 915.877,86.4539 915.5,99.5C 915.5,132.5 915.5,165.5 915.5,198.5C 915.5,224.833 915.5,251.167 915.5,277.5C 915.5,299.167 915.5,320.833 915.5,342.5C 915.5,371.5 915.5,400.5 915.5,429.5C 915.5,463.167 915.5,496.833 915.5,530.5C 915.5,563.5 915.5,596.5 915.5,629.5C 915.5,661.167 915.5,692.833 915.5,724.5C 915.5,744.833 915.5,765.167 915.5,785.5C 915.5,810.167 915.5,834.833 915.5,859.5C 915.5,887.833 915.5,916.167 915.5,944.5C 915.667,970.169 915.5,995.835 915,1021.5C 914.644,1031.92 910.81,1040.75 903.5,1048C 900.754,1049.75 897.754,1050.75 894.5,1051C 835.501,1051.5 776.501,1051.67 717.5,1051.5C 661.5,1051.5 605.5,1051.5 549.5,1051.5C 497.669,1050.5 445.669,1050.17 393.5,1050.5C 318.499,1050.67 243.499,1050.5 168.5,1050C 158.048,1047.55 151.548,1041.05 149,1030.5C 148.417,1026.17 147.917,1021.83 147.5,1017.5C 147.333,700.833 147.5,384.166 148,67.5C 148.771,58.1255 152.604,50.2922 159.5,44C 161.217,42.4412 163.217,41.6079 165.5,41.5C 196.802,40.5223 228.135,40.189 259.5,40.5C 308.173,40.7335 356.84,40.4002 405.5,39.5 Z"/></g>
<g><path style="opacity:1" fill="#4c4c4d" d="M 155.5,31.5 C 155.047,32.4584 154.381,33.2917 153.5,34C 154.308,34.3076 154.975,34.8076 155.5,35.5C 154.691,37.0709 154.357,38.7376 154.5,40.5C 156.806,40.9926 159.139,41.3259 161.5,41.5C 161.67,40.1779 161.337,39.0113 160.5,38C 163.539,37.1872 165.206,38.3539 165.5,41.5C 163.217,41.6079 161.217,42.4412 159.5,44C 152.604,50.2922 148.771,58.1255 148,67.5C 147.5,384.166 147.333,700.833 147.5,1017.5C 146.503,1000.34 146.17,983.008 146.5,965.5C 146.5,873.5 146.5,781.5 146.5,689.5C 146.5,656.167 146.5,622.833 146.5,589.5C 146.5,550.833 146.5,512.167 146.5,473.5C 146.5,440.5 146.5,407.5 146.5,374.5C 146.5,341.5 146.5,308.5 146.5,275.5C 144.654,275.778 143.32,275.111 142.5,273.5C 144.297,272.305 145.297,270.638 145.5,268.5C 144.5,268.5 143.5,268.5 142.5,268.5C 142.5,267.5 142.5,266.5 142.5,265.5C 143.5,265.5 144.5,265.5 145.5,265.5C 145.5,263.167 145.5,260.833 145.5,258.5C 143.897,258.688 142.563,258.188 141.5,257C 145.134,255.906 146.134,253.74 144.5,250.5C 143.448,250.649 142.448,250.483 141.5,250C 142.728,249.221 143.728,248.221 144.5,247C 143.576,245.85 143.576,244.85 144.5,244C 142.714,243.804 141.381,242.971 140.5,241.5C 142.334,239.502 143.334,237.168 143.5,234.5C 139.901,234.738 139.567,233.738 142.5,231.5C 142.154,230.304 141.654,230.304 141,231.5C 140.51,230.207 140.343,228.873 140.5,227.5C 141.978,227.762 143.311,227.429 144.5,226.5C 143.509,225.335 142.509,224.168 141.5,223C 142.459,220.88 142.626,218.713 142,216.5C 140.844,217.993 140.01,217.826 139.5,216C 140.477,214.503 141.477,213.003 142.5,211.5C 142.113,209.726 141.447,208.059 140.5,206.5C 140.808,205.692 141.308,205.025 142,204.5C 143.104,198.974 141.937,194.141 138.5,190C 140.91,189.242 141.91,187.575 141.5,185C 141.646,182.966 140.98,181.299 139.5,180C 140.357,179.311 141.023,178.478 141.5,177.5C 140.167,175.833 140.167,174.167 141.5,172.5C 139.703,171.305 138.703,169.638 138.5,167.5C 142.193,166.753 142.193,165.42 138.5,163.5C 141.283,160.658 140.95,158.158 137.5,156C 140.724,154.867 141.057,152.867 138.5,150C 140.994,147.577 140.994,145.244 138.5,143C 139.308,142.692 139.975,142.192 140.5,141.5C 139.289,140.126 138.289,138.626 137.5,137C 138.394,135.604 139.061,134.104 139.5,132.5C 138.319,130.137 138.319,127.803 139.5,125.5C 138.5,124.833 137.5,124.167 136.5,123.5C 138.207,121.358 139.041,119.025 139,116.5C 138.107,117.711 137.274,117.711 136.5,116.5C 137.376,115.749 138.376,115.249 139.5,115C 135.552,111.486 135.552,107.986 139.5,104.5C 138.624,103.749 137.624,103.249 136.5,103C 138.478,100.503 138.978,97.6693 138,94.5C 137.329,95.2524 136.496,95.5858 135.5,95.5C 135.828,83.9877 135.495,72.6544 134.5,61.5C 137.221,50.2228 142.887,40.7228 151.5,33C 152.745,32.2086 154.078,31.7086 155.5,31.5 Z"/></g>
<g><path style="opacity:0.251" fill="#2c2929" d="M 928.5,71.5 C 928.886,81.2458 929.886,90.9125 931.5,100.5C 930.5,100.5 929.5,100.5 928.5,100.5C 928.5,90.8333 928.5,81.1667 928.5,71.5 Z"/></g>
<g><path style="opacity:1" fill="#3b3b3b" d="M 134.5,61.5 C 135.495,72.6544 135.828,83.9877 135.5,95.5C 135.53,140.091 135.53,184.591 135.5,229C 135.849,232.436 136.516,235.769 137.5,239C 136.572,239.388 135.905,240.055 135.5,241C 136.251,243.247 136.251,245.581 135.5,248C 135.748,249.716 136.415,251.216 137.5,252.5C 134.823,254.264 135.156,255.43 138.5,256C 137.833,258 137.167,260 136.5,262C 136.957,262.414 137.291,262.914 137.5,263.5C 136.585,264.328 135.919,265.328 135.5,266.5C 136.688,268.644 136.688,270.811 135.5,273C 135.667,273.833 135.833,274.667 136,275.5C 137.073,274.72 138.24,274.887 139.5,276C 138.809,277.067 138.309,278.234 138,279.5C 137.333,280.833 136.667,280.833 136,279.5C 135.833,280 135.667,280.5 135.5,281C 136.833,281.667 138.167,282.333 139.5,283C 139.05,284.285 138.383,285.452 137.5,286.5C 138.611,287.611 139.278,288.945 139.5,290.5C 137.82,293.571 137.153,296.904 137.5,300.5C 138.5,300.5 139.5,300.5 140.5,300.5C 140.677,302.981 139.677,304.814 137.5,306C 138.328,306.915 139.328,307.581 140.5,308C 139.692,308.308 139.025,308.808 138.5,309.5C 139.833,310.833 139.833,312.167 138.5,313.5C 139.167,314.5 139.833,315.5 140.5,316.5C 138.043,318.332 138.043,319.999 140.5,321.5C 141.259,324.157 141.926,326.823 142.5,329.5C 141.675,330.386 140.675,330.719 139.5,330.5C 139.383,332.484 140.05,334.15 141.5,335.5C 140.879,337.998 141.545,340.332 143.5,342.5C 143.167,342.833 142.833,343.167 142.5,343.5C 141.742,342.189 140.742,341.689 139.5,342C 139.854,343.626 139.854,345.459 139.5,347.5C 140.978,347.238 142.311,347.571 143.5,348.5C 141.995,349.842 141.328,351.508 141.5,353.5C 146.833,353.833 146.833,354.167 141.5,354.5C 141.137,356.911 142.137,358.411 144.5,359C 141.325,360.577 140.991,362.41 143.5,364.5C 142.187,366.518 142.853,367.685 145.5,368C 144.167,369 144.167,370 145.5,371C 143.833,372 142.167,373 140.5,374C 142.602,373.744 144.602,373.911 146.5,374.5C 146.5,407.5 146.5,440.5 146.5,473.5C 145.06,472.637 143.726,472.637 142.5,473.5C 141.5,472.5 140.5,471.5 139.5,470.5C 142.058,468.88 142.058,467.38 139.5,466C 140.833,465 140.833,464 139.5,463C 140.744,462.544 141.577,463.044 142,464.5C 143.205,463.929 144.372,463.262 145.5,462.5C 143.872,460.681 141.872,459.347 139.5,458.5C 140.025,457.808 140.692,457.308 141.5,457C 140.167,456.333 140.167,455.667 141.5,455C 137.701,453.886 137.701,452.553 141.5,451C 139.724,449.329 139.39,447.496 140.5,445.5C 139.271,444.719 137.938,444.219 136.5,444C 138.167,443 139.833,442 141.5,441C 140.663,439.989 140.33,438.822 140.5,437.5C 139.127,437.657 137.793,437.49 136.5,437C 141.938,433.695 141.605,431.528 135.5,430.5C 137.766,429.686 140.1,429.186 142.5,429C 136.683,428.225 135.016,425.058 137.5,419.5C 137.081,418.328 136.415,417.328 135.5,416.5C 136.544,415.377 137.21,414.044 137.5,412.5C 135.621,407.411 134.954,402.244 135.5,397C 139.236,395.493 139.236,394.66 135.5,394.5C 135.831,370.994 135.498,347.661 134.5,324.5C 134.5,239.833 134.5,155.167 134.5,70.5C 134.5,67.5 134.5,64.5 134.5,61.5 Z"/></g>
<g><path style="opacity:1" fill="#686769" d="M 920.5,43.5 C 922.474,45.428 923.974,47.7613 925,50.5C 927.609,57.2659 928.775,64.2659 928.5,71.5C 928.5,81.1667 928.5,90.8333 928.5,100.5C 929.5,100.5 930.5,100.5 931.5,100.5C 932.477,111.752 932.811,123.086 932.5,134.5C 929.946,133.612 927.279,133.279 924.5,133.5C 924.176,129.445 924.509,125.445 925.5,121.5C 927.302,122.986 929.302,123.986 931.5,124.5C 931.5,117.5 931.5,110.5 931.5,103.5C 929.167,103.5 926.833,103.5 924.5,103.5C 924.5,102.5 924.5,101.5 924.5,100.5C 925.5,100.5 926.5,100.5 927.5,100.5C 927.813,87.7536 927.48,75.087 926.5,62.5C 925.069,59.0058 924.236,55.3391 924,51.5C 923.29,50.0267 922.124,49.3601 920.5,49.5C 921.38,47.3888 921.38,45.3888 920.5,43.5 Z"/></g>
<g><path style="opacity:1" fill="#404141" d="M 146.5,374.5 C 144.602,373.911 142.602,373.744 140.5,374C 142.167,373 143.833,372 145.5,371C 144.167,370 144.167,369 145.5,368C 142.853,367.685 142.187,366.518 143.5,364.5C 140.991,362.41 141.325,360.577 144.5,359C 142.137,358.411 141.137,356.911 141.5,354.5C 146.833,354.167 146.833,353.833 141.5,353.5C 141.328,351.508 141.995,349.842 143.5,348.5C 142.311,347.571 140.978,347.238 139.5,347.5C 139.854,345.459 139.854,343.626 139.5,342C 140.742,341.689 141.742,342.189 142.5,343.5C 142.833,343.167 143.167,342.833 143.5,342.5C 141.545,340.332 140.879,337.998 141.5,335.5C 140.05,334.15 139.383,332.484 139.5,330.5C 140.675,330.719 141.675,330.386 142.5,329.5C 141.926,326.823 141.259,324.157 140.5,321.5C 138.043,319.999 138.043,318.332 140.5,316.5C 139.833,315.5 139.167,314.5 138.5,313.5C 139.833,312.167 139.833,310.833 138.5,309.5C 139.025,308.808 139.692,308.308 140.5,308C 139.328,307.581 138.328,306.915 137.5,306C 139.677,304.814 140.677,302.981 140.5,300.5C 139.5,300.5 138.5,300.5 137.5,300.5C 137.153,296.904 137.82,293.571 139.5,290.5C 139.278,288.945 138.611,287.611 137.5,286.5C 138.383,285.452 139.05,284.285 139.5,283C 138.167,282.333 136.833,281.667 135.5,281C 135.667,280.5 135.833,280 136,279.5C 136.667,280.833 137.333,280.833 138,279.5C 138.309,278.234 138.809,277.067 139.5,276C 138.24,274.887 137.073,274.72 136,275.5C 135.833,274.667 135.667,273.833 135.5,273C 136.688,270.811 136.688,268.644 135.5,266.5C 135.919,265.328 136.585,264.328 137.5,263.5C 137.291,262.914 136.957,262.414 136.5,262C 137.167,260 137.833,258 138.5,256C 135.156,255.43 134.823,254.264 137.5,252.5C 136.415,251.216 135.748,249.716 135.5,248C 136.251,245.581 136.251,243.247 135.5,241C 135.905,240.055 136.572,239.388 137.5,239C 136.516,235.769 135.849,232.436 135.5,229C 135.53,184.591 135.53,140.091 135.5,95.5C 136.496,95.5858 137.329,95.2524 138,94.5C 138.978,97.6693 138.478,100.503 136.5,103C 137.624,103.249 138.624,103.749 139.5,104.5C 135.552,107.986 135.552,111.486 139.5,115C 138.376,115.249 137.376,115.749 136.5,116.5C 137.274,117.711 138.107,117.711 139,116.5C 139.041,119.025 138.207,121.358 136.5,123.5C 137.5,124.167 138.5,124.833 139.5,125.5C 138.319,127.803 138.319,130.137 139.5,132.5C 139.061,134.104 138.394,135.604 137.5,137C 138.289,138.626 139.289,140.126 140.5,141.5C 139.975,142.192 139.308,142.692 138.5,143C 140.994,145.244 140.994,147.577 138.5,150C 141.057,152.867 140.724,154.867 137.5,156C 140.95,158.158 141.283,160.658 138.5,163.5C 142.193,165.42 142.193,166.753 138.5,167.5C 138.703,169.638 139.703,171.305 141.5,172.5C 140.167,174.167 140.167,175.833 141.5,177.5C 141.023,178.478 140.357,179.311 139.5,180C 140.98,181.299 141.646,182.966 141.5,185C 141.91,187.575 140.91,189.242 138.5,190C 141.937,194.141 143.104,198.974 142,204.5C 141.308,205.025 140.808,205.692 140.5,206.5C 141.447,208.059 142.113,209.726 142.5,211.5C 141.477,213.003 140.477,214.503 139.5,216C 140.01,217.826 140.844,217.993 142,216.5C 142.626,218.713 142.459,220.88 141.5,223C 142.509,224.168 143.509,225.335 144.5,226.5C 143.311,227.429 141.978,227.762 140.5,227.5C 140.343,228.873 140.51,230.207 141,231.5C 141.654,230.304 142.154,230.304 142.5,231.5C 139.567,233.738 139.901,234.738 143.5,234.5C 143.334,237.168 142.334,239.502 140.5,241.5C 141.381,242.971 142.714,243.804 144.5,244C 143.576,244.85 143.576,245.85 144.5,247C 143.728,248.221 142.728,249.221 141.5,250C 142.448,250.483 143.448,250.649 144.5,250.5C 146.134,253.74 145.134,255.906 141.5,257C 142.563,258.188 143.897,258.688 145.5,258.5C 145.5,260.833 145.5,263.167 145.5,265.5C 144.5,265.5 143.5,265.5 142.5,265.5C 142.5,266.5 142.5,267.5 142.5,268.5C 143.5,268.5 144.5,268.5 145.5,268.5C 145.297,270.638 144.297,272.305 142.5,273.5C 143.32,275.111 144.654,275.778 146.5,275.5C 146.5,308.5 146.5,341.5 146.5,374.5 Z"/></g>
<g><path style="opacity:1" fill="#2b2926" d="M 924.5,100.5 C 924.5,101.5 924.5,102.5 924.5,103.5C 924.5,104.5 924.5,105.5 924.5,106.5C 923.5,106.5 922.5,106.5 921.5,106.5C 921.34,104.801 921.506,103.134 922,101.5C 922.671,100.748 923.504,100.414 924.5,100.5 Z"/></g>
<g><path style="opacity:0.906" fill="#1e1c19" d="M 924.5,133.5 C 927.279,133.279 929.946,133.612 932.5,134.5C 930.489,138.206 929.489,142.206 929.5,146.5C 928.532,144.393 928.198,142.059 928.5,139.5C 926.585,139.784 924.919,139.451 923.5,138.5C 924.038,136.883 924.371,135.216 924.5,133.5 Z"/></g>
<g><path style="opacity:1" fill="#474747" d="M 923.5,138.5 C 924.919,139.451 926.585,139.784 928.5,139.5C 928.198,142.059 928.532,144.393 929.5,146.5C 930.492,146.328 931.158,146.662 931.5,147.5C 929.167,147.5 926.833,147.5 924.5,147.5C 924.799,149.604 924.466,151.604 923.5,153.5C 922.28,153.113 921.613,152.28 921.5,151C 922.148,149.56 922.481,148.06 922.5,146.5C 924.167,146.5 925.833,146.5 927.5,146.5C 927.5,144.5 927.5,142.5 927.5,140.5C 925.712,140.785 924.045,140.452 922.5,139.5C 922.624,138.893 922.957,138.56 923.5,138.5 Z"/></g>
<g><path style="opacity:1" fill="#818286" d="M 926.5,62.5 C 927.48,75.087 927.813,87.7536 927.5,100.5C 926.5,100.5 925.5,100.5 924.5,100.5C 923.504,100.414 922.671,100.748 922,101.5C 921.506,103.134 921.34,104.801 921.5,106.5C 922.5,106.5 923.5,106.5 924.5,106.5C 924.5,105.5 924.5,104.5 924.5,103.5C 926.833,103.5 929.167,103.5 931.5,103.5C 931.5,110.5 931.5,117.5 931.5,124.5C 929.302,123.986 927.302,122.986 925.5,121.5C 924.509,125.445 924.176,129.445 924.5,133.5C 924.371,135.216 924.038,136.883 923.5,138.5C 922.957,138.56 922.624,138.893 922.5,139.5C 924.045,140.452 925.712,140.785 927.5,140.5C 927.5,142.5 927.5,144.5 927.5,146.5C 925.833,146.5 924.167,146.5 922.5,146.5C 922.481,148.06 922.148,149.56 921.5,151C 921.613,152.28 922.28,153.113 923.5,153.5C 924.466,151.604 924.799,149.604 924.5,147.5C 926.833,147.5 929.167,147.5 931.5,147.5C 931.833,148.167 932.167,148.833 932.5,149.5C 931.671,157.323 931.171,165.323 931,173.5C 928.516,170.741 927.35,171.074 927.5,174.5C 926.5,174.5 925.5,174.5 924.5,174.5C 924.98,178.306 923.98,181.639 921.5,184.5C 921.516,186.516 922.516,187.516 924.5,187.5C 924.762,190.921 923.428,191.921 920.5,190.5C 919.112,191.591 918.612,192.924 919,194.5C 920.337,193.235 921.837,192.735 923.5,193C 924.167,195 924.833,197 925.5,199C 923.567,199.783 922.067,199.283 921,197.5C 919.301,198.406 917.467,198.739 915.5,198.5C 915.5,165.5 915.5,132.5 915.5,99.5C 917.604,99.7989 919.604,99.4656 921.5,98.5C 921.291,97.914 920.957,97.414 920.5,97C 922.439,96.0922 923.439,94.5922 923.5,92.5C 924.552,92.6495 925.552,92.4828 926.5,92C 924.541,90.3158 924.541,88.3158 926.5,86C 923.456,85.6411 923.122,84.9745 925.5,84C 924.912,80.5809 924.578,76.9142 924.5,73C 926.155,71.5557 926.822,69.7224 926.5,67.5C 925.448,67.6495 924.448,67.4828 923.5,67C 924.897,65.6897 925.897,64.1897 926.5,62.5 Z"/></g>
<g><path style="opacity:1" fill="#606062" d="M 932.5,149.5 C 932.828,160.679 932.495,171.679 931.5,182.5C 929.307,181.203 926.973,181.203 924.5,182.5C 923.754,183.736 923.421,185.07 923.5,186.5C 925.167,186.5 926.833,186.5 928.5,186.5C 928.5,241.167 928.5,295.833 928.5,350.5C 928.167,350.5 927.833,350.5 927.5,350.5C 927.5,348.5 927.5,346.5 927.5,344.5C 927.5,318.5 927.5,292.5 927.5,266.5C 927.5,240.167 927.5,213.833 927.5,187.5C 926.5,187.5 925.5,187.5 924.5,187.5C 922.516,187.516 921.516,186.516 921.5,184.5C 923.98,181.639 924.98,178.306 924.5,174.5C 925.5,174.5 926.5,174.5 927.5,174.5C 927.35,171.074 928.516,170.741 931,173.5C 931.171,165.323 931.671,157.323 932.5,149.5 Z"/></g>
<g><path style="opacity:1" fill="#7a7c7f" d="M 924.5,187.5 C 925.5,187.5 926.5,187.5 927.5,187.5C 927.5,213.833 927.5,240.167 927.5,266.5C 925.332,267.179 923.332,268.179 921.5,269.5C 920.833,269.333 920.167,269.167 919.5,269C 920.451,268.282 920.617,267.449 920,266.5C 918.933,267.191 917.766,267.691 916.5,268C 917.743,269.154 918.743,270.488 919.5,272C 921.256,272.202 922.922,272.702 924.5,273.5C 923.332,274.906 923.665,276.072 925.5,277C 924.874,277.75 924.374,278.584 924,279.5C 923.612,278.572 922.945,277.905 922,277.5C 919.83,278.72 917.663,278.72 915.5,277.5C 915.5,251.167 915.5,224.833 915.5,198.5C 917.467,198.739 919.301,198.406 921,197.5C 922.067,199.283 923.567,199.783 925.5,199C 924.833,197 924.167,195 923.5,193C 921.837,192.735 920.337,193.235 919,194.5C 918.612,192.924 919.112,191.591 920.5,190.5C 923.428,191.921 924.762,190.921 924.5,187.5 Z"/></g>
<g><path style="opacity:1" fill="#737578" d="M 927.5,266.5 C 927.5,292.5 927.5,318.5 927.5,344.5C 926.5,344.5 925.5,344.5 924.5,344.5C 924.5,345.5 924.5,346.5 924.5,347.5C 921.845,347.341 919.512,346.341 917.5,344.5C 918.609,342.786 917.942,342.119 915.5,342.5C 915.5,320.833 915.5,299.167 915.5,277.5C 917.663,278.72 919.83,278.72 922,277.5C 922.945,277.905 923.612,278.572 924,279.5C 924.374,278.584 924.874,277.75 925.5,277C 923.665,276.072 923.332,274.906 924.5,273.5C 922.922,272.702 921.256,272.202 919.5,272C 918.743,270.488 917.743,269.154 916.5,268C 917.766,267.691 918.933,267.191 920,266.5C 920.617,267.449 920.451,268.282 919.5,269C 920.167,269.167 920.833,269.333 921.5,269.5C 923.332,268.179 925.332,267.179 927.5,266.5 Z"/></g>
<g><path style="opacity:1" fill="#353534" d="M 134.5,324.5 C 135.498,347.661 135.831,370.994 135.5,394.5C 139.236,394.66 139.236,395.493 135.5,397C 134.954,402.244 135.621,407.411 137.5,412.5C 137.21,414.044 136.544,415.377 135.5,416.5C 136.415,417.328 137.081,418.328 137.5,419.5C 135.016,425.058 136.683,428.225 142.5,429C 140.1,429.186 137.766,429.686 135.5,430.5C 141.605,431.528 141.938,433.695 136.5,437C 137.793,437.49 139.127,437.657 140.5,437.5C 140.33,438.822 140.663,439.989 141.5,441C 139.833,442 138.167,443 136.5,444C 137.938,444.219 139.271,444.719 140.5,445.5C 139.39,447.496 139.724,449.329 141.5,451C 137.701,452.553 137.701,453.886 141.5,455C 140.167,455.667 140.167,456.333 141.5,457C 140.692,457.308 140.025,457.808 139.5,458.5C 141.872,459.347 143.872,460.681 145.5,462.5C 144.372,463.262 143.205,463.929 142,464.5C 141.577,463.044 140.744,462.544 139.5,463C 140.833,464 140.833,465 139.5,466C 142.058,467.38 142.058,468.88 139.5,470.5C 140.5,471.5 141.5,472.5 142.5,473.5C 143.726,472.637 145.06,472.637 146.5,473.5C 146.5,512.167 146.5,550.833 146.5,589.5C 145.776,587.782 145.109,585.948 144.5,584C 143.216,583.316 142.049,583.483 141,584.5C 140.075,583.953 139.242,583.287 138.5,582.5C 139.522,580.451 141.856,578.618 145.5,577C 144.833,575.667 144.167,574.333 143.5,573C 142.833,572.333 142.167,572.333 141.5,573C 142.517,574.049 142.684,575.216 142,576.5C 141.363,574.697 140.197,573.364 138.5,572.5C 142.903,571.843 143.57,570.01 140.5,567C 141.308,566.692 141.975,566.192 142.5,565.5C 141.009,563.988 139.176,562.988 137,562.5C 134.393,557.991 135.559,554.825 140.5,553C 138.833,551.833 137.167,550.667 135.5,549.5C 137.287,548.684 138.954,547.684 140.5,546.5C 139.271,545.719 137.938,545.219 136.5,545C 139.742,544.717 140.076,543.883 137.5,542.5C 136.096,543.999 135.43,543.666 135.5,541.5C 135.667,540.833 135.833,540.167 136,539.5C 137.471,541.872 138.637,541.872 139.5,539.5C 139.292,536.815 138.125,536.149 136,537.5C 135.333,535.833 135.333,534.167 136,532.5C 136.718,533.451 137.551,533.617 138.5,533C 134.5,531 134.5,529 138.5,527C 136.275,524.975 135.941,522.642 137.5,520C 136.473,519.487 135.473,518.987 134.5,518.5C 134.5,453.833 134.5,389.167 134.5,324.5 Z"/></g>
<g><path style="opacity:1" fill="#686a6d" d="M 915.5,342.5 C 917.942,342.119 918.609,342.786 917.5,344.5C 919.512,346.341 921.845,347.341 924.5,347.5C 924.5,346.5 924.5,345.5 924.5,344.5C 925.5,344.5 926.5,344.5 927.5,344.5C 927.5,346.5 927.5,348.5 927.5,350.5C 927.5,375.5 927.5,400.5 927.5,425.5C 925.654,425.222 924.32,425.889 923.5,427.5C 924.601,429.642 925.601,431.808 926.5,434C 922.998,433.216 919.665,433.55 916.5,435C 917.5,433.333 918.5,431.667 919.5,430C 918.207,429.51 916.873,429.343 915.5,429.5C 915.5,400.5 915.5,371.5 915.5,342.5 Z"/></g>
<g><path style="opacity:1" fill="#d6a7ac" d="M 549.5,419.5 C 558.598,419.465 567.265,420.798 575.5,423.5C 570.019,422.112 564.352,421.446 558.5,421.5C 557.833,421.5 557.167,421.5 556.5,421.5C 554.167,420.833 551.833,420.167 549.5,419.5 Z"/></g>
<g><path style="opacity:1" fill="#75434a" d="M 549.5,419.5 C 551.833,420.167 554.167,420.833 556.5,421.5C 548.5,421.5 540.5,421.5 532.5,421.5C 537.916,419.883 543.583,419.216 549.5,419.5 Z"/></g>
<g><path style="opacity:1" fill="#201a18" d="M 531.5,421.5 C 531.833,421.5 532.167,421.5 532.5,421.5C 540.5,421.5 548.5,421.5 556.5,421.5C 557.167,421.5 557.833,421.5 558.5,421.5C 571.276,426.117 583.609,431.784 595.5,438.5C 617.968,457.087 634.301,480.087 644.5,507.5C 642.379,507.325 640.379,507.659 638.5,508.5C 632.232,499.335 626.399,489.668 621,479.5C 607.657,460.153 590.157,445.986 568.5,437C 545.394,430.355 524.394,434.355 505.5,449C 499.36,453.806 493.86,459.306 489,465.5C 478.219,480.76 467.719,496.093 457.5,511.5C 455.68,501.71 452.68,492.377 448.5,483.5C 448.5,483.167 448.5,482.833 448.5,482.5C 450.593,481.955 452.593,481.122 454.5,480C 467.314,467.019 480.314,454.186 493.5,441.5C 498.121,437.517 503.121,434.017 508.5,431C 513.944,428.582 519.277,426.082 524.5,423.5C 527.228,423.829 529.562,423.163 531.5,421.5 Z"/></g>
<g><path style="opacity:1" fill="#814f56" d="M 531.5,421.5 C 529.562,423.163 527.228,423.829 524.5,423.5C 526.515,422.076 528.848,421.41 531.5,421.5 Z"/></g>
<g><path style="opacity:1" fill="#c76876" d="M 558.5,421.5 C 564.352,421.446 570.019,422.112 575.5,423.5C 578.149,425.109 581.149,425.943 584.5,426C 585.571,426.852 586.571,427.685 587.5,428.5C 586.127,428.343 584.793,428.51 583.5,429C 587.737,431.984 591.737,435.151 595.5,438.5C 583.609,431.784 571.276,426.117 558.5,421.5 Z"/></g>
<g><path style="opacity:1" fill="#c57584" d="M 524.5,423.5 C 519.277,426.082 513.944,428.582 508.5,431C 503.121,434.017 498.121,437.517 493.5,441.5C 492.5,441.5 491.5,441.5 490.5,441.5C 495.315,437.53 500.315,433.697 505.5,430C 511.61,427.283 517.943,425.117 524.5,423.5 Z"/></g>
<g><path style="opacity:1" fill="#e37e8e" d="M 474.5,451.5 C 474.414,452.496 474.748,453.329 475.5,454C 471.833,455 468.167,456 464.5,457C 463.027,457.71 462.36,458.876 462.5,460.5C 453.188,462.019 443.855,463.686 434.5,465.5C 434.167,465.833 433.833,466.167 433.5,466.5C 434.981,470.285 436.647,473.952 438.5,477.5C 439.325,478.386 440.325,478.719 441.5,478.5C 441.5,479.5 441.5,480.5 441.5,481.5C 443.95,481.298 446.283,481.631 448.5,482.5C 448.5,482.833 448.5,483.167 448.5,483.5C 446.5,483.5 444.5,483.5 442.5,483.5C 436.053,478.873 432.386,472.54 431.5,464.5C 446.274,462.023 460.607,457.69 474.5,451.5 Z"/></g>
<g><path style="opacity:1" fill="#211d1c" d="M 431.5,464.5 C 432.386,472.54 436.053,478.873 442.5,483.5C 437.456,483.173 432.456,483.506 427.5,484.5C 425.928,488.55 424.594,492.55 423.5,496.5C 419.4,486.956 417.4,476.956 417.5,466.5C 422.033,465.016 426.7,464.35 431.5,464.5 Z"/></g>
<g><path style="opacity:1" fill="#ed7085" d="M 490.5,441.5 C 491.5,441.5 492.5,441.5 493.5,441.5C 480.314,454.186 467.314,467.019 454.5,480C 452.593,481.122 450.593,481.955 448.5,482.5C 446.283,481.631 443.95,481.298 441.5,481.5C 441.5,480.5 441.5,479.5 441.5,478.5C 440.325,478.719 439.325,478.386 438.5,477.5C 436.647,473.952 434.981,470.285 433.5,466.5C 433.833,466.167 434.167,465.833 434.5,465.5C 443.855,463.686 453.188,462.019 462.5,460.5C 462.36,458.876 463.027,457.71 464.5,457C 468.167,456 471.833,455 475.5,454C 474.748,453.329 474.414,452.496 474.5,451.5C 479.797,448.181 485.131,444.847 490.5,441.5 Z"/></g>
<g><path style="opacity:1" fill="#5c2c33" d="M 670.5,470.5 C 670.833,470.5 671.167,470.5 671.5,470.5C 672.15,472.435 672.483,474.435 672.5,476.5C 670.926,474.898 670.259,472.898 670.5,470.5 Z"/></g>
<g><path style="opacity:1" fill="#201a19" d="M 412.5,468.5 C 412.896,479.255 414.063,489.922 416,500.5C 416.505,503.865 417.672,506.865 419.5,509.5C 418.81,516.214 417.143,522.547 414.5,528.5C 413.59,526.981 412.757,525.315 412,523.5C 407.578,506.103 405.078,488.436 404.5,470.5C 407.112,469.629 409.779,468.963 412.5,468.5 Z"/></g>
<g><path style="opacity:1" fill="#1e1918" d="M 388.5,478.5 C 389.167,484.167 389.833,489.833 390.5,495.5C 390.666,500.844 390.499,506.177 390,511.5C 389.431,507.639 388.598,507.639 387.5,511.5C 387.094,508.061 386.094,505.061 384.5,502.5C 384.167,495.833 383.833,489.167 383.5,482.5C 384.539,480.469 386.205,479.136 388.5,478.5 Z"/></g>
<g><path style="opacity:1" fill="#e0dedc" d="M 495.5,481.5 C 497.451,481.227 498.951,481.893 500,483.5C 500.499,487.152 500.665,490.818 500.5,494.5C 500.5,505.5 500.5,516.5 500.5,527.5C 500.667,544.503 500.5,561.503 500,578.5C 498.951,580.107 497.451,580.773 495.5,580.5C 491.233,580.797 487.066,580.464 483,579.5C 482.501,574.511 482.334,569.511 482.5,564.5C 482.5,545.833 482.5,527.167 482.5,508.5C 482.5,500.5 482.5,492.5 482.5,484.5C 482.414,483.504 482.748,482.671 483.5,482C 487.486,481.501 491.486,481.334 495.5,481.5 Z"/></g>
<g><path style="opacity:1" fill="#dfdedb" d="M 442.5,483.5 C 444.5,483.5 446.5,483.5 448.5,483.5C 452.68,492.377 455.68,501.71 457.5,511.5C 461.139,522.72 464.473,534.053 467.5,545.5C 469.987,555.615 472.653,565.615 475.5,575.5C 476.167,579.5 474.5,581.167 470.5,580.5C 466.167,580.5 461.833,580.5 457.5,580.5C 456.257,575.057 454.59,569.724 452.5,564.5C 445.197,563.503 437.863,563.169 430.5,563.5C 428.5,563.5 426.5,563.5 424.5,563.5C 424.567,564.959 424.234,566.292 423.5,567.5C 422.371,571.152 421.371,574.818 420.5,578.5C 418.544,580.148 416.211,580.815 413.5,580.5C 410.5,580.5 407.5,580.5 404.5,580.5C 403.504,580.586 402.671,580.252 402,579.5C 401.506,577.866 401.34,576.199 401.5,574.5C 403.557,570.198 404.557,565.531 404.5,560.5C 406.977,558.584 407.977,555.917 407.5,552.5C 409.902,547.899 411.235,542.899 411.5,537.5C 413.117,534.811 414.117,531.811 414.5,528.5C 417.143,522.547 418.81,516.214 419.5,509.5C 421.572,505.436 422.905,501.103 423.5,496.5C 424.594,492.55 425.928,488.55 427.5,484.5C 432.456,483.506 437.456,483.173 442.5,483.5 Z"/></g>
<g><path style="opacity:1" fill="#df6e80" d="M 417.5,466.5 C 417.4,476.956 419.4,486.956 423.5,496.5C 422.905,501.103 421.572,505.436 419.5,509.5C 417.672,506.865 416.505,503.865 416,500.5C 414.063,489.922 412.896,479.255 412.5,468.5C 414.028,467.691 415.694,467.024 417.5,466.5 Z"/></g>
<g><path style="opacity:1" fill="#e96f83" d="M 642.5,461.5 C 648.786,463.443 655.119,465.109 661.5,466.5C 660.427,467.251 660.26,468.251 661,469.5C 673.821,493.455 682.654,518.788 687.5,545.5C 687.41,548.152 688.076,550.485 689.5,552.5C 689.963,555.33 690.629,557.997 691.5,560.5C 691.5,562.167 691.5,563.833 691.5,565.5C 690.767,578.494 690.433,591.494 690.5,604.5C 689.039,608.333 687.872,612.333 687,616.5C 685.951,619.187 684.451,621.52 682.5,623.5C 682.602,611.817 682.269,600.15 681.5,588.5C 681.638,583.586 680.972,578.919 679.5,574.5C 679.04,565.361 677.707,556.361 675.5,547.5C 675.59,544.848 674.924,542.515 673.5,540.5C 670.108,523.992 665.108,507.992 658.5,492.5C 658.245,490.033 657.245,488.033 655.5,486.5C 651.975,477.785 647.642,469.451 642.5,461.5 Z"/></g>
<g><path style="opacity:1" fill="#eb6f84" d="M 638.5,508.5 C 635.391,509.24 632.725,510.906 630.5,513.5C 629.05,512.345 628.05,510.845 627.5,509C 625.942,508.79 624.609,508.29 623.5,507.5C 614.039,486.537 599.706,469.704 580.5,457C 577.438,455.795 574.438,454.628 571.5,453.5C 565.039,450.022 558.039,448.356 550.5,448.5C 540.428,448.351 531.095,450.684 522.5,455.5C 510.667,461.245 501.667,469.912 495.5,481.5C 491.486,481.334 487.486,481.501 483.5,482C 482.748,482.671 482.414,483.504 482.5,484.5C 481.778,484.918 481.278,485.584 481,486.5C 480.667,494.833 480.333,503.167 480,511.5C 478.092,514.206 477.259,517.206 477.5,520.5C 474.929,529.228 471.596,537.561 467.5,545.5C 464.473,534.053 461.139,522.72 457.5,511.5C 467.719,496.093 478.219,480.76 489,465.5C 493.86,459.306 499.36,453.806 505.5,449C 524.394,434.355 545.394,430.355 568.5,437C 590.157,445.986 607.657,460.153 621,479.5C 626.399,489.668 632.232,499.335 638.5,508.5 Z"/></g>
<g><path style="opacity:1" fill="#dedcda" d="M 532.5,478.5 C 532.5,479.167 532.833,479.5 533.5,479.5C 534.488,484.64 534.821,489.974 534.5,495.5C 533.764,497.229 532.43,498.229 530.5,498.5C 526.154,498.666 521.821,498.499 517.5,498C 515.963,496.89 515.297,495.39 515.5,493.5C 515.182,488.968 515.515,484.634 516.5,480.5C 517.289,480.217 517.956,479.717 518.5,479C 523.155,478.501 527.821,478.334 532.5,478.5 Z"/></g>
<g><path style="opacity:1" fill="#dd6a7e" d="M 567.5,464.5 C 588.554,472.885 604.22,487.218 614.5,507.5C 611.196,508.144 609.862,510.144 610.5,513.5C 604.144,504.634 596.81,496.467 588.5,489C 581.116,484.163 573.45,479.996 565.5,476.5C 570.635,477.022 575.468,478.355 580,480.5C 580.595,479.101 580.428,477.768 579.5,476.5C 580.5,475.833 581.5,475.167 582.5,474.5C 579.317,471.74 575.651,469.74 571.5,468.5C 569.8,467.39 568.466,466.057 567.5,464.5 Z"/></g>
<g><path style="opacity:1" fill="#1f1918" d="M 571.5,453.5 C 574.438,454.628 577.438,455.795 580.5,457C 599.706,469.704 614.039,486.537 623.5,507.5C 620.5,507.5 617.5,507.5 614.5,507.5C 604.22,487.218 588.554,472.885 567.5,464.5C 565.901,464.768 564.568,464.434 563.5,463.5C 563.082,462.778 562.416,462.278 561.5,462C 554.986,461.18 548.653,461.347 542.5,462.5C 537.942,462.466 533.942,463.8 530.5,466.5C 528.821,466.892 527.154,467.392 525.5,468C 515.451,475.308 507.117,484.141 500.5,494.5C 500.665,490.818 500.499,487.152 500,483.5C 498.951,481.893 497.451,481.227 495.5,481.5C 501.667,469.912 510.667,461.245 522.5,455.5C 526.534,455.433 530.2,454.266 533.5,452C 539.001,451.634 544.334,450.8 549.5,449.5C 554.222,449.354 558.555,450.52 562.5,453C 565.482,453.498 568.482,453.665 571.5,453.5 Z"/></g>
<g><path style="opacity:1" fill="#e3aab1" d="M 532.5,478.5 C 527.821,478.334 523.155,478.501 518.5,479C 517.956,479.717 517.289,480.217 516.5,480.5C 516.414,479.504 516.748,478.671 517.5,478C 522.684,477.184 527.684,477.35 532.5,478.5 Z"/></g>
<g><path style="opacity:1" fill="#ef7185" d="M 542.5,462.5 C 549.535,462.326 556.535,462.659 563.5,463.5C 564.568,464.434 565.901,464.768 567.5,464.5C 568.466,466.057 569.8,467.39 571.5,468.5C 575.651,469.74 579.317,471.74 582.5,474.5C 581.5,475.167 580.5,475.833 579.5,476.5C 580.428,477.768 580.595,479.101 580,480.5C 575.468,478.355 570.635,477.022 565.5,476.5C 564.833,476.5 564.167,476.5 563.5,476.5C 562.583,474.489 560.917,473.489 558.5,473.5C 553.526,472.745 548.526,472.411 543.5,472.5C 543.5,471.5 543.5,470.5 543.5,469.5C 541.533,469.261 539.699,469.594 538,470.5C 537.5,470 537,469.5 536.5,469C 538.416,466.909 540.416,465.076 542.5,463.5C 542.5,463.167 542.5,462.833 542.5,462.5 Z"/></g>
<g><path style="opacity:1" fill="#843944" d="M 542.5,462.5 C 542.5,462.833 542.5,463.167 542.5,463.5C 538.387,464.149 534.387,465.149 530.5,466.5C 533.942,463.8 537.942,462.466 542.5,462.5 Z"/></g>
<g><path style="opacity:1" fill="#82333e" d="M 542.5,462.5 C 548.653,461.347 554.986,461.18 561.5,462C 562.416,462.278 563.082,462.778 563.5,463.5C 556.535,462.659 549.535,462.326 542.5,462.5 Z"/></g>
<g><path style="opacity:1" fill="#381e1f" d="M 571.5,453.5 C 568.482,453.665 565.482,453.498 562.5,453C 558.555,450.52 554.222,449.354 549.5,449.5C 544.334,450.8 539.001,451.634 533.5,452C 530.2,454.266 526.534,455.433 522.5,455.5C 531.095,450.684 540.428,448.351 550.5,448.5C 558.039,448.356 565.039,450.022 571.5,453.5 Z"/></g>
<g><path style="opacity:1" fill="#d46a7a" d="M 586.5,502.5 C 584.193,502.014 582.027,502.014 580,502.5C 577.281,499.57 574.447,496.736 571.5,494C 565.291,493.073 559.124,491.906 553,490.5C 549.661,492.044 546.161,492.71 542.5,492.5C 559.046,487.277 573.713,490.611 586.5,502.5 Z"/></g>
<g><path style="opacity:1" fill="#6f2b34" d="M 655.5,486.5 C 657.245,488.033 658.245,490.033 658.5,492.5C 656.755,490.967 655.755,488.967 655.5,486.5 Z"/></g>
<g><path style="opacity:1" fill="#e57082" d="M 542.5,463.5 C 540.416,465.076 538.416,466.909 536.5,469C 537,469.5 537.5,470 538,470.5C 539.699,469.594 541.533,469.261 543.5,469.5C 543.5,470.5 543.5,471.5 543.5,472.5C 548.526,472.411 553.526,472.745 558.5,473.5C 560.917,473.489 562.583,474.489 563.5,476.5C 562.167,476.5 560.833,476.5 559.5,476.5C 556.45,475.065 553.117,474.398 549.5,474.5C 546.186,474.343 543.186,475.009 540.5,476.5C 537.654,476.552 535.32,477.552 533.5,479.5C 532.833,479.5 532.5,479.167 532.5,478.5C 527.684,477.35 522.684,477.184 517.5,478C 516.748,478.671 516.414,479.504 516.5,480.5C 515.515,484.634 515.182,488.968 515.5,493.5C 507.775,503.618 502.775,514.952 500.5,527.5C 500.5,516.5 500.5,505.5 500.5,494.5C 507.117,484.141 515.451,475.308 525.5,468C 527.154,467.392 528.821,466.892 530.5,466.5C 534.387,465.149 538.387,464.149 542.5,463.5 Z"/></g>
<g><path style="opacity:1" fill="#6a2c34" d="M 559.5,476.5 C 553.161,475.232 546.828,475.232 540.5,476.5C 543.186,475.009 546.186,474.343 549.5,474.5C 553.117,474.398 556.45,475.065 559.5,476.5 Z"/></g>
<g><path style="opacity:1" fill="#6a2d35" d="M 388.5,478.5 C 388.5,477.833 388.833,477.5 389.5,477.5C 390.49,483.31 390.823,489.31 390.5,495.5C 389.833,489.833 389.167,484.167 388.5,478.5 Z"/></g>
<g><path style="opacity:1" fill="#eb7084" d="M 586.5,502.5 C 587.167,502.833 587.833,503.167 588.5,503.5C 587.194,504.467 586.527,505.801 586.5,507.5C 585.167,507.5 583.833,507.5 582.5,507.5C 580.05,507.702 577.717,507.369 575.5,506.5C 574.486,505.326 573.153,504.66 571.5,504.5C 570.571,503.685 569.571,502.852 568.5,502C 562.651,501.182 556.985,501.348 551.5,502.5C 545.118,504.848 539.452,508.515 534.5,513.5C 534.617,511.516 533.95,509.85 532.5,508.5C 529.232,507.513 525.898,507.18 522.5,507.5C 524.482,503.854 527.149,500.854 530.5,498.5C 532.43,498.229 533.764,497.229 534.5,495.5C 536.978,494.117 539.645,493.117 542.5,492.5C 546.161,492.71 549.661,492.044 553,490.5C 559.124,491.906 565.291,493.073 571.5,494C 574.447,496.736 577.281,499.57 580,502.5C 582.027,502.014 584.193,502.014 586.5,502.5 Z"/></g>
<g><path style="opacity:1" fill="#1a1818" d="M 374.5,490.5 C 375.257,497.177 375.923,504.01 376.5,511C 375.747,512.877 374.914,514.711 374,516.5C 373.667,511.167 373.333,505.833 373,500.5C 372.667,500.833 372.333,501.167 372,501.5C 371.768,500.263 371.268,499.263 370.5,498.5C 370.5,497.833 370.5,497.167 370.5,496.5C 371.34,494.147 372.674,492.147 374.5,490.5 Z"/></g>
<g><path style="opacity:1" fill="#e97185" d="M 671.5,470.5 C 681.228,477.077 687.728,486.077 691,497.5C 693.25,504.006 694.916,510.673 696,517.5C 697.016,526.983 696.516,536.316 694.5,545.5C 691.081,529.726 686.914,514.059 682,498.5C 679.608,490.727 676.441,483.394 672.5,476.5C 672.483,474.435 672.15,472.435 671.5,470.5 Z"/></g>
<g><path style="opacity:1" fill="#d26678" d="M 404.5,470.5 C 405.078,488.436 407.578,506.103 412,523.5C 412.757,525.315 413.59,526.981 414.5,528.5C 414.117,531.811 413.117,534.811 411.5,537.5C 407.767,527.664 405.267,517.331 404,506.5C 403.141,494.985 401.974,483.651 400.5,472.5C 401.671,471.655 403.005,470.989 404.5,470.5 Z"/></g>
<g><path style="opacity:1" fill="#dd7e8e" d="M 482.5,484.5 C 482.5,492.5 482.5,500.5 482.5,508.5C 480.833,512.5 479.167,516.5 477.5,520.5C 477.259,517.206 478.092,514.206 480,511.5C 480.333,503.167 480.667,494.833 481,486.5C 481.278,485.584 481.778,484.918 482.5,484.5 Z"/></g>
<g><path style="opacity:1" fill="#1f1918" d="M 559.5,476.5 C 560.833,476.5 562.167,476.5 563.5,476.5C 564.167,476.5 564.833,476.5 565.5,476.5C 573.45,479.996 581.116,484.163 588.5,489C 596.81,496.467 604.144,504.634 610.5,513.5C 610.5,519.5 610.5,525.5 610.5,531.5C 604.28,521.281 596.947,511.948 588.5,503.5C 587.833,503.167 587.167,502.833 586.5,502.5C 573.713,490.611 559.046,487.277 542.5,492.5C 539.645,493.117 536.978,494.117 534.5,495.5C 534.821,489.974 534.488,484.64 533.5,479.5C 535.32,477.552 537.654,476.552 540.5,476.5C 546.828,475.232 553.161,475.232 559.5,476.5 Z"/></g>
<g><path style="opacity:1" fill="#732b34" d="M 551.5,502.5 C 556.985,501.348 562.651,501.182 568.5,502C 569.571,502.852 570.571,503.685 571.5,504.5C 565.06,502.677 558.393,502.01 551.5,502.5 Z"/></g>
<g><path style="opacity:1" fill="#241a19" d="M 661.5,466.5 C 664.878,467.023 667.878,468.356 670.5,470.5C 670.259,472.898 670.926,474.898 672.5,476.5C 676.441,483.394 679.608,490.727 682,498.5C 686.914,514.059 691.081,529.726 694.5,545.5C 694.5,547.833 694.5,550.167 694.5,552.5C 693.883,552.611 693.383,552.944 693,553.5C 692.814,556.036 692.314,558.369 691.5,560.5C 690.629,557.997 689.963,555.33 689.5,552.5C 689.59,549.848 688.924,547.515 687.5,545.5C 682.654,518.788 673.821,493.455 661,469.5C 660.26,468.251 660.427,467.251 661.5,466.5 Z"/></g>
<g><path style="opacity:1" fill="#d86b7c" d="M 394.5,475.5 C 394.609,492.372 396.276,509.038 399.5,525.5C 399.41,528.152 400.076,530.485 401.5,532.5C 402.628,539.516 404.628,546.182 407.5,552.5C 407.977,555.917 406.977,558.584 404.5,560.5C 401.126,550.703 398.126,540.703 395.5,530.5C 393.625,518.725 391.958,507.058 390.5,495.5C 390.823,489.31 390.49,483.31 389.5,477.5C 390.93,476.463 392.597,475.796 394.5,475.5 Z"/></g>
<g><path style="opacity:1" fill="#2d1b1b" d="M 390.5,495.5 C 391.958,507.058 393.625,518.725 395.5,530.5C 392.961,526.042 391.461,521.042 391,515.5C 390.29,514.027 389.124,513.36 387.5,513.5C 388.167,520.833 388.833,528.167 389.5,535.5C 387.059,526.046 385.392,516.379 384.5,506.5C 384.5,505.167 384.5,503.833 384.5,502.5C 386.094,505.061 387.094,508.061 387.5,511.5C 388.598,507.639 389.431,507.639 390,511.5C 390.499,506.177 390.666,500.844 390.5,495.5 Z"/></g>
<g><path style="opacity:1" fill="#1e1918" d="M 515.5,493.5 C 515.297,495.39 515.963,496.89 517.5,498C 521.821,498.499 526.154,498.666 530.5,498.5C 527.149,500.854 524.482,503.854 522.5,507.5C 519.956,507.104 517.789,507.771 516,509.5C 515.501,515.157 515.334,520.824 515.5,526.5C 513.945,530.203 513.278,534.203 513.5,538.5C 513.429,544.068 514.096,549.401 515.5,554.5C 515.5,561.167 515.5,567.833 515.5,574.5C 512.145,589.549 504.479,601.882 492.5,611.5C 489.933,612.75 487.267,613.917 484.5,615C 461.526,617.004 442.693,609.171 428,591.5C 426,588.833 424,586.167 422,583.5C 420.991,581.975 420.491,580.308 420.5,578.5C 421.371,574.818 422.371,571.152 423.5,567.5C 428.883,575.061 434.883,582.228 441.5,589C 449.686,595.594 459.02,599.094 469.5,599.5C 482.585,598.978 491.252,592.645 495.5,580.5C 497.451,580.773 498.951,580.107 500,578.5C 500.5,561.503 500.667,544.503 500.5,527.5C 502.775,514.952 507.775,503.618 515.5,493.5 Z"/></g>
<g><path style="opacity:1" fill="#221a18" d="M 400.5,472.5 C 401.974,483.651 403.141,494.985 404,506.5C 405.267,517.331 407.767,527.664 411.5,537.5C 411.235,542.899 409.902,547.899 407.5,552.5C 404.628,546.182 402.628,539.516 401.5,532.5C 401.59,529.848 400.924,527.515 399.5,525.5C 396.276,509.038 394.609,492.372 394.5,475.5C 396.181,473.992 398.181,472.992 400.5,472.5 Z"/></g>
<g><path style="opacity:1" fill="#dedbd9" d="M 522.5,507.5 C 525.898,507.18 529.232,507.513 532.5,508.5C 533.95,509.85 534.617,511.516 534.5,513.5C 534.667,535.169 534.5,556.836 534,578.5C 531.174,580.34 528.007,581.006 524.5,580.5C 522.143,580.663 519.81,580.497 517.5,580C 515.845,578.556 515.178,576.722 515.5,574.5C 515.5,567.833 515.5,561.167 515.5,554.5C 515.5,545.167 515.5,535.833 515.5,526.5C 515.334,520.824 515.501,515.157 516,509.5C 517.789,507.771 519.956,507.104 522.5,507.5 Z"/></g>
<g><path style="opacity:1" fill="#dfdddb" d="M 614.5,507.5 C 617.5,507.5 620.5,507.5 623.5,507.5C 624.609,508.29 625.942,508.79 627.5,509C 628.05,510.845 629.05,512.345 630.5,513.5C 632.725,510.906 635.391,509.24 638.5,508.5C 640.379,507.659 642.379,507.325 644.5,507.5C 647.044,507.104 649.211,507.771 651,509.5C 651.499,515.491 651.666,521.491 651.5,527.5C 649.886,529.075 647.886,529.741 645.5,529.5C 642.15,529.335 638.817,529.502 635.5,530C 634.584,530.278 633.918,530.778 633.5,531.5C 631.75,532.659 630.75,534.326 630.5,536.5C 629.507,545.318 629.173,554.318 629.5,563.5C 629.666,568.511 629.499,573.511 629,578.5C 628.583,579.756 627.75,580.423 626.5,580.5C 625.167,580.5 623.833,580.5 622.5,580.5C 619.5,580.5 616.5,580.5 613.5,580.5C 612.25,580.423 611.417,579.756 611,578.5C 610.502,575.183 610.335,571.85 610.5,568.5C 610.5,560.833 610.5,553.167 610.5,545.5C 610.5,540.833 610.5,536.167 610.5,531.5C 610.5,525.5 610.5,519.5 610.5,513.5C 609.862,510.144 611.196,508.144 614.5,507.5 Z"/></g>
<g><path style="opacity:1" fill="#dfdedc" d="M 575.5,506.5 C 577.717,507.369 580.05,507.702 582.5,507.5C 592.195,512.204 598.195,519.87 600.5,530.5C 600.5,537.167 600.5,543.833 600.5,550.5C 600.577,554.962 599.91,559.295 598.5,563.5C 596.385,570.277 592.385,575.611 586.5,579.5C 580.899,580.863 575.232,581.863 569.5,582.5C 562.878,581.743 557.211,579.076 552.5,574.5C 550.819,571.797 549.153,569.131 547.5,566.5C 545.037,558.372 544.037,550.039 544.5,541.5C 543.251,526.706 548.918,515.54 561.5,508C 566.102,506.878 570.768,506.378 575.5,506.5 Z"/></g>
<g><path style="opacity:1" fill="#e27386" d="M 588.5,503.5 C 596.947,511.948 604.28,521.281 610.5,531.5C 610.5,536.167 610.5,540.833 610.5,545.5C 607.415,540.328 604.081,535.328 600.5,530.5C 598.195,519.87 592.195,512.204 582.5,507.5C 583.833,507.5 585.167,507.5 586.5,507.5C 586.527,505.801 587.194,504.467 588.5,503.5 Z"/></g>
<g><path style="opacity:1" fill="#201918" d="M 395.5,530.5 C 398.126,540.703 401.126,550.703 404.5,560.5C 404.557,565.531 403.557,570.198 401.5,574.5C 395.523,562.228 391.523,549.228 389.5,535.5C 388.833,528.167 388.167,520.833 387.5,513.5C 389.124,513.36 390.29,514.027 391,515.5C 391.461,521.042 392.961,526.042 395.5,530.5 Z"/></g>
<g><path style="opacity:1" fill="#cd6475" d="M 383.5,482.5 C 383.833,489.167 384.167,495.833 384.5,502.5C 384.5,503.833 384.5,505.167 384.5,506.5C 383.454,499.341 382.621,492.007 382,484.5C 379.43,486.219 377.93,488.553 377.5,491.5C 378.741,504.185 380.074,516.852 381.5,529.5C 378.566,515.963 376.566,502.297 375.5,488.5C 377.8,486.016 380.467,484.016 383.5,482.5 Z"/></g>
<g><path style="opacity:1" fill="#3b2f2d" d="M 441.5,519.5 C 441.5,519.833 441.5,520.167 441.5,520.5C 440.833,520.5 440.167,520.5 439.5,520.5C 439.027,519.094 438.027,518.427 436.5,518.5C 436.264,515.171 437.097,512.171 439,509.5C 439.943,512.824 440.776,516.157 441.5,519.5 Z"/></g>
<g><path style="opacity:1" fill="#5a5c5d" d="M 927.5,425.5 C 927.5,456.5 927.5,487.5 927.5,518.5C 922.97,519.02 922.637,520.186 926.5,522C 924.491,524.995 923.991,528.161 925,531.5C 924.586,531.957 924.086,532.291 923.5,532.5C 922.833,531.167 922.167,529.833 921.5,528.5C 919.827,530.086 917.827,530.753 915.5,530.5C 915.5,496.833 915.5,463.167 915.5,429.5C 916.873,429.343 918.207,429.51 919.5,430C 918.5,431.667 917.5,433.333 916.5,435C 919.665,433.55 922.998,433.216 926.5,434C 925.601,431.808 924.601,429.642 923.5,427.5C 924.32,425.889 925.654,425.222 927.5,425.5 Z"/></g>
<g><path style="opacity:1" fill="#d9909a" d="M 366.5,508.5 C 365.801,518.151 365.468,527.817 365.5,537.5C 364.834,533.681 364.501,529.681 364.5,525.5C 364.305,519.583 364.971,513.916 366.5,508.5 Z"/></g>
<g><path style="opacity:1" fill="#23201f" d="M 482.5,508.5 C 482.5,527.167 482.5,545.833 482.5,564.5C 480.416,568.336 478.083,572.003 475.5,575.5C 472.653,565.615 469.987,555.615 467.5,545.5C 471.596,537.561 474.929,529.228 477.5,520.5C 479.167,516.5 480.833,512.5 482.5,508.5 Z"/></g>
<g><path style="opacity:1" fill="#5e252b" d="M 399.5,525.5 C 400.924,527.515 401.59,529.848 401.5,532.5C 400.076,530.485 399.41,528.152 399.5,525.5 Z"/></g>
<g><path style="opacity:1" fill="#eb7084" d="M 587.5,428.5 C 591.856,429.511 595.856,431.344 599.5,434C 609.196,440.843 618.862,447.676 628.5,454.5C 642.64,474.447 653.307,496.114 660.5,519.5C 663.481,529.903 665.648,540.57 667,551.5C 669.423,557.064 671.257,562.73 672.5,568.5C 672.5,569.833 672.5,571.167 672.5,572.5C 674.33,592.455 675.33,612.455 675.5,632.5C 673.082,635.547 670.082,637.88 666.5,639.5C 667.173,620.017 666.173,600.683 663.5,581.5C 663.72,576.9 663.054,572.567 661.5,568.5C 660.737,560.04 659.237,551.707 657,543.5C 655.595,537.892 653.761,532.559 651.5,527.5C 651.666,521.491 651.499,515.491 651,509.5C 649.211,507.771 647.044,507.104 644.5,507.5C 634.301,480.087 617.968,457.087 595.5,438.5C 591.737,435.151 587.737,431.984 583.5,429C 584.793,428.51 586.127,428.343 587.5,428.5 Z"/></g>
<g><path style="opacity:1" fill="#251b1a" d="M 651.5,527.5 C 653.761,532.559 655.595,537.892 657,543.5C 659.237,551.707 660.737,560.04 661.5,568.5C 661.28,573.1 661.946,577.433 663.5,581.5C 666.173,600.683 667.173,620.017 666.5,639.5C 664.989,640.502 663.322,641.169 661.5,641.5C 662.798,627.986 662.465,614.653 660.5,601.5C 660.102,595.661 659.435,589.994 658.5,584.5C 657.833,580.5 657.167,576.5 656.5,572.5C 656.59,569.848 655.924,567.515 654.5,565.5C 654.001,561.51 653.501,557.51 653,553.5C 650.185,545.568 647.685,537.568 645.5,529.5C 647.886,529.741 649.886,529.075 651.5,527.5 Z"/></g>
<g><path style="opacity:1" fill="#e7788a" d="M 436.5,518.5 C 438.027,518.427 439.027,519.094 439.5,520.5C 438.85,520.804 438.183,521.137 437.5,521.5C 436.808,524.163 435.808,526.663 434.5,529C 434.611,530.722 435.111,530.888 436,529.5C 436.495,531.473 436.662,533.473 436.5,535.5C 434.641,535.461 433.308,536.294 432.5,538C 433.253,539.487 434.086,539.654 435,538.5C 435.308,539.308 435.808,539.975 436.5,540.5C 438.833,539.167 441.167,539.167 443.5,540.5C 443.833,539 444.167,537.5 444.5,536C 443.151,530.854 442.151,525.687 441.5,520.5C 441.5,520.167 441.5,519.833 441.5,519.5C 444.552,526.748 446.218,534.415 446.5,542.5C 441.833,542.5 437.167,542.5 432.5,542.5C 432.068,541.29 431.401,540.29 430.5,539.5C 432.007,532.256 434.007,525.256 436.5,518.5 Z"/></g>
<g><path style="opacity:1" fill="#f07084" d="M 439.5,520.5 C 440.167,520.5 440.833,520.5 441.5,520.5C 442.151,525.687 443.151,530.854 444.5,536C 444.167,537.5 443.833,539 443.5,540.5C 441.167,539.167 438.833,539.167 436.5,540.5C 435.808,539.975 435.308,539.308 435,538.5C 434.086,539.654 433.253,539.487 432.5,538C 433.308,536.294 434.641,535.461 436.5,535.5C 436.662,533.473 436.495,531.473 436,529.5C 435.111,530.888 434.611,530.722 434.5,529C 435.808,526.663 436.808,524.163 437.5,521.5C 438.183,521.137 438.85,520.804 439.5,520.5 Z"/></g>
<g><path style="opacity:1" fill="#e87486" d="M 581.5,546.5 C 575.101,544.341 569.434,545.341 564.5,549.5C 562.918,542.149 563.418,534.816 566,527.5C 570.002,523.878 574.335,523.544 579,526.5C 580.942,533.021 581.775,539.687 581.5,546.5 Z"/></g>
<g><path style="opacity:1" fill="#cf6f80" d="M 515.5,526.5 C 515.5,535.833 515.5,545.167 515.5,554.5C 514.096,549.401 513.429,544.068 513.5,538.5C 513.278,534.203 513.945,530.203 515.5,526.5 Z"/></g>
<g><path style="opacity:1" fill="#8b565b" d="M 365.5,538.5 C 366.989,542.236 367.656,546.236 367.5,550.5C 366.205,546.733 365.539,542.733 365.5,538.5 Z"/></g>
<g><path style="opacity:1" fill="#372828" d="M 430.5,539.5 C 431.401,540.29 432.068,541.29 432.5,542.5C 431.448,542.649 430.448,542.483 429.5,542C 430.252,541.329 430.586,540.496 430.5,539.5 Z"/></g>
<g><path style="opacity:1" fill="#e76f82" d="M 645.5,529.5 C 647.685,537.568 650.185,545.568 653,553.5C 653.501,557.51 654.001,561.51 654.5,565.5C 654.41,568.152 655.076,570.485 656.5,572.5C 657.167,576.5 657.833,580.5 658.5,584.5C 658.5,586.5 658.5,588.5 658.5,590.5C 657.883,590.389 657.383,590.056 657,589.5C 656.529,585.683 655.529,582.017 654,578.5C 653.548,571.217 652.548,564.55 651,558.5C 649.315,560.988 647.981,560.655 647,557.5C 646.192,559.423 645.692,561.423 645.5,563.5C 647.456,566.671 648.789,570.171 649.5,574C 649.797,577.392 649.464,580.892 648.5,584.5C 647.388,582.401 646.721,580.067 646.5,577.5C 646.237,572.876 645.237,568.542 643.5,564.5C 643.371,562.784 643.038,561.117 642.5,559.5C 642.706,556.505 642.04,553.838 640.5,551.5C 639.093,545.086 637.259,538.752 635,532.5C 634.617,531.944 634.117,531.611 633.5,531.5C 633.918,530.778 634.584,530.278 635.5,530C 638.817,529.502 642.15,529.335 645.5,529.5 Z"/></g>
<g><path style="opacity:1" fill="#bc5769" d="M 660.5,519.5 C 666.189,535.258 670.189,551.591 672.5,568.5C 671.257,562.73 669.423,557.064 667,551.5C 665.648,540.57 663.481,529.903 660.5,519.5 Z"/></g>
<g><path style="opacity:1" fill="#722e35" d="M 673.5,540.5 C 674.924,542.515 675.59,544.848 675.5,547.5C 674.076,545.485 673.41,543.152 673.5,540.5 Z"/></g>
<g><path style="opacity:1" fill="#1d1b19" d="M 581.5,546.5 C 582.258,552.45 580.924,557.783 577.5,562.5C 573.078,565.438 569.244,564.771 566,560.5C 564.763,556.94 564.263,553.273 564.5,549.5C 569.434,545.341 575.101,544.341 581.5,546.5 Z"/></g>
<g><path style="opacity:1" fill="#26201e" d="M 600.5,530.5 C 604.081,535.328 607.415,540.328 610.5,545.5C 610.5,553.167 610.5,560.833 610.5,568.5C 607.688,562.21 604.355,556.21 600.5,550.5C 600.5,543.833 600.5,537.167 600.5,530.5 Z"/></g>
<g><path style="opacity:1" fill="#8a3d48" d="M 687.5,545.5 C 688.924,547.515 689.59,549.848 689.5,552.5C 688.076,550.485 687.41,548.152 687.5,545.5 Z"/></g>
<g><path style="opacity:1" fill="#63272e" d="M 640.5,551.5 C 642.04,553.838 642.706,556.505 642.5,559.5C 641.232,557.095 640.565,554.428 640.5,551.5 Z"/></g>
<g><path style="opacity:1" fill="#211918" d="M 628.5,454.5 C 632.995,457.218 637.662,459.551 642.5,461.5C 647.642,469.451 651.975,477.785 655.5,486.5C 655.755,488.967 656.755,490.967 658.5,492.5C 665.108,507.992 670.108,523.992 673.5,540.5C 673.41,543.152 674.076,545.485 675.5,547.5C 677.707,556.361 679.04,565.361 679.5,574.5C 679.362,579.414 680.028,584.081 681.5,588.5C 682.269,600.15 682.602,611.817 682.5,623.5C 681.66,625.853 680.326,627.853 678.5,629.5C 677.67,621.01 677.17,612.343 677,603.5C 676.768,602.263 676.268,601.263 675.5,600.5C 675.307,590.935 674.307,581.602 672.5,572.5C 672.5,571.167 672.5,569.833 672.5,568.5C 670.189,551.591 666.189,535.258 660.5,519.5C 653.307,496.114 642.64,474.447 628.5,454.5 Z"/></g>
<g><path style="opacity:1" fill="#5a524f" d="M 694.5,552.5 C 693.648,556.794 692.982,561.127 692.5,565.5C 692.167,565.5 691.833,565.5 691.5,565.5C 691.5,563.833 691.5,562.167 691.5,560.5C 692.314,558.369 692.814,556.036 693,553.5C 693.383,552.944 693.883,552.611 694.5,552.5 Z"/></g>
<g><path style="opacity:1" fill="#de6e81" d="M 544.5,541.5 C 544.037,550.039 545.037,558.372 547.5,566.5C 546.21,565.942 545.377,564.942 545,563.5C 543.989,564.337 542.822,564.67 541.5,564.5C 539.9,569.612 539.067,574.945 539,580.5C 538.667,579.833 538.333,579.167 538,578.5C 537.667,580.833 537.333,583.167 537,585.5C 536.617,586.056 536.117,586.389 535.5,586.5C 537.76,571.256 540.76,556.256 544.5,541.5 Z"/></g>
<g><path style="opacity:1" fill="#e76d82" d="M 370.5,496.5 C 370.5,497.167 370.5,497.833 370.5,498.5C 373.022,545.071 386.855,587.738 412,626.5C 419.396,636.73 428.229,645.397 438.5,652.5C 442.323,655.916 446.657,658.582 451.5,660.5C 458.949,664.366 466.949,666.7 475.5,667.5C 471.688,668.324 467.688,668.824 463.5,669C 462.944,669.383 462.611,669.883 462.5,670.5C 461.5,670.5 460.5,670.5 459.5,670.5C 451.718,668.751 443.718,667.418 435.5,666.5C 415.462,650.627 399.628,631.293 388,608.5C 382.845,596.843 378.012,585.176 373.5,573.5C 371.741,565.68 369.741,558.013 367.5,550.5C 367.656,546.236 366.989,542.236 365.5,538.5C 365.5,538.167 365.5,537.833 365.5,537.5C 365.468,527.817 365.801,518.151 366.5,508.5C 366.934,504.052 368.268,500.052 370.5,496.5 Z"/></g>
<g><path style="opacity:1" fill="#372b29" d="M 367.5,550.5 C 369.741,558.013 371.741,565.68 373.5,573.5C 372.778,573.082 372.278,572.416 372,571.5C 371.502,574.482 371.335,577.482 371.5,580.5C 369.551,570.714 368.218,560.714 367.5,550.5 Z"/></g>
<g><path style="opacity:1" fill="#893e49" d="M 654.5,565.5 C 655.924,567.515 656.59,569.848 656.5,572.5C 655.076,570.485 654.41,568.152 654.5,565.5 Z"/></g>
<g><path style="opacity:1" fill="#1d1917" d="M 598.5,563.5 C 601.726,566.93 604.226,570.93 606,575.5C 614.419,599.767 618.252,624.767 617.5,650.5C 614.833,650.5 612.167,650.5 609.5,650.5C 609.821,645.305 609.487,640.305 608.5,635.5C 607.986,625.712 605.986,616.379 602.5,607.5C 600.916,598.666 597.416,590.666 592,583.5C 590.008,582.335 588.175,581.002 586.5,579.5C 592.385,575.611 596.385,570.277 598.5,563.5 Z"/></g>
<g><path style="opacity:1" fill="#4b2427" d="M 643.5,564.5 C 645.237,568.542 646.237,572.876 646.5,577.5C 645.778,577.082 645.278,576.416 645,575.5C 644.452,571.83 643.952,568.163 643.5,564.5 Z"/></g>
<g><path style="opacity:1" fill="#dfcccd" d="M 691.5,565.5 C 691.833,565.5 692.167,565.5 692.5,565.5C 692.667,577.838 692.5,590.171 692,602.5C 691.722,603.416 691.222,604.082 690.5,604.5C 690.433,591.494 690.767,578.494 691.5,565.5 Z"/></g>
<g><path style="opacity:1" fill="#4f5051" d="M 927.5,350.5 C 927.833,350.5 928.167,350.5 928.5,350.5C 928.5,428.167 928.5,505.833 928.5,583.5C 927.504,596.99 927.171,610.656 927.5,624.5C 925.692,626.377 924.026,628.377 922.5,630.5C 920.668,629.752 919.001,628.752 917.5,627.5C 916.818,628.243 916.151,628.909 915.5,629.5C 915.5,596.5 915.5,563.5 915.5,530.5C 917.827,530.753 919.827,530.086 921.5,528.5C 922.167,529.833 922.833,531.167 923.5,532.5C 924.086,532.291 924.586,531.957 925,531.5C 923.991,528.161 924.491,524.995 926.5,522C 922.637,520.186 922.97,519.02 927.5,518.5C 927.5,487.5 927.5,456.5 927.5,425.5C 927.5,400.5 927.5,375.5 927.5,350.5 Z"/></g>
<g><path style="opacity:1" fill="#1c1816" d="M 552.5,574.5 C 557.211,579.076 562.878,581.743 569.5,582.5C 561.267,594.617 553.767,607.283 547,620.5C 539.65,632.519 530.817,643.352 520.5,653C 516.991,655.03 513.658,657.196 510.5,659.5C 507.5,660.833 504.5,662.167 501.5,663.5C 496.578,663.87 491.911,664.87 487.5,666.5C 486.833,666.5 486.167,666.5 485.5,666.5C 481.818,666.665 478.152,666.499 474.5,666C 466.821,664.157 459.154,662.323 451.5,660.5C 446.657,658.582 442.323,655.916 438.5,652.5C 438.196,651.85 437.863,651.183 437.5,650.5C 441.421,648.495 445.421,647.828 449.5,648.5C 454.899,651.03 460.565,652.697 466.5,653.5C 474.323,654.656 482.323,654.823 490.5,654C 493.187,653.272 495.52,652.105 497.5,650.5C 501.316,649.599 504.983,648.099 508.5,646C 512.667,642.5 516.833,639 521,635.5C 529.723,624.707 536.89,613.04 542.5,600.5C 544.451,599.718 545.951,598.384 547,596.5C 548.219,589.699 549.719,583.032 551.5,576.5C 551.328,575.508 551.662,574.842 552.5,574.5 Z"/></g>
<g><path style="opacity:1" fill="#50272b" d="M 661.5,568.5 C 663.054,572.567 663.72,576.9 663.5,581.5C 661.946,577.433 661.28,573.1 661.5,568.5 Z"/></g>
<g><path style="opacity:1" fill="#201918" d="M 633.5,531.5 C 634.117,531.611 634.617,531.944 635,532.5C 637.259,538.752 639.093,545.086 640.5,551.5C 640.565,554.428 641.232,557.095 642.5,559.5C 643.038,561.117 643.371,562.784 643.5,564.5C 643.952,568.163 644.452,571.83 645,575.5C 645.278,576.416 645.778,577.082 646.5,577.5C 646.721,580.067 647.388,582.401 648.5,584.5C 650.213,604.453 650.88,624.453 650.5,644.5C 648.735,645.461 646.735,645.795 644.5,645.5C 645.01,627.744 644.344,610.077 642.5,592.5C 642.678,588.878 642.011,585.544 640.5,582.5C 638.054,566.931 634.72,551.598 630.5,536.5C 630.75,534.326 631.75,532.659 633.5,531.5 Z"/></g>
<g><path style="opacity:1" fill="#642930" d="M 679.5,574.5 C 680.972,578.919 681.638,583.586 681.5,588.5C 680.028,584.081 679.362,579.414 679.5,574.5 Z"/></g>
<g><path style="opacity:1" fill="#302f2e" d="M 134.5,518.5 C 135.473,518.987 136.473,519.487 137.5,520C 135.941,522.642 136.275,524.975 138.5,527C 134.5,529 134.5,531 138.5,533C 137.551,533.617 136.718,533.451 136,532.5C 135.333,534.167 135.333,535.833 136,537.5C 138.125,536.149 139.292,536.815 139.5,539.5C 138.637,541.872 137.471,541.872 136,539.5C 135.833,540.167 135.667,540.833 135.5,541.5C 135.43,543.666 136.096,543.999 137.5,542.5C 140.076,543.883 139.742,544.717 136.5,545C 137.938,545.219 139.271,545.719 140.5,546.5C 138.954,547.684 137.287,548.684 135.5,549.5C 137.167,550.667 138.833,551.833 140.5,553C 135.559,554.825 134.393,557.991 137,562.5C 139.176,562.988 141.009,563.988 142.5,565.5C 141.975,566.192 141.308,566.692 140.5,567C 143.57,570.01 142.903,571.843 138.5,572.5C 140.197,573.364 141.363,574.697 142,576.5C 142.684,575.216 142.517,574.049 141.5,573C 142.167,572.333 142.833,572.333 143.5,573C 144.167,574.333 144.833,575.667 145.5,577C 141.856,578.618 139.522,580.451 138.5,582.5C 139.242,583.287 140.075,583.953 141,584.5C 142.049,583.483 143.216,583.316 144.5,584C 145.109,585.948 145.776,587.782 146.5,589.5C 146.5,622.833 146.5,656.167 146.5,689.5C 145.542,689.047 144.708,688.381 144,687.5C 142.103,689.016 139.936,689.683 137.5,689.5C 137.281,688.325 137.614,687.325 138.5,686.5C 140.167,685.833 141.833,685.167 143.5,684.5C 144.386,683.675 144.719,682.675 144.5,681.5C 141.689,681.174 139.022,680.341 136.5,679C 138.521,678.487 140.021,677.32 141,675.5C 143.69,676.459 144.024,675.792 142,673.5C 140.355,673.693 138.521,673.86 136.5,674C 135.874,674.75 135.374,675.584 135,676.5C 134.5,623.834 134.333,571.168 134.5,518.5 Z"/></g>
<g><path style="opacity:1" fill="#6a2b32" d="M 640.5,582.5 C 642.011,585.544 642.678,588.878 642.5,592.5C 641.215,589.411 640.549,586.078 640.5,582.5 Z"/></g>
<g><path style="opacity:1" fill="#c96878" d="M 622.5,580.5 C 623.833,580.5 625.167,580.5 626.5,580.5C 628.963,592.322 630.296,604.322 630.5,616.5C 630.5,627.167 630.5,637.833 630.5,648.5C 629.5,648.5 628.5,648.5 627.5,648.5C 629.094,635.635 628.761,622.968 626.5,610.5C 626.327,600.312 624.994,590.312 622.5,580.5 Z"/></g>
<g><path style="opacity:1" fill="#83323d" d="M 658.5,584.5 C 659.435,589.994 660.102,595.661 660.5,601.5C 660.5,602.833 660.5,604.167 660.5,605.5C 660.167,605.5 659.833,605.5 659.5,605.5C 659.249,600.493 658.916,595.493 658.5,590.5C 658.5,588.5 658.5,586.5 658.5,584.5 Z"/></g>
<g><path style="opacity:1" fill="#f07185" d="M 658.5,590.5 C 658.916,595.493 659.249,600.493 659.5,605.5C 659.5,617.5 659.5,629.5 659.5,641.5C 657.167,641.5 654.833,641.5 652.5,641.5C 652.9,622.776 652.067,604.11 650,585.5C 649.617,584.944 649.117,584.611 648.5,584.5C 649.464,580.892 649.797,577.392 649.5,574C 648.789,570.171 647.456,566.671 645.5,563.5C 645.692,561.423 646.192,559.423 647,557.5C 647.981,560.655 649.315,560.988 651,558.5C 652.548,564.55 653.548,571.217 654,578.5C 655.529,582.017 656.529,585.683 657,589.5C 657.383,590.056 657.883,590.389 658.5,590.5 Z"/></g>
<g><path style="opacity:1" fill="#361d1e" d="M 551.5,576.5 C 549.719,583.032 548.219,589.699 547,596.5C 545.951,598.384 544.451,599.718 542.5,600.5C 545.129,592.27 548.129,584.27 551.5,576.5 Z"/></g>
<g><path style="opacity:1" fill="#da6c7f" d="M 600.5,550.5 C 604.355,556.21 607.688,562.21 610.5,568.5C 610.335,571.85 610.502,575.183 611,578.5C 611.417,579.756 612.25,580.423 613.5,580.5C 617.361,593.856 619.361,607.523 619.5,621.5C 619.5,631.167 619.5,640.833 619.5,650.5C 618.833,650.5 618.167,650.5 617.5,650.5C 618.252,624.767 614.419,599.767 606,575.5C 604.226,570.93 601.726,566.93 598.5,563.5C 599.91,559.295 600.577,554.962 600.5,550.5 Z"/></g>
<g><path style="opacity:1" fill="#211b1a" d="M 629.5,563.5 C 630.806,566.338 631.973,569.338 633,572.5C 634.423,580.78 635.257,589.114 635.5,597.5C 636.329,613.819 636.662,630.152 636.5,646.5C 634.833,646.5 633.167,646.5 631.5,646.5C 631.827,636.319 631.494,626.319 630.5,616.5C 630.296,604.322 628.963,592.322 626.5,580.5C 627.75,580.423 628.583,579.756 629,578.5C 629.499,573.511 629.666,568.511 629.5,563.5 Z"/></g>
<g><path style="opacity:1" fill="#cb6372" d="M 672.5,572.5 C 674.307,581.602 675.307,590.935 675.5,600.5C 676.4,610.802 676.733,621.135 676.5,631.5C 676.5,632.167 676.167,632.5 675.5,632.5C 675.33,612.455 674.33,592.455 672.5,572.5 Z"/></g>
<g><path style="opacity:1" fill="#1d1817" d="M 551.5,502.5 C 558.393,502.01 565.06,502.677 571.5,504.5C 573.153,504.66 574.486,505.326 575.5,506.5C 570.768,506.378 566.102,506.878 561.5,508C 548.918,515.54 543.251,526.706 544.5,541.5C 540.76,556.256 537.76,571.256 535.5,586.5C 530.254,609.574 517.254,626.741 496.5,638C 494.564,638.813 492.564,639.313 490.5,639.5C 482.174,640.797 473.84,640.797 465.5,639.5C 453.807,636.652 443.474,631.152 434.5,623C 421.653,610.792 411.653,596.625 404.5,580.5C 407.5,580.5 410.5,580.5 413.5,580.5C 422.148,599.315 435.482,613.815 453.5,624C 470.398,631.236 486.065,629.402 500.5,618.5C 513.518,609.159 521.518,596.492 524.5,580.5C 528.007,581.006 531.174,580.34 534,578.5C 534.5,556.836 534.667,535.169 534.5,513.5C 539.452,508.515 545.118,504.848 551.5,502.5 Z"/></g>
<g><path style="opacity:1" fill="#dd6f80" d="M 373.5,592.5 C 381.077,609.652 389.744,626.319 399.5,642.5C 387.801,634.501 379.968,623.501 376,609.5C 374.547,603.926 373.714,598.259 373.5,592.5 Z"/></g>
<g><path style="opacity:1" fill="#1b1716" d="M 604.5,652.5 C 600.351,651.92 596.684,652.586 593.5,654.5C 590.946,655.388 588.279,655.721 585.5,655.5C 583.042,649.793 578.709,647.959 572.5,650C 570.608,650.973 568.608,651.64 566.5,652C 563.06,654.042 560.06,656.542 557.5,659.5C 555.784,659.629 554.117,659.962 552.5,660.5C 548.154,660.334 543.821,660.501 539.5,661C 538.944,661.383 538.611,661.883 538.5,662.5C 535.167,662.5 531.833,662.5 528.5,662.5C 543.422,649.665 556.755,635.332 568.5,619.5C 572.343,616.497 576.343,613.664 580.5,611C 588.893,610.696 594.727,614.529 598,622.5C 601.691,632.165 603.857,642.165 604.5,652.5 Z"/></g>
<g><path style="opacity:1" fill="#57252a" d="M 675.5,600.5 C 676.268,601.263 676.768,602.263 677,603.5C 677.17,612.343 677.67,621.01 678.5,629.5C 678.167,630.5 677.5,631.167 676.5,631.5C 676.733,621.135 676.4,610.802 675.5,600.5 Z"/></g>
<g><path style="opacity:1" fill="#ed6f84" d="M 586.5,579.5 C 588.175,581.002 590.008,582.335 592,583.5C 597.416,590.666 600.916,598.666 602.5,607.5C 602.329,611.639 602.996,615.639 604.5,619.5C 604.518,621.373 604.018,621.706 603,620.5C 601.667,621.167 600.667,622.167 600,623.5C 599.814,621.1 599.314,618.766 598.5,616.5C 595.669,614.917 593.003,613.084 590.5,611C 585.599,609.675 580.599,609.175 575.5,609.5C 575.5,610.5 575.5,611.5 575.5,612.5C 573.5,612.167 571.5,611.833 569.5,611.5C 569.167,614.167 568.833,616.833 568.5,619.5C 556.755,635.332 543.422,649.665 528.5,662.5C 527.5,662.833 526.833,663.5 526.5,664.5C 523.5,664.5 520.5,664.5 517.5,664.5C 513.821,664.724 510.154,665.058 506.5,665.5C 506.5,664.5 506.5,663.5 506.5,662.5C 507.833,662.5 509.167,662.5 510.5,662.5C 510.5,661.5 510.5,660.5 510.5,659.5C 513.658,657.196 516.991,655.03 520.5,653C 530.817,643.352 539.65,632.519 547,620.5C 553.767,607.283 561.267,594.617 569.5,582.5C 575.232,581.863 580.899,580.863 586.5,579.5 Z"/></g>
<g><path style="opacity:1" fill="#2e1b1b" d="M 660.5,601.5 C 662.465,614.653 662.798,627.986 661.5,641.5C 661.167,641.5 660.833,641.5 660.5,641.5C 660.5,629.5 660.5,617.5 660.5,605.5C 660.5,604.167 660.5,602.833 660.5,601.5 Z"/></g>
<g><path style="opacity:1" fill="#211817" d="M 375.5,488.5 C 376.566,502.297 378.566,515.963 381.5,529.5C 387.121,565.402 400.954,597.735 423,626.5C 430.926,635.173 439.759,642.507 449.5,648.5C 445.421,647.828 441.421,648.495 437.5,650.5C 437.863,651.183 438.196,651.85 438.5,652.5C 428.229,645.397 419.396,636.73 412,626.5C 386.855,587.738 373.022,545.071 370.5,498.5C 371.268,499.263 371.768,500.263 372,501.5C 372.333,501.167 372.667,500.833 373,500.5C 373.333,505.833 373.667,511.167 374,516.5C 374.914,514.711 375.747,512.877 376.5,511C 375.923,504.01 375.257,497.177 374.5,490.5C 374.833,489.833 375.167,489.167 375.5,488.5 Z"/></g>
<g><path style="opacity:1" fill="#e06d80" d="M 630.5,536.5 C 634.72,551.598 638.054,566.931 640.5,582.5C 640.549,586.078 641.215,589.411 642.5,592.5C 644.344,610.077 645.01,627.744 644.5,645.5C 642.299,646.566 639.965,647.233 637.5,647.5C 637.667,633.163 637.5,618.829 637,604.5C 636.814,601.964 636.314,599.631 635.5,597.5C 635.257,589.114 634.423,580.78 633,572.5C 631.973,569.338 630.806,566.338 629.5,563.5C 629.173,554.318 629.507,545.318 630.5,536.5 Z"/></g>
<g><path style="opacity:1" fill="#e76e82" d="M 384.5,506.5 C 385.392,516.379 387.059,526.046 389.5,535.5C 391.523,549.228 395.523,562.228 401.5,574.5C 401.34,576.199 401.506,577.866 402,579.5C 402.671,580.252 403.504,580.586 404.5,580.5C 411.653,596.625 421.653,610.792 434.5,623C 443.474,631.152 453.807,636.652 465.5,639.5C 466.263,640.268 467.263,640.768 468.5,641C 475.167,641.667 481.833,641.667 488.5,641C 489.416,640.722 490.082,640.222 490.5,639.5C 492.564,639.313 494.564,638.813 496.5,638C 517.254,626.741 530.254,609.574 535.5,586.5C 536.117,586.389 536.617,586.056 537,585.5C 537.333,583.167 537.667,580.833 538,578.5C 538.333,579.167 538.667,579.833 539,580.5C 539.067,574.945 539.9,569.612 541.5,564.5C 542.822,564.67 543.989,564.337 545,563.5C 545.377,564.942 546.21,565.942 547.5,566.5C 549.153,569.131 550.819,571.797 552.5,574.5C 551.662,574.842 551.328,575.508 551.5,576.5C 548.129,584.27 545.129,592.27 542.5,600.5C 536.89,613.04 529.723,624.707 521,635.5C 516.833,639 512.667,642.5 508.5,646C 504.983,648.099 501.316,649.599 497.5,650.5C 487.35,653.071 477.016,654.071 466.5,653.5C 460.565,652.697 454.899,651.03 449.5,648.5C 439.759,642.507 430.926,635.173 423,626.5C 400.954,597.735 387.121,565.402 381.5,529.5C 380.074,516.852 378.741,504.185 377.5,491.5C 377.93,488.553 379.43,486.219 382,484.5C 382.621,492.007 383.454,499.341 384.5,506.5 Z"/></g>
<g><path style="opacity:1" fill="#eb6f83" d="M 515.5,574.5 C 515.178,576.722 515.845,578.556 517.5,580C 519.81,580.497 522.143,580.663 524.5,580.5C 521.518,596.492 513.518,609.159 500.5,618.5C 497.626,618.451 494.792,618.784 492,619.5C 489.888,621.898 487.221,623.565 484,624.5C 483.275,623.941 482.442,623.608 481.5,623.5C 477.255,626.024 473.089,626.024 469,623.5C 464.344,625.317 460.178,624.65 456.5,621.5C 454.604,620.534 452.604,620.201 450.5,620.5C 451.16,616.488 453.494,614.488 457.5,614.5C 457.5,615.5 457.5,616.5 457.5,617.5C 462.179,617.334 466.845,617.501 471.5,618C 470.259,619.487 470.759,620.32 473,620.5C 475.734,619.407 478.4,619.407 481,620.5C 484.999,618.632 488.832,616.632 492.5,614.5C 492.5,613.5 492.5,612.5 492.5,611.5C 504.479,601.882 512.145,589.549 515.5,574.5 Z"/></g>
<g><path style="opacity:1" fill="#dd6a7d" d="M 420.5,578.5 C 420.491,580.308 420.991,581.975 422,583.5C 424,586.167 426,588.833 428,591.5C 442.693,609.171 461.526,617.004 484.5,615C 487.267,613.917 489.933,612.75 492.5,611.5C 492.5,612.5 492.5,613.5 492.5,614.5C 488.832,616.632 484.999,618.632 481,620.5C 478.4,619.407 475.734,619.407 473,620.5C 470.759,620.32 470.259,619.487 471.5,618C 466.845,617.501 462.179,617.334 457.5,617.5C 457.5,616.5 457.5,615.5 457.5,614.5C 453.494,614.488 451.16,616.488 450.5,620.5C 452.604,620.201 454.604,620.534 456.5,621.5C 460.178,624.65 464.344,625.317 469,623.5C 473.089,626.024 477.255,626.024 481.5,623.5C 482.442,623.608 483.275,623.941 484,624.5C 487.221,623.565 489.888,621.898 492,619.5C 494.792,618.784 497.626,618.451 500.5,618.5C 486.065,629.402 470.398,631.236 453.5,624C 435.482,613.815 422.148,599.315 413.5,580.5C 416.211,580.815 418.544,580.148 420.5,578.5 Z"/></g>
<g><path style="opacity:1" fill="#e86f83" d="M 430.5,563.5 C 433.895,567.898 437.895,571.564 442.5,574.5C 449.557,581.901 458.224,584.401 468.5,582C 469.416,581.722 470.082,581.222 470.5,580.5C 474.5,581.167 476.167,579.5 475.5,575.5C 478.083,572.003 480.416,568.336 482.5,564.5C 482.334,569.511 482.501,574.511 483,579.5C 487.066,580.464 491.233,580.797 495.5,580.5C 491.252,592.645 482.585,598.978 469.5,599.5C 459.02,599.094 449.686,595.594 441.5,589C 434.883,582.228 428.883,575.061 423.5,567.5C 424.234,566.292 424.567,564.959 424.5,563.5C 426.5,563.5 428.5,563.5 430.5,563.5 Z"/></g>
<g><path style="opacity:1" fill="#4a2c2d" d="M 442.5,574.5 C 447.122,576.811 451.789,579.145 456.5,581.5C 457.107,581.376 457.44,581.043 457.5,580.5C 461.833,580.5 466.167,580.5 470.5,580.5C 470.082,581.222 469.416,581.722 468.5,582C 458.224,584.401 449.557,581.901 442.5,574.5 Z"/></g>
<g><path style="opacity:1" fill="#1e1c1a" d="M 430.5,563.5 C 437.863,563.169 445.197,563.503 452.5,564.5C 454.59,569.724 456.257,575.057 457.5,580.5C 457.44,581.043 457.107,581.376 456.5,581.5C 451.789,579.145 447.122,576.811 442.5,574.5C 437.895,571.564 433.895,567.898 430.5,563.5 Z"/></g>
<g><path style="opacity:1" fill="#db6b7d" d="M 602.5,607.5 C 605.986,616.379 607.986,625.712 608.5,635.5C 608.5,641.167 608.5,646.833 608.5,652.5C 607.167,652.5 605.833,652.5 604.5,652.5C 603.857,642.165 601.691,632.165 598,622.5C 594.727,614.529 588.893,610.696 580.5,611C 576.343,613.664 572.343,616.497 568.5,619.5C 568.833,616.833 569.167,614.167 569.5,611.5C 571.5,611.833 573.5,612.167 575.5,612.5C 575.5,611.5 575.5,610.5 575.5,609.5C 580.599,609.175 585.599,609.675 590.5,611C 593.003,613.084 595.669,614.917 598.5,616.5C 599.314,618.766 599.814,621.1 600,623.5C 600.667,622.167 601.667,621.167 603,620.5C 604.018,621.706 604.518,621.373 604.5,619.5C 602.996,615.639 602.329,611.639 602.5,607.5 Z"/></g>
<g><path style="opacity:1" fill="#422626" d="M 635.5,597.5 C 636.314,599.631 636.814,601.964 637,604.5C 637.5,618.829 637.667,633.163 637.5,647.5C 635.283,648.369 632.95,648.702 630.5,648.5C 630.5,637.833 630.5,627.167 630.5,616.5C 631.494,626.319 631.827,636.319 631.5,646.5C 633.167,646.5 634.833,646.5 636.5,646.5C 636.662,630.152 636.329,613.819 635.5,597.5 Z"/></g>
<g><path style="opacity:1" fill="#1d1817" d="M 613.5,580.5 C 616.5,580.5 619.5,580.5 622.5,580.5C 624.994,590.312 626.327,600.312 626.5,610.5C 626.5,623.167 626.5,635.833 626.5,648.5C 624.5,648.5 622.5,648.5 620.5,648.5C 620.827,639.318 620.493,630.318 619.5,621.5C 619.361,607.523 617.361,593.856 613.5,580.5 Z"/></g>
<g><path style="opacity:1" fill="#432526" d="M 626.5,610.5 C 628.761,622.968 629.094,635.635 627.5,648.5C 625.162,650.04 622.495,650.706 619.5,650.5C 619.5,640.833 619.5,631.167 619.5,621.5C 620.493,630.318 620.827,639.318 620.5,648.5C 622.5,648.5 624.5,648.5 626.5,648.5C 626.5,635.833 626.5,623.167 626.5,610.5 Z"/></g>
<g><path style="opacity:1" fill="#d36a79" d="M 648.5,584.5 C 649.117,584.611 649.617,584.944 650,585.5C 652.067,604.11 652.9,622.776 652.5,641.5C 654.833,641.5 657.167,641.5 659.5,641.5C 659.5,629.5 659.5,617.5 659.5,605.5C 659.833,605.5 660.167,605.5 660.5,605.5C 660.5,617.5 660.5,629.5 660.5,641.5C 657.495,643.277 654.162,644.277 650.5,644.5C 650.88,624.453 650.213,604.453 648.5,584.5 Z"/></g>
<g><path style="opacity:1" fill="#251c1b" d="M 373.5,573.5 C 378.012,585.176 382.845,596.843 388,608.5C 399.628,631.293 415.462,650.627 435.5,666.5C 426.615,663.057 418.281,658.557 410.5,653C 406.305,649.97 402.639,646.47 399.5,642.5C 389.744,626.319 381.077,609.652 373.5,592.5C 373.048,588.454 372.381,584.454 371.5,580.5C 371.335,577.482 371.502,574.482 372,571.5C 372.278,572.416 372.778,573.082 373.5,573.5 Z"/></g>
<g><path style="opacity:1" fill="#462022" d="M 465.5,639.5 C 473.84,640.797 482.174,640.797 490.5,639.5C 490.082,640.222 489.416,640.722 488.5,641C 481.833,641.667 475.167,641.667 468.5,641C 467.263,640.768 466.263,640.268 465.5,639.5 Z"/></g>
<g><path style="opacity:1" fill="#543535" d="M 608.5,635.5 C 609.487,640.305 609.821,645.305 609.5,650.5C 612.167,650.5 614.833,650.5 617.5,650.5C 614.727,651.657 611.727,652.324 608.5,652.5C 608.5,646.833 608.5,641.167 608.5,635.5 Z"/></g>
<g><path style="opacity:1" fill="#df7384" d="M 585.5,655.5 C 576.153,656.834 566.82,658.167 557.5,659.5C 560.06,656.542 563.06,654.042 566.5,652C 568.608,651.64 570.608,650.973 572.5,650C 578.709,647.959 583.042,649.793 585.5,655.5 Z"/></g>
<g><path style="opacity:1" fill="#524f4c" d="M 604.5,652.5 C 601.054,653.687 597.387,654.354 593.5,654.5C 596.684,652.586 600.351,651.92 604.5,652.5 Z"/></g>
<g><path style="opacity:1" fill="#702b35" d="M 497.5,650.5 C 495.52,652.105 493.187,653.272 490.5,654C 482.323,654.823 474.323,654.656 466.5,653.5C 477.016,654.071 487.35,653.071 497.5,650.5 Z"/></g>
<g><path style="opacity:1" fill="#575350" d="M 552.5,660.5 C 548.057,661.801 543.391,662.468 538.5,662.5C 538.611,661.883 538.944,661.383 539.5,661C 543.821,660.501 548.154,660.334 552.5,660.5 Z"/></g>
<g><path style="opacity:1" fill="#5f282f" d="M 451.5,660.5 C 459.154,662.323 466.821,664.157 474.5,666C 478.152,666.499 481.818,666.665 485.5,666.5C 482.375,667.479 479.042,667.813 475.5,667.5C 466.949,666.7 458.949,664.366 451.5,660.5 Z"/></g>
<g><path style="opacity:1" fill="#69615d" d="M 528.5,662.5 C 531.833,662.5 535.167,662.5 538.5,662.5C 534.733,663.795 530.733,664.461 526.5,664.5C 526.833,663.5 527.5,662.833 528.5,662.5 Z"/></g>
<g><path style="opacity:1" fill="#863742" d="M 501.5,663.5 C 497.138,665.344 492.471,666.344 487.5,666.5C 491.911,664.87 496.578,663.87 501.5,663.5 Z"/></g>
<g><path style="opacity:1" fill="#e27788" d="M 510.5,659.5 C 510.5,660.5 510.5,661.5 510.5,662.5C 509.167,662.5 507.833,662.5 506.5,662.5C 506.5,663.5 506.5,664.5 506.5,665.5C 510.154,665.058 513.821,664.724 517.5,664.5C 514.002,665.813 510.336,666.813 506.5,667.5C 491.818,668.334 477.152,669.334 462.5,670.5C 462.611,669.883 462.944,669.383 463.5,669C 467.688,668.824 471.688,668.324 475.5,667.5C 479.042,667.813 482.375,667.479 485.5,666.5C 486.167,666.5 486.833,666.5 487.5,666.5C 492.471,666.344 497.138,665.344 501.5,663.5C 504.5,662.167 507.5,660.833 510.5,659.5 Z"/></g>
<g><path style="opacity:1" fill="#e48a98" d="M 435.5,666.5 C 443.718,667.418 451.718,668.751 459.5,670.5C 457.167,670.5 454.833,670.5 452.5,670.5C 446.518,670.055 440.851,668.722 435.5,666.5 Z"/></g>
<g><path style="opacity:1" fill="#dda9af" d="M 506.5,667.5 C 496.359,669.037 486.025,670.204 475.5,671C 467.655,671.822 459.989,671.656 452.5,670.5C 454.833,670.5 457.167,670.5 459.5,670.5C 460.5,670.5 461.5,670.5 462.5,670.5C 477.152,669.334 491.818,668.334 506.5,667.5 Z"/></g>
<g><path style="opacity:1" fill="#434444" d="M 927.5,624.5 C 927.833,657.507 927.5,690.507 926.5,723.5C 924.022,722.278 923.022,720.278 923.5,717.5C 922.167,717.5 920.833,717.5 919.5,717.5C 919.352,722.13 921.686,724.63 926.5,725C 924.561,725.908 923.561,727.408 923.5,729.5C 924.106,730.904 922.106,730.571 917.5,728.5C 916.371,726.471 916.871,726.137 919,727.5C 919.483,726.552 919.649,725.552 919.5,724.5C 918.167,724.5 916.833,724.5 915.5,724.5C 915.5,692.833 915.5,661.167 915.5,629.5C 916.151,628.909 916.818,628.243 917.5,627.5C 919.001,628.752 920.668,629.752 922.5,630.5C 924.026,628.377 925.692,626.377 927.5,624.5 Z"/></g>
<g><path style="opacity:0.251" fill="#2b2727" d="M 931.5,182.5 C 929.507,440.086 928.84,697.752 929.5,955.5C 928.512,950.36 928.179,945.026 928.5,939.5C 928.5,900.167 928.5,860.833 928.5,821.5C 928.5,794.167 928.5,766.833 928.5,739.5C 928.5,687.5 928.5,635.5 928.5,583.5C 928.5,505.833 928.5,428.167 928.5,350.5C 928.5,295.833 928.5,241.167 928.5,186.5C 926.833,186.5 925.167,186.5 923.5,186.5C 923.421,185.07 923.754,183.736 924.5,182.5C 926.973,181.203 929.307,181.203 931.5,182.5 Z"/></g>
<g><path style="opacity:1" fill="#3b3c3a" d="M 928.5,583.5 C 928.5,635.5 928.5,687.5 928.5,739.5C 927.824,751.569 927.158,763.735 926.5,776C 927.163,781.336 927.496,786.67 927.5,792C 927.167,793.167 926.833,794.333 926.5,795.5C 924.958,794.253 923.458,794.253 922,795.5C 920.701,794.91 919.868,793.91 919.5,792.5C 920.551,790.468 922.217,789.135 924.5,788.5C 923.934,787.709 923.101,787.709 922,788.5C 920.526,786.084 918.36,785.084 915.5,785.5C 915.5,765.167 915.5,744.833 915.5,724.5C 916.833,724.5 918.167,724.5 919.5,724.5C 919.649,725.552 919.483,726.552 919,727.5C 916.871,726.137 916.371,726.471 917.5,728.5C 922.106,730.571 924.106,730.904 923.5,729.5C 923.561,727.408 924.561,725.908 926.5,725C 921.686,724.63 919.352,722.13 919.5,717.5C 920.833,717.5 922.167,717.5 923.5,717.5C 923.022,720.278 924.022,722.278 926.5,723.5C 927.5,690.507 927.833,657.507 927.5,624.5C 927.171,610.656 927.504,596.99 928.5,583.5 Z"/></g>
<g><path style="opacity:1" fill="#363634" d="M 928.5,739.5 C 928.5,766.833 928.5,794.167 928.5,821.5C 927.816,834.372 927.149,847.372 926.5,860.5C 926.833,861.167 927.167,861.833 927.5,862.5C 926,863.5 924.5,864.5 923,865.5C 921.238,864.409 919.404,863.409 917.5,862.5C 918.444,860.863 917.777,859.863 915.5,859.5C 915.5,834.833 915.5,810.167 915.5,785.5C 918.36,785.084 920.526,786.084 922,788.5C 923.101,787.709 923.934,787.709 924.5,788.5C 922.217,789.135 920.551,790.468 919.5,792.5C 919.868,793.91 920.701,794.91 922,795.5C 923.458,794.253 924.958,794.253 926.5,795.5C 926.833,794.333 927.167,793.167 927.5,792C 927.496,786.67 927.163,781.336 926.5,776C 927.158,763.735 927.824,751.569 928.5,739.5 Z"/></g>
<g><path style="opacity:1" fill="#252422" d="M 134.5,70.5 C 134.5,155.167 134.5,239.833 134.5,324.5C 134.5,389.167 134.5,453.833 134.5,518.5C 134.333,571.168 134.5,623.834 135,676.5C 135.374,675.584 135.874,674.75 136.5,674C 138.521,673.86 140.355,673.693 142,673.5C 144.024,675.792 143.69,676.459 141,675.5C 140.021,677.32 138.521,678.487 136.5,679C 139.022,680.341 141.689,681.174 144.5,681.5C 144.719,682.675 144.386,683.675 143.5,684.5C 141.833,685.167 140.167,685.833 138.5,686.5C 137.614,687.325 137.281,688.325 137.5,689.5C 139.936,689.683 142.103,689.016 144,687.5C 144.708,688.381 145.542,689.047 146.5,689.5C 146.5,781.5 146.5,873.5 146.5,965.5C 144.966,964.797 143.299,964.964 141.5,966C 142.731,967.183 142.731,968.349 141.5,969.5C 140.646,968.052 139.646,966.719 138.5,965.5C 139.59,963.997 140.757,963.664 142,964.5C 142.379,962.43 141.545,960.93 139.5,960C 140.328,959.085 141.328,958.419 142.5,958C 140.541,957.069 138.541,956.236 136.5,955.5C 136.256,977.854 135.589,1000.19 134.5,1022.5C 133.168,705.039 133.168,387.706 134.5,70.5 Z"/></g>
<g><path style="opacity:1" fill="#31312e" d="M 928.5,821.5 C 928.5,860.833 928.5,900.167 928.5,939.5C 925.724,941.052 924.557,943.386 925,946.5C 925.414,946.043 925.914,945.709 926.5,945.5C 927.48,948.086 927.813,950.753 927.5,953.5C 925.519,952.652 923.519,952.152 921.5,952C 923.594,954.112 925.594,956.278 927.5,958.5C 926.635,959.583 925.635,959.749 924.5,959C 924.833,958.667 925.167,958.333 925.5,958C 924.207,957.51 922.873,957.343 921.5,957.5C 921.219,955.037 920.219,952.87 918.5,951C 919.337,949.989 919.67,948.822 919.5,947.5C 923.439,947.822 924.272,946.489 922,943.5C 921.333,944.833 920.333,945.833 919,946.5C 918.29,945.027 917.124,944.36 915.5,944.5C 915.5,916.167 915.5,887.833 915.5,859.5C 917.777,859.863 918.444,860.863 917.5,862.5C 919.404,863.409 921.238,864.409 923,865.5C 924.5,864.5 926,863.5 927.5,862.5C 927.167,861.833 926.833,861.167 926.5,860.5C 927.149,847.372 927.816,834.372 928.5,821.5 Z"/></g>
<g><path style="opacity:0.998" fill="#23211d" d="M 146.5,965.5 C 146.17,983.008 146.503,1000.34 147.5,1017.5C 147.917,1021.83 148.417,1026.17 149,1030.5C 151.548,1041.05 158.048,1047.55 168.5,1050C 243.499,1050.5 318.499,1050.67 393.5,1050.5C 435.5,1051.17 477.5,1051.83 519.5,1052.5C 519.5,1055.17 519.5,1057.83 519.5,1060.5C 527.019,1060.82 534.352,1060.49 541.5,1059.5C 542.473,1057.05 542.806,1054.39 542.5,1051.5C 544.833,1051.5 547.167,1051.5 549.5,1051.5C 605.5,1051.5 661.5,1051.5 717.5,1051.5C 717.856,1052.87 718.69,1053.87 720,1054.5C 722.421,1053.53 724.921,1052.86 727.5,1052.5C 732.252,1054.44 737.086,1055.11 742,1054.5C 745.256,1052.07 747.923,1052.4 750,1055.5C 751.677,1054.48 753.343,1053.48 755,1052.5C 758.968,1053.4 762.968,1054.4 767,1055.5C 769.058,1054.04 771.391,1053.37 774,1053.5C 777.667,1054.17 781.333,1054.83 785,1055.5C 787.919,1054.85 790.752,1054.85 793.5,1055.5C 794.748,1054.96 795.915,1054.29 797,1053.5C 802.631,1055.34 808.131,1055.34 813.5,1053.5C 815.349,1055.17 817.516,1056.17 820,1056.5C 825.773,1055.9 831.44,1055.9 837,1056.5C 838.593,1054.71 840.093,1054.55 841.5,1056C 846.524,1056.66 851.524,1056.5 856.5,1055.5C 858.798,1055.73 860.965,1056.4 863,1057.5C 866.64,1057.3 870.306,1057.3 874,1057.5C 876.389,1057.04 878.723,1056.37 881,1055.5C 882.805,1057.42 884.805,1058.09 887,1057.5C 889.794,1054.88 891.627,1054.88 892.5,1057.5C 894.828,1056.78 896.995,1055.78 899,1054.5C 900.473,1054.9 901.806,1055.57 903,1056.5C 905.93,1054.74 909.097,1053.58 912.5,1053C 912.167,1052.67 911.833,1052.33 911.5,1052C 913.746,1050.96 915.913,1049.79 918,1048.5C 918.383,1049.06 918.883,1049.39 919.5,1049.5C 915.895,1055.93 910.561,1060.43 903.5,1063C 897.929,1064.48 892.263,1065.32 886.5,1065.5C 645.837,1064.89 405.171,1064.06 164.5,1063C 151.639,1059.81 142.805,1051.98 138,1039.5C 135.89,1034.01 134.723,1028.34 134.5,1022.5C 135.589,1000.19 136.256,977.854 136.5,955.5C 138.541,956.236 140.541,957.069 142.5,958C 141.328,958.419 140.328,959.085 139.5,960C 141.545,960.93 142.379,962.43 142,964.5C 140.757,963.664 139.59,963.997 138.5,965.5C 139.646,966.719 140.646,968.052 141.5,969.5C 142.731,968.349 142.731,967.183 141.5,966C 143.299,964.964 144.966,964.797 146.5,965.5 Z"/></g>
<g><path style="opacity:0.999" fill="#2a2824" d="M 928.5,939.5 C 928.179,945.026 928.512,950.36 929.5,955.5C 929.895,980.193 929.395,1004.86 928,1029.5C 926.597,1036.9 923.764,1043.57 919.5,1049.5C 918.883,1049.39 918.383,1049.06 918,1048.5C 915.913,1049.79 913.746,1050.96 911.5,1052C 911.833,1052.33 912.167,1052.67 912.5,1053C 909.097,1053.58 905.93,1054.74 903,1056.5C 901.806,1055.57 900.473,1054.9 899,1054.5C 896.995,1055.78 894.828,1056.78 892.5,1057.5C 891.627,1054.88 889.794,1054.88 887,1057.5C 884.805,1058.09 882.805,1057.42 881,1055.5C 878.723,1056.37 876.389,1057.04 874,1057.5C 870.306,1057.3 866.64,1057.3 863,1057.5C 860.965,1056.4 858.798,1055.73 856.5,1055.5C 851.524,1056.5 846.524,1056.66 841.5,1056C 840.093,1054.55 838.593,1054.71 837,1056.5C 831.44,1055.9 825.773,1055.9 820,1056.5C 817.516,1056.17 815.349,1055.17 813.5,1053.5C 808.131,1055.34 802.631,1055.34 797,1053.5C 795.915,1054.29 794.748,1054.96 793.5,1055.5C 790.752,1054.85 787.919,1054.85 785,1055.5C 781.333,1054.83 777.667,1054.17 774,1053.5C 771.391,1053.37 769.058,1054.04 767,1055.5C 762.968,1054.4 758.968,1053.4 755,1052.5C 753.343,1053.48 751.677,1054.48 750,1055.5C 747.923,1052.4 745.256,1052.07 742,1054.5C 737.086,1055.11 732.252,1054.44 727.5,1052.5C 724.921,1052.86 722.421,1053.53 720,1054.5C 718.69,1053.87 717.856,1052.87 717.5,1051.5C 776.501,1051.67 835.501,1051.5 894.5,1051C 897.754,1050.75 900.754,1049.75 903.5,1048C 910.81,1040.75 914.644,1031.92 915,1021.5C 915.5,995.835 915.667,970.169 915.5,944.5C 917.124,944.36 918.29,945.027 919,946.5C 920.333,945.833 921.333,944.833 922,943.5C 924.272,946.489 923.439,947.822 919.5,947.5C 919.67,948.822 919.337,949.989 918.5,951C 920.219,952.87 921.219,955.037 921.5,957.5C 922.873,957.343 924.207,957.51 925.5,958C 925.167,958.333 924.833,958.667 924.5,959C 925.635,959.749 926.635,959.583 927.5,958.5C 925.594,956.278 923.594,954.112 921.5,952C 923.519,952.152 925.519,952.652 927.5,953.5C 927.813,950.753 927.48,948.086 926.5,945.5C 925.914,945.709 925.414,946.043 925,946.5C 924.557,943.386 925.724,941.052 928.5,939.5 Z"/></g>
<g><path style="opacity:1" fill="#555350" d="M 393.5,1050.5 C 445.669,1050.17 497.669,1050.5 549.5,1051.5C 547.167,1051.5 544.833,1051.5 542.5,1051.5C 542.806,1054.39 542.473,1057.05 541.5,1059.5C 541.5,1057.5 541.5,1055.5 541.5,1053.5C 534.337,1051.35 527.004,1051.01 519.5,1052.5C 477.5,1051.83 435.5,1051.17 393.5,1050.5 Z"/></g>
<g><path style="opacity:1" fill="#beb9ab" d="M 541.5,1053.5 C 541.5,1055.5 541.5,1057.5 541.5,1059.5C 534.5,1059.5 527.5,1059.5 520.5,1059.5C 520.5,1057.5 520.5,1055.5 520.5,1053.5C 527.5,1053.5 534.5,1053.5 541.5,1053.5 Z"/></g>
<g><path style="opacity:1" fill="#8c8981" d="M 541.5,1053.5 C 534.5,1053.5 527.5,1053.5 520.5,1053.5C 520.5,1055.5 520.5,1057.5 520.5,1059.5C 527.5,1059.5 534.5,1059.5 541.5,1059.5C 534.352,1060.49 527.019,1060.82 519.5,1060.5C 519.5,1057.83 519.5,1055.17 519.5,1052.5C 527.004,1051.01 534.337,1051.35 541.5,1053.5 Z"/></g>
</svg>
