<svg width="242" height="207" viewBox="0 0 242 207" fill="none" xmlns="http://www.w3.org/2000/svg">
<path fill-rule="evenodd" clip-rule="evenodd" d="M48.4458 108.748C50.0968 121.208 51.7475 133.667 53.3985 146.127L54.7315 156.188C54.8999 157.458 54.7409 159.962 55.3821 161.099C55.6085 161.5 56.2037 161.69 56.6414 161.926C58.1477 162.74 59.6543 163.554 61.1606 164.368C73.9032 171.252 86.6458 178.137 99.3878 185.021C111.617 191.628 123.846 198.235 136.075 204.841C137.34 205.525 139.387 207.309 140.753 206.839C142.052 206.393 143.379 205.291 144.558 204.596C146.821 203.261 149.084 201.926 151.348 200.592C165.042 192.516 178.736 184.439 192.43 176.364C198.081 173.032 203.73 169.7 209.381 166.368C210.926 165.456 212.473 164.544 214.018 163.632C214.827 163.156 214.932 163.173 215.25 162.363C216.44 159.338 216.991 155.872 217.833 152.732C218.761 149.273 219.688 145.813 220.616 142.353C221.03 140.81 220.836 140.61 220.161 139.12C218.826 136.17 217.491 133.221 216.155 130.272C213.192 123.726 210.229 117.18 207.265 110.633C206.066 107.986 203.18 106.124 201.102 104.177L168.834 73.9456C168.014 73.1776 167.195 72.4099 166.375 71.6418C166.24 76.2571 165.334 81.2185 166.663 85.6769C168.845 92.9935 171.026 100.31 173.207 107.627C174.261 111.163 175.315 114.7 176.37 118.236C176.566 118.893 177.758 121.499 177.44 122.077C177.263 122.397 175.757 122.721 175.43 122.846C174.029 123.382 172.627 123.919 171.225 124.456C167.32 125.951 163.415 127.446 159.509 128.941C155.997 130.286 152.484 131.63 148.972 132.975C147.781 133.431 146.382 134.275 145.124 134.205C143.999 134.142 142.719 133.581 141.63 133.299C139.716 132.803 137.801 132.307 135.887 131.81C132.127 130.836 128.366 129.861 124.605 128.886C120.374 127.79 116.801 124.569 113.183 122.185C106.964 118.087 100.744 113.989 94.5255 109.892C93.1017 108.954 93.0965 108.418 92.5291 106.705C91.2541 102.856 89.9788 99.0069 88.7039 95.1576C88.0231 93.1024 87.1857 91.0384 86.6716 88.9342C85.8235 85.4616 85.3204 81.8668 84.6487 78.3557C84.4462 77.2964 84.2434 76.2368 84.041 75.1775C81.4364 76.241 78.8319 77.3048 76.227 78.3686C75.8496 78.5227 74.01 78.9823 73.8465 79.36C73.7428 79.5988 74.29 80.6822 74.3683 80.915C76.5279 87.3516 78.6875 93.7878 80.8475 100.224C81.5269 102.249 82.2059 104.273 82.8853 106.298C81.2621 103.731 79.6386 101.164 78.0151 98.5966C76.7398 102.914 75.4641 107.232 74.1885 111.549C71.1738 108.048 68.1588 104.548 65.1437 101.047C64.1001 104.548 63.0565 108.048 62.0129 111.549C58.7662 107.232 55.5195 102.914 52.2724 98.5966C51.8866 100.85 51.5005 103.103 51.1143 105.356C50.9978 106.036 51.0211 107.987 50.5713 108.525C50.2008 108.968 49.1342 108.748 48.4458 108.748Z" fill="#FF5678"/>
<path fill-rule="evenodd" clip-rule="evenodd" d="M231.977 129.096C231.825 133.989 231.93 140.341 229.269 144.643C228.839 145.337 227.384 147.5 227.222 145.598C227.063 143.73 227.519 141.88 227.067 139.99C226.825 138.979 226.011 136.77 224.619 137.684C223.91 138.149 223.723 139.298 223.446 140.024C223.035 141.097 222.576 142.154 222.143 143.219C220.634 146.937 219.07 151.374 215.716 153.835C216.155 150.629 217.351 147.205 216.547 143.964C216.273 142.86 215.442 140.843 214.012 141.49C212.618 142.12 211.715 144.934 211.058 146.187C209.063 149.986 207.024 153.713 204.779 157.37C203.65 159.209 202.43 160.89 200.953 162.464C200.029 163.448 198.877 165.111 197.421 165.258C197.421 162.453 198.338 159.744 199.175 157.102C200.076 154.262 200.897 151.398 201.781 148.553C202.548 146.085 203.177 143.636 203.688 141.105C203.899 140.058 204.066 138.974 204.953 138.298C205.75 137.69 207.009 137.401 207.898 136.955C210.231 135.781 212.631 134.516 214.799 133.057C215.689 132.459 216.455 131.685 217.387 131.148C218.449 130.536 219.441 130.021 220.423 129.276C224.662 126.058 228.484 122.1 231.059 117.389C231.477 119.282 232.031 121.131 232.092 123.082C232.154 125.083 232.039 127.096 231.977 129.096ZM197.088 151.587C196.41 150.435 195.377 150.907 194.467 151.462C193.055 152.324 191.639 153.18 190.219 154.031C187.33 155.763 184.495 157.585 181.673 159.424C175.928 163.166 169.982 166.229 163.925 169.397C158.071 172.458 152.448 176.101 146.964 179.783C145.645 180.668 144.336 181.574 143.071 182.533C141.947 183.385 141.049 184.582 139.866 185.34C138.634 186.13 137.788 185.489 136.609 184.907C135.136 184.178 133.601 183.568 132.095 182.911C126.018 180.26 119.923 177.508 114.011 174.498C108.135 171.507 102.568 168.061 96.9373 164.638C94.2558 163.008 91.6201 161.275 88.9752 159.585C86.1605 157.787 83.2463 156.44 80.2937 154.911C78.9874 154.234 77.8302 153.316 76.4885 152.701C75.0779 152.054 73.5879 151.591 72.3247 150.658C71.7585 150.24 71.2808 149.74 70.6336 149.444C70.1021 149.202 69.499 149.161 68.9743 148.903C67.9068 148.378 67.6012 147.314 67.3945 146.207C66.065 139.099 65.3582 131.794 64.5877 124.607C64.1546 120.565 63.6714 116.54 63.0729 112.519C62.803 110.707 63.3458 109.303 63.6308 107.54C63.9634 105.48 64.0948 103.378 64.3177 101.304C65.3696 103.265 66.2792 105.323 67.6174 107.113C68.6039 108.431 70.289 110.301 72.1056 110.257C74.929 110.189 74.7999 105.315 74.9137 103.381C76.1997 104.536 76.5898 106.418 77.6572 107.76C78.6318 108.985 79.9582 110.505 81.455 111.053C84.6063 112.208 84.303 106.322 84.1298 104.652C84.0427 103.815 83.5728 102.49 84.6876 102.872C85.7142 103.223 86.7132 104.681 87.576 105.35C89.0675 106.506 90.7036 107.466 92.2337 108.57C94.1321 109.939 96.1806 110.928 98.1162 112.203C99.3268 113.001 100.647 113.18 101.967 113.767C103.901 114.626 105.609 115.907 107.449 116.937C111.093 118.977 115.136 120.806 119.123 122.035C120.413 122.433 122.131 123.555 123.11 122.402C123.712 121.693 124.108 120.61 124.62 119.815C125.267 118.808 125.953 117.829 126.667 116.869C129.203 113.457 132.017 110.236 135.143 107.358C138.779 104.011 142.755 100.999 147.009 98.4897C148.836 97.4117 156.466 92.5802 158.143 95.9807C156.765 95.8942 155.571 96.4015 154.392 97.0367C154.104 97.1918 152.621 98.2578 152.968 97.3183C152.537 97.3995 152.159 97.9649 151.833 98.2164C151.269 98.651 150.414 99.1527 149.761 99.5125C149.115 99.868 148.318 99.955 147.729 100.386C147.514 100.544 147.384 100.799 147.179 100.969L146.592 100.974C146.504 101.301 146.416 101.628 146.328 101.956C145.996 100.885 145.522 102.277 144.968 102.73C144.634 103.002 144.106 103.282 143.714 103.457C143.42 103.589 143.375 103.284 143.09 103.516C142.837 103.721 142.675 104.175 142.403 104.433C142.069 104.749 141.642 104.995 141.269 105.265C140.556 105.782 139.801 106.188 139.078 106.678C138.106 107.337 137.596 108.471 136.652 109.161C136.205 109.487 135.511 109.526 135.269 109.735C134.662 110.26 134.862 111.055 133.73 111.09C133.833 111.256 133.895 111.436 133.916 111.63C133.646 111.584 133.406 111.471 133.197 111.293C133.244 112.429 132.133 112.835 131.468 113.534C131.084 113.937 130.606 114.504 130.336 114.989C130.291 115.07 130.205 115.718 130.186 115.727C130.084 115.776 129.458 115.223 129.517 115.269C129.343 116.319 128.333 117.312 127.891 118.283C127.659 118.795 127.422 119.618 126.963 119.978C126.838 120.076 126.454 119.974 126.137 120.314C125.904 120.564 125.636 121.025 125.541 121.356C125.478 121.577 125.554 122.149 125.464 122.281C125.298 122.524 125.039 122.28 124.779 122.459C124.299 122.791 124.286 123.308 123.583 123.376C124.068 124.561 126.995 124.927 128.058 125.264C131.067 126.216 134.223 127.168 137.035 128.627C137.762 129.004 138.45 129.316 138.579 130.185C138.759 131.395 138.146 133.003 138.029 134.225C137.712 137.525 137.648 140.923 137.714 144.237C137.777 147.376 137.877 150.544 138.023 153.68C138.158 156.586 138.74 159.436 139.054 162.322C139.141 163.115 139.083 166.687 140.437 166.507C141.567 166.357 140.853 163.917 140.832 163.217C140.785 161.669 141.109 160.088 141.095 158.527C141.089 157.776 141.415 157.129 141.446 156.41C141.477 155.7 141.127 155.139 141.232 154.403C141.333 153.697 143.407 149.635 141.415 150.111C141.532 149.53 141.634 148.945 141.788 148.372C142.001 148.565 142.173 148.79 142.302 149.047C142.479 147.8 142.42 146.554 142.53 145.306C142.58 144.74 142.807 144.121 142.73 143.551C142.744 143.315 142.715 143.083 142.64 142.855C142.518 142.725 142.366 142.656 142.186 142.65C142.091 142.337 142.066 142.251 142.235 141.945C142.307 141.737 142.45 141.608 142.665 141.556C143.074 141.508 143.12 141.271 142.805 140.848C142.969 140.011 142.991 139.483 142.872 138.648C142.772 137.947 143.139 136.589 142.765 135.965C142.328 135.235 142.111 135.943 142.03 134.931C142.012 134.717 141.999 134.271 142.084 134.057C142.178 133.825 142.46 133.92 142.496 133.838C142.74 133.275 142.757 132.168 141.891 132.264C141.925 131.863 141.959 131.461 141.992 131.06C142.618 131.784 142.399 131.171 142.754 130.768C143.232 130.226 143.699 130.132 144.382 129.917C146.202 129.346 147.956 128.487 149.734 127.789C153.5 126.312 157.336 124.994 160.992 123.248C168.681 119.577 176.218 115.592 183.954 112.018C183.401 110.986 183.745 110.935 184.149 109.966C184.688 110.343 184.575 110.08 184.959 110.057C184.924 109.734 185.024 109.636 185.258 109.764C185.445 109.822 185.636 109.842 185.832 109.825C186.311 109.908 186.702 110.173 187.138 110.274C187.28 110.38 187.437 110.46 187.609 110.513C187.762 110.478 187.894 110.401 188.002 110.283C188.707 110.415 188.944 110.949 188.975 111.722C188.981 111.857 188.571 111.995 188.689 112.175C188.893 112.491 189.444 112.416 189.759 112.456C189.69 112.785 189.621 113.113 189.552 113.441C190.935 112.798 190.575 114.809 190.994 115.469C191.111 115.653 191.371 115.506 191.507 115.72C191.683 115.998 191.63 116.393 191.781 116.67C192.121 117.298 192.462 117.222 192.801 117.94C194.574 121.693 196.933 125.189 198.635 129.023C199.445 130.847 200.176 132.703 201.022 134.511C201.801 136.176 202.245 137.591 201.691 139.408C200.404 143.625 199.027 147.918 197.341 151.991C197.257 151.856 197.173 151.722 197.088 151.587ZM107.32 183.06C107.2 183.267 107.079 183.473 106.958 183.681C106.69 182.128 107.405 182.848 107.32 183.06ZM101.644 180.153C101.257 180.037 101.424 179.401 101.437 179.129C101.681 179.436 101.921 179.749 102.125 180.086C101.965 180.108 101.804 180.131 101.644 180.153ZM86.0865 174.186C86.4929 173.957 86.7851 173.792 87.2457 173.532C86.7776 174.45 86.7776 174.45 86.0865 174.186ZM61.6113 93.3036C60.9905 94.8369 62.8834 104.304 61.1211 104.613C60.8683 103.782 60.8367 101.494 59.7904 101.221C58.4921 100.882 58.6201 103.238 58.4428 103.966C55.7776 102.1 54.5937 98.4967 53.3205 95.641C51.6975 92.001 50.4204 88.2151 49.2009 84.4224C48.158 81.1796 47.2958 77.8796 46.2419 74.6421C45.5799 72.6088 44.8662 70.5705 44.421 68.4747C44.3243 68.0194 43.9438 66.8649 44.2672 66.432C44.737 65.8026 46.4285 66.5234 46.9736 66.6888C50.5095 67.7594 54.1775 68.2203 57.8104 68.8424C61.8467 69.5331 65.874 70.2472 69.9347 70.7829C70.9493 70.9166 71.9646 71.0434 72.9804 71.1666C73.6392 71.2467 74.6365 71.1666 75.2622 71.4639C76.5288 72.0653 76.7984 74.3667 77.2689 75.5607C79.024 80.0152 81.0896 84.3289 82.9375 88.7431C84.6023 92.7195 85.8642 96.95 88.2572 100.571C86.4725 99.7745 84.2107 95.5653 82.2165 97.9915C81.3592 99.0347 81.5754 100.409 81.6439 101.658C81.7432 103.463 81.7742 105.281 81.7742 107.089C79.8227 106.579 78.5114 104.349 77.4869 102.77C76.0874 100.613 75.2059 98.5809 74.5863 96.1083C74.3178 95.0376 73.6061 95.011 72.9737 94.3702C72.5674 93.9584 72.3631 93.4035 71.7803 94.0025C71.0477 94.7555 71.535 96.8405 71.6616 97.7295C71.962 99.8449 72.9473 103.1 71.9895 105.088C70.6968 107.771 67.2329 101.021 66.8271 100.046C66.6208 99.5499 62.9354 90.0331 61.6113 93.3036ZM59.1913 47.3304C59.4096 47.364 59.6276 47.3976 59.8458 47.4312C59.6699 47.5874 59.3039 48.1353 59.005 47.9905C59.0671 47.7705 59.1292 47.5506 59.1913 47.3304ZM70.7514 44.8342C70.6832 44.9098 70.6144 44.9852 70.5459 45.0608C70.233 44.6671 70.3439 44.0932 70.3439 43.6379C70.7575 43.8894 70.8585 44.3923 70.7514 44.8342ZM71.6857 49.2022V50.489C70.819 50.1111 70.8019 49.916 71.6857 49.2022ZM72.738 50.8383C72.1309 50.6707 72.0583 50.5355 72.1436 49.5965C72.3953 50.1225 72.561 50.4692 72.738 50.8383ZM76.2331 60.3683C75.9785 61.0272 74.4911 59.4571 74.5456 58.9871C74.5976 58.5388 74.826 58.405 75.1412 58.6933C75.2454 58.7888 75.0907 59.1337 75.1572 59.2535C75.3972 59.6869 75.881 60.0415 76.2331 60.3683ZM76.2496 64.338C75.8769 65.2743 75.2126 63.7997 76.1863 63.7594C76.2502 63.9478 76.2714 64.1405 76.2496 64.338ZM75.5266 62.8616C75.3824 62.668 75.2422 62.4717 75.1061 62.2719C75.6076 62.3739 76.0058 63.1093 76.5349 62.6186C76.4722 63.3669 75.944 63.3876 75.5266 62.8616ZM43.0943 50.699C42.2878 49.8132 47.5471 49.1914 48.1816 49.0393C52.7858 47.9344 57.133 46.3357 61.438 44.3739C63.4917 43.4381 65.535 42.491 67.5405 41.4536C68.4066 41.0058 69.5936 40.6262 70.3169 39.9538C70.8332 39.474 70.8126 39.111 71.4836 38.825C72.0534 38.5829 72.0818 38.8116 72.3427 38.3735C72.4995 38.1107 72.6768 37.1474 72.5851 36.8624C72.3352 36.0846 71.9657 36.7152 71.4471 36.1793C71.0735 35.7929 71.1641 34.6941 71.266 34.2391C71.3983 34.4558 71.4744 34.6912 71.4947 34.9447C72.0574 34.6655 71.8305 33.7067 72.4461 33.5495C73.0947 33.3842 73.0277 33.8927 73.1969 34.4126C73.6871 33.6883 73.2941 33.0706 73.0289 32.3632C74.3776 32.1091 75.8267 31.8629 77.1636 32.3144C78.1303 32.6407 78.9578 33.4429 79.9785 33.598C80.9781 33.7496 81.1702 33.2727 81.9072 32.7887C82.5053 32.3959 83.019 32.8585 83.327 32.5618C83.1372 33.5636 81.5052 33.4266 81.706 34.6784C81.7966 35.2417 82.4827 35.7479 82.795 36.1863C83.1871 36.7365 83.4997 37.3449 83.7667 37.9649C84.8054 40.3767 85.2495 43.1756 85.6854 45.7547C86.761 52.1211 86.8972 58.613 87.9089 64.9998C88.391 68.0419 88.8742 71.0857 89.1247 74.1576C89.1874 74.9257 89.6535 76.6679 89.2721 77.4068C88.9497 78.0306 88.2322 78.0324 87.6024 78.1834C86.3701 78.4781 85.2129 78.8785 84.0308 79.3221C82.9712 79.7196 82.6632 79.9635 81.9829 78.9603C81.3249 77.9894 80.9996 76.8323 80.5288 75.768C79.9292 74.412 79.2048 73.1036 78.5094 71.7954C79.8755 71.7954 80.6618 71.0533 80.6255 69.6564C80.586 68.109 79.3214 67.7419 78.8002 66.4703C78.2931 67.133 78.2505 67.1517 77.8891 66.5226C77.4758 65.8032 77.1969 64.4869 76.9441 63.6709C77.1249 63.8651 77.3058 64.0593 77.4866 64.2533C77.9425 63.6218 77.2283 62.6265 76.9894 62.0318C76.6208 61.1136 76.5558 60.1209 76.2061 59.2053C76.0154 58.7056 75.5736 58.3122 75.4654 57.7908C75.3931 57.4418 75.6828 57.1098 75.614 56.7555C75.4944 56.1387 74.801 55.4769 74.5854 54.8495C74.2537 53.8845 73.8935 53.0349 73.4819 52.0948C72.925 50.8223 73.0544 49.487 72.9525 48.1327C72.8469 46.7285 72.3999 45.385 72.242 43.9869C72.1329 43.0211 72.4745 41.8049 71.7483 41.0313C71.6633 42.3172 72.0296 42.2973 70.8289 42.5287C69.4619 42.7918 68.4704 43.8166 67.178 44.1224C66.9116 44.1855 66.7174 43.0143 66.8213 44.6119C66.2014 44.1513 64.8782 44.7232 65.3719 44.9966C64.9978 45.3993 64.2609 45.1207 64.1378 45.7241C62.8663 44.4802 60.8274 48.7142 59.3132 46.5056C59.0633 48.0024 57.9863 48.8874 56.5403 49.0854C55.8133 49.1847 55.3652 49.4286 54.72 49.6479C54.5891 49.692 54.5409 49.8816 54.3859 49.9327C54.1491 50.0104 53.8014 49.7758 53.6307 49.8214C53.2833 49.9143 52.897 50.3743 52.412 50.4657C51.8559 50.5705 51.2493 50.5223 50.6927 50.4575C49.9967 50.3763 49.6905 50.2934 49.009 50.5241C48.396 50.7317 47.7395 51.3132 47.1707 50.6801C46.277 52.2359 44.1464 51.8556 43.0943 50.699ZM84.4075 31.9245C83.7313 31.843 84.2009 31.2577 84.514 31.0819C85.365 30.6047 85.1378 32.0127 84.4075 31.9245ZM46.9614 37.5075C50.9307 31.7452 57.7198 27.786 63.6934 24.4548C66.9563 22.6353 70.2867 20.8715 73.7127 19.3823C75.416 18.6422 77.1392 17.9307 78.8785 17.2806C79.8073 16.9334 80.7474 16.6176 81.688 16.3034C81.9481 16.2166 82.4212 15.9503 82.6934 15.9763C82.6464 15.9716 83.3699 16.1696 83.2277 16.2318C83.6938 16.0277 83.9156 15.4953 84.4635 15.2823C85.0794 15.0429 85.8639 14.9438 86.5236 14.9222C87.1073 14.903 87.6126 15.1457 88.1687 15.1646C88.5341 15.1769 88.8446 15.0023 89.2025 14.9766C89.3856 14.9637 89.3694 15.2394 89.4797 15.2555C89.5276 15.2625 90.0152 15.0782 90.0198 15.0814C90.1974 15.1962 90.3547 15.6442 90.5152 15.8191C90.9755 16.3209 91.6512 16.6705 92.2651 16.9345C93.0121 17.2558 94.8345 17.5788 93.9899 18.7675C94.5898 18.6808 94.869 19.2263 94.1179 19.3645C93.711 19.4395 93.5371 19.0645 93.235 18.8087C92.537 18.2187 90.8426 17.3788 89.8372 17.4167C89.2716 17.438 88.8345 17.87 88.3129 18.0268C87.7995 18.181 87.5452 17.9418 87.0948 17.9798C86.5683 18.0239 86.2293 18.4722 85.7275 18.552C85.2576 18.6267 84.9958 18.3043 84.5759 18.3268C84.0767 18.3534 83.5931 18.7897 83.1166 18.9363C82.3585 19.1694 81.8018 19.3283 81.0617 19.7147C79.6273 20.4638 78.0256 20.7483 76.5474 21.3931C75.3655 21.9086 74.0255 22.1799 72.9319 22.75C71.7158 23.3835 70.4942 24.0147 69.3034 24.703C68.4431 25.2004 66.6942 25.3716 65.7457 25.2451C65.7321 27.0027 64.8724 25.7705 64.006 26.5404C64.2109 26.7223 64.4437 26.8561 64.7035 26.9417C63.7646 27.319 62.8968 27.7887 61.9872 28.2224C61.0471 28.671 60.044 28.7697 59.4264 29.6181C58.8576 30.4 59.0503 29.9966 58.2013 30.3045C57.8118 30.4458 57.4731 30.8769 57.1925 31.1663C56.7101 31.664 56.6033 32.4175 56.3279 31.3947C56.2475 31.5194 55.9311 32.3136 55.8696 32.3337C55.5245 31.9651 55.4749 32.402 55.2819 32.5583C55.3834 32.898 55.2383 33.1205 54.8465 33.2259C54.6483 33.3743 54.4474 33.5198 54.2446 33.662C53.5085 34.1757 52.5717 34.6164 52.0533 35.3819C51.6711 35.155 51.5294 34.7634 51.7622 34.3635C51.0317 35.0411 50.1601 35.7371 49.9624 36.78C49.8716 36.6918 49.7657 36.6282 49.6455 36.589C49.3489 36.7905 49.7352 37.391 49.9233 37.5262C50.7435 37.2056 49.7183 37.3218 50.2695 37.3735C50.4265 37.3881 50.5879 37.5064 50.7612 37.5084C51.2694 37.5151 51.7468 37.4906 52.2506 37.4126C53.3617 37.2403 54.4535 36.9193 55.5291 36.5975C56.7005 36.247 57.8722 35.8971 59.0178 35.4672C59.961 35.1132 60.8886 34.7187 61.8159 34.3256C62.1863 34.1684 62.5563 34.0093 62.9272 33.8533C63.6316 33.5571 64.0031 33.0706 63.9047 33.9041C64.4658 33.8104 64.9519 33.0125 65.3826 32.6868C65.9886 32.2291 66.6701 31.8877 67.3881 31.6541C67.679 31.5594 67.8926 31.4391 68.1933 31.4382C68.3407 31.438 68.4289 31.8562 68.5218 31.8334C69.1661 31.6763 68.8724 31.317 69.1621 30.7995C69.7956 29.6684 71.5022 29.0428 72.5503 28.4002C73.2155 27.9922 73.6877 27.4434 74.3018 26.9916C74.5892 26.7805 74.7978 26.687 75.0988 26.5976C75.3293 26.529 75.612 27.0617 75.7614 26.5264C75.2254 26.3059 74.7833 26.034 74.2676 25.873C73.9028 25.7588 74.3404 25.3684 73.7623 25.6008C73.5301 25.6943 73.4503 26.1464 73.3649 26.3357C72.7192 25.7553 70.9035 26.3567 70.1373 26.5997C70.0844 26.6163 69.8479 26.4907 69.7364 26.4983C69.2941 26.5281 68.9862 27.1271 68.6951 27.3853C67.921 28.0714 67.0814 28.3582 66.1282 28.7498C66.3819 27.3552 68.2461 26.784 69.3342 26.2498C70.9247 25.4688 72.4054 24.472 74.1468 24.052C75.3066 23.772 76.8434 23.5468 77.3444 24.9037C77.6442 25.7171 77.6819 27.7378 76.6675 28.1131C76.5604 27.7335 76.9035 27.409 77.0068 27.0795C75.9971 27.4674 75.8308 28.6879 75.064 29.3249C74.633 29.6827 74.4789 29.7975 74.2705 30.1432C74.0635 30.4867 73.9643 30.8071 73.4793 31.1725C72.6867 29.4782 72.8208 31.7989 72.4188 32.0901C72.5804 31.973 71.7637 32.315 71.8612 32.2788C71.8235 32.2928 71.4677 31.7128 71.2369 31.725C70.817 31.7472 70.8977 32.2125 70.6954 32.4467C70.0095 33.2394 69.1235 33.7592 68.0197 33.6345C67.9939 34.1985 68.1668 34.8723 67.4015 34.9237L67.3011 33.6734C66.8846 34.0975 66.3363 34.5002 65.9973 34.9912C65.6116 35.5499 65.6528 35.8939 65.0129 36.2663C64.3442 36.6556 62.9214 37.4226 62.1256 37.4889C62.3224 37.2079 62.2876 36.9541 62.0217 36.728C61.6215 37.1433 61.0306 37.1842 60.6045 37.5592C62.0835 38.181 59.4682 38.1489 59.1365 38.2193C58.9144 38.2666 58.7206 38.4702 58.4956 38.516C58.197 38.5771 58.1584 38.2611 57.9012 38.3612C57.5251 38.5079 57.6778 38.9217 57.2842 39.1297C57.0015 39.2792 56.522 39.2771 56.2031 39.4191C55.4429 39.7579 53.8237 40.5082 53.31 39.5981C53.0497 41.1595 50.3908 40.2091 49.4066 40.104C48.0588 39.96 45.7111 39.3233 46.9614 37.5075ZM52.6227 21.5324C52.8134 21.3686 53.0044 21.3806 53.1954 21.5686C52.9295 20.1557 54.9858 19.4696 55.8829 18.8688C57.0729 18.0721 58.4736 16.5262 60.0307 16.6486C59.7651 16.8466 59.5001 17.0446 59.2349 17.2427C59.6136 17.292 59.9921 17.3414 60.3703 17.3907C60.1569 17.7062 59.9433 18.0213 59.7294 18.3364C59.38 16.3983 57.5567 18.8452 57.0291 19.2018C56.4977 19.5607 55.9677 19.8283 55.4955 20.2661C55.0276 20.6998 54.6053 21.4807 53.8318 21.0905C53.7613 22.1975 52.877 21.8972 52.2654 22.5103C52.2399 22.1256 52.4588 21.8537 52.6227 21.5324ZM60.7011 16.0069C62.5833 15.2975 64.222 13.9859 65.9956 13.049C67.6897 12.1539 69.418 11.3501 71.1403 10.5151C72.0139 10.0913 73.6143 8.99551 74.613 9.55393C75.9605 10.308 74.1053 10.5513 73.6236 10.8124C73.4454 9.65119 72.8211 10.7032 73.194 11.3492C72.1657 10.9024 69.9231 12.6506 68.9421 13.1328C68.72 13.242 68.8196 13.3051 68.5671 13.4336C68.505 13.4651 67.8612 13.6126 67.6769 13.6748C66.7534 13.9859 66.1448 13.7388 65.7469 14.8606C65.6636 14.5966 65.5803 14.3323 65.497 14.068C64.9188 15.3743 63.1615 15.9462 62.0377 16.7187C61.748 16.9179 60.9208 17.6904 60.5534 17.5306C60.042 17.3081 60.2472 16.1778 60.7011 16.0069ZM94.6548 19.9457C95.4495 19.9985 94.6833 20.3715 94.9015 20.618C94.8769 20.5902 95.3801 21.0222 95.3143 20.9036C95.4031 21.0631 95.6164 21.0573 95.7255 21.3814C96.1014 22.4962 94.4601 23.6481 93.9066 24.2807C92.8304 25.5112 92.2085 27.0693 91.087 28.2603C90.5805 28.7983 90.0767 29.1698 89.3746 29.3705C88.8832 29.5109 88.3634 29.3605 87.9118 29.836C87.5481 30.2189 87.6306 30.4365 87.2286 30.64C86.5204 30.999 86.2084 30.6841 85.5194 31.4599C84.9265 29.8378 86.6301 29.8404 87.5191 28.9338C88.7462 27.6823 90.0909 26.4198 91.2417 25.081C92.2639 23.8914 92.6734 22.8485 93.1587 21.4033C93.3116 20.9477 93.4782 19.9708 93.8999 19.6849C94.5567 19.2398 94.1626 19.9127 94.6548 19.9457ZM98.5626 62.0841C100.647 59.7383 103.232 57.632 106.035 56.219C107.036 55.7137 108.462 55.0507 109.5 55.8285C110.519 56.5908 110.299 58.1115 109.889 59.146C109.496 58.9906 109.867 57.5368 109.663 57.1775C109.218 56.3936 108.257 56.8098 107.603 57.0727C106.838 57.3805 106.155 57.7205 105.548 58.2792C105.302 58.5055 104.831 58.7085 104.673 58.8642C104.437 58.7652 104.297 58.8373 104.255 59.0803C104.304 59.2292 104.298 59.3759 104.238 59.5201C104.203 59.566 103.895 59.3779 103.851 59.4156C103.652 59.5876 103.465 59.79 103.268 59.9498C102.874 60.2707 102.538 60.4226 102.175 60.87C101.474 61.7348 100.546 62.2416 99.8419 63.0655C99.6829 63.2518 99.4922 63.7293 99.4565 63.7711C99.1004 64.1893 98.5724 64.5202 98.1708 64.963C97.4762 65.7279 96.7347 66.2413 95.9333 66.8973C95.5882 67.1794 95.1857 67.4835 94.9561 67.876C94.8516 68.055 94.7927 69.0363 94.7889 69.0404C94.003 69.9073 94.1559 68.1648 94.2151 67.9464C94.8534 65.5956 97.0113 63.8307 98.5626 62.0841ZM94.2726 77.9801C94.3704 78.3493 94.4508 78.6545 94.5501 79.0292C93.9269 78.5149 93.9269 78.5149 94.2726 77.9801ZM93.5996 79.1892C93.3706 79.4214 93.1404 79.6521 92.9085 79.8814C92.3986 79.3391 93.693 79.0963 93.5996 79.1892ZM93.2759 69.8544C93.0322 70.8468 92.1397 72.0498 91.5261 72.8331C91.5937 72.7467 91.0025 72.9204 90.9352 72.9599C90.7167 73.0872 91.2399 73.9126 90.4827 73.5437C90.214 73.6967 90.7431 74.32 90.3779 74.5989C89.3226 72.1792 92.2041 70.0828 93.3198 68.2866C93.8654 68.7907 93.4129 69.298 93.2759 69.8544ZM86.4215 82.9369C87.1909 83.1361 87.5911 83.0108 88.1106 82.2503C88.4229 81.7935 88.537 80.9845 89.2513 81.6679L89.3772 80.7891C90.3968 81.21 90.3112 82.731 90.7567 83.5739C90.9735 82.6203 91.4869 79.9565 93.0591 80.3838C94.8241 80.8636 91.8866 83.918 91.6138 84.6662C91.0138 83.7293 91.2498 84.6008 90.7921 84.7328C90.3994 84.8464 89.7859 84.5555 89.3087 84.5818C87.857 84.6613 86.5817 85.3184 85.2556 85.8748C84.9198 84.9638 84.5843 84.0529 84.2485 83.142C85.0292 83.2024 86.6435 81.1113 86.8728 82.6312C86.2938 82.5298 86.1307 82.5555 85.8485 83.0859C86.0288 82.9939 86.2197 82.9442 86.4215 82.9369ZM89.6802 94.827C89.6779 94.8197 91.1819 94.9132 91.316 94.8638C92.3452 94.4856 91.9647 93.3109 92.1751 92.4806C92.5994 92.8731 92.3745 93.5896 92.5054 94.0974C92.6589 94.6944 93.1035 95.2032 93.1448 95.8416C93.2385 97.2841 92.0622 96.964 91.1706 97.4307C90.4087 97.8297 90.3242 98.3314 89.6808 97.2564C89.5067 96.9655 89.1323 96.2076 89.1706 95.8355C89.2083 95.4669 89.7885 95.1605 89.6802 94.827ZM90.8922 101.069L90.4763 100.6C91.7156 100.982 90.9848 100.408 91.2698 99.6232C92.2209 100.26 92.9967 100.916 93.7493 99.6396L95.0496 104.917C94.1763 105.124 93.0496 103.766 92.4505 103.3C92.1046 103.03 90.1846 101.992 91.3375 101.689C91.1889 101.482 91.0406 101.276 90.8922 101.069ZM99.3799 84.4968C98.6581 85.1876 97.931 85.5742 97.1451 86.1172C96.4558 86.5938 96.6932 87.1409 96.0956 87.6724C95.6988 88.0258 94.7686 88.3856 94.2784 88.6552C93.4051 89.1353 92.6229 89.2268 91.7246 88.6894C91.969 90.6698 90.6212 90.8249 88.9433 91.2171C88.1431 91.4044 87.6695 91.6903 87.0928 90.9528C86.6978 90.4482 86.5431 89.5343 87.0344 89.0725C87.8149 88.3389 89.8941 88.5921 90.8954 88.1307C91.6553 87.7808 92.4293 85.8091 93.3668 86.5267C92.883 85.7512 93.4463 85.5424 93.8669 84.9895C94.3275 84.3835 94.6104 83.675 95.087 83.0739C95.9925 81.9314 97.3828 80.7821 98.6688 80.0931C99.8004 79.4871 100.395 79.9162 100.564 81.189C100.649 81.8289 100.646 82.7822 100.29 83.3499C100.177 83.531 99.8019 83.533 99.6884 83.703C99.4907 84 99.6721 84.217 99.3799 84.4968ZM112.659 69.1365C113.562 69.8398 113.474 71.3176 113.616 72.3241C113.817 73.7426 113.671 75.1153 113.65 76.5601C113.627 78.0738 112.889 79.0598 112.542 80.4787C112.156 82.057 111.657 82.8928 110.791 84.2173C111.731 84.366 110.333 87.1885 110.102 87.5538C109.852 87.9505 107.835 89.7782 108.7 89.7782C108.222 90.4114 107.703 91.0612 107.228 91.6768C107.04 91.9193 106.712 92.0145 106.565 92.1856C106.264 92.5335 106.246 92.8436 106.031 93.2496C105.704 93.8655 105.597 93.7011 105.168 94.148C104.871 94.4567 104.677 94.8641 104.386 95.16C103.448 96.113 103.328 95.3323 102.804 94.5983C102.723 94.7949 102.581 94.9181 102.375 94.9681C102.211 94.1375 103.342 93.2984 103.817 92.7937C104.596 91.9666 105.308 91.0553 105.996 90.1508C107.47 88.2127 108.795 86.1537 109.841 83.9481C110.953 81.6008 111.841 79.0604 112.303 76.4996C112.655 74.5478 112.989 71.1996 110.397 70.7031C108.512 70.3421 106.434 71.4946 104.88 72.4277C103.933 72.9961 102.981 73.5612 102.079 74.2005C101.1 74.8939 100.253 75.8752 99.1903 76.4316C99.7717 76.1273 97.8535 77.0432 98.1472 76.7856C98.0097 76.9059 98.1284 77.2736 98.0375 77.4395C97.9191 77.6553 97.5076 77.8685 97.323 78.0081C96.8354 78.3767 96.0564 78.7538 95.8346 79.3624C92.7419 77.1422 98.8923 73.2005 100.469 72.1967C103.596 70.2057 109.038 66.3155 112.659 69.1365ZM121.002 47.5436C120.972 45.9449 122.266 43.7623 123.14 42.4586C123.567 41.8204 124.25 41.8458 124.501 41.0932C124.645 40.6598 124.456 40.2053 124.499 39.7701C124.557 39.1816 124.81 38.7097 125.103 38.2038C127.748 33.631 130.961 29.5837 134.384 25.5941C136.072 23.6274 137.672 21.585 139.492 19.7374C140.252 18.9658 142.296 16.1918 143.465 16.4693C144.084 16.6162 144.444 17.5668 144.724 18.052C145.186 18.8542 145.694 19.6057 146.255 20.3435C147.738 22.2912 149.447 24.0009 151.467 25.3815C152.727 26.2442 154.001 27.0827 155.234 27.9867C156.249 28.7306 157.784 29.581 158.508 30.6254C159.233 31.6701 158.169 32.5548 157.587 33.4222C156.682 34.7712 155.851 36.169 154.942 37.5166C154.582 37.2555 154.675 36.7251 154.428 36.3907C154.208 36.0943 153.898 35.9736 153.595 35.7905C153.014 35.4403 152.444 35.0122 151.92 35.5989C151.002 36.6258 152.264 39.0531 153.624 38.7868C153.785 39.8002 151.068 41.4693 150.387 42.0272C148.297 43.7381 146.142 45.2255 143.381 45.3803C142.264 45.4428 141.102 45.3575 140.04 44.9814C139.532 44.8012 138.97 44.5538 138.58 44.161C138.113 43.6908 137.994 42.991 137.541 42.5254C137.149 42.1215 136.609 42.0593 136.217 41.6539C135.824 41.2483 135.63 40.6075 135.471 40.0821C135.159 39.0555 135.1 37.9728 134.8 36.9439C134.62 36.325 134.472 35.4976 133.884 36.0922C133.031 36.9561 133.46 39.6726 133.678 40.7077C133.991 42.1843 134.724 43.3747 135.491 44.6452C136.324 46.0234 136.631 47.3018 136.78 48.8964C137.059 51.8816 137.911 54.7461 139.235 57.4319C139.793 58.5628 140.461 59.6262 141.063 60.731C141.344 61.2465 141.974 63.0053 142.739 62.9959C143.961 62.9808 142.22 59.3951 141.979 58.7932C140.64 55.4593 139.361 51.9552 139.075 48.3453C140.993 48.8427 143.085 49.3147 145.072 48.9995C143.789 51.8857 145.129 54.7593 144.965 57.7301C144.883 59.2199 144.824 60.5943 144.854 62.0798C144.881 63.3823 144.297 64.6843 143.792 65.8622C142.788 68.2013 141.525 71.0869 139.661 72.8787C138.102 74.3767 136.018 74.4938 133.982 74.1488C129.35 73.3638 126.307 69.7811 124.364 65.7121C123.115 63.0982 122.16 60.3078 121.567 57.469C120.881 54.1836 121.062 50.876 121.002 47.5436ZM127.016 25.4022C122.694 22.2553 128.975 18.6816 132.172 19.1682C132.922 19.2821 134.302 19.594 134.231 20.5789C134.174 21.3838 132.84 22.281 132.327 22.7778C130.867 24.1954 129.38 27.1228 127.016 25.4022ZM158.459 95.3264C158.31 95.1927 157.101 95.5209 157.58 94.8007C157.978 94.2023 159.082 94.9523 159.483 95.1062C159.153 95.3361 158.865 95.6921 158.459 95.3264ZM140.461 133.387C140.09 133.434 139.702 132.425 141.041 133.179C140.848 133.248 140.654 133.318 140.461 133.387ZM140.423 149.819C140.469 150.271 140.607 150.569 140.288 150.897C140.018 150.563 139.983 150.091 140.423 149.819ZM140.967 156.608C140.927 156.854 140.888 157.1 140.849 157.346C140.54 157.188 140.231 157.031 139.921 156.873C140.27 156.785 140.618 156.697 140.967 156.608ZM141.345 150.883C141.806 151.057 141.592 150.502 141.926 150.424C142.046 151.002 141.898 151.496 141.569 151.972C141.538 151.86 141.369 150.892 141.345 150.883ZM153.124 109.915C152.477 109.832 152.38 110.519 151.898 110.786C151.586 110.958 150.639 110.829 150.462 111.158C150.696 111.226 150.929 111.294 151.163 111.362C150.628 111.652 150.094 111.942 149.56 112.231C150.845 112.231 152.184 111.614 153.46 111.795C154 111.872 154.396 112.055 154.734 112.497C154.94 112.765 155.12 113.196 155.153 113.525C155.189 113.88 154.914 114.125 154.962 114.295C155.538 114.31 155.47 115.26 155.341 115.647C155.061 116.486 153.948 117.8 152.951 117.268C153.368 117.863 153.262 118.203 152.645 118.549C152.701 118.352 152.742 118.008 152.427 118.042C152.346 118.372 152.377 118.895 152.109 119.144C151.81 119.422 151.542 119.097 151.255 119.278C150.915 119.493 151.018 119.83 150.75 120.063C150.397 120.371 150.346 120.152 149.924 120.212C149.284 120.303 149.692 119.903 149.18 120.425C149.002 120.605 149.032 121.073 148.745 121.336C148.193 121.842 146.72 122.369 146.191 121.721C144.919 123.748 141.108 124.235 139.334 122.634C136.505 120.081 141.781 114.889 143.522 113.244C145.27 111.592 147.212 110.166 149.177 108.789C150.293 108.007 151.438 107.297 152.608 106.6C153.33 106.17 154.236 105.385 155.122 105.46C155.918 105.528 156.597 106.149 157.434 106.272C158.04 106.36 159.216 106.507 158.452 107.334C158.095 107.72 156.692 108.344 156.214 108.438C155.934 108.493 155.638 108.388 155.36 108.445C154.889 108.542 154.566 108.942 154.053 108.891C154.216 109.656 153.92 110.016 153.124 109.915ZM161.497 81.5175C161.497 82.116 160.412 81.9667 160.185 81.7635C159.812 81.429 159.799 80.429 159.66 79.9743C160.291 80.134 161.497 80.7188 161.497 81.5175ZM152.753 61.7748C155.033 59.889 157.43 58.16 159.965 56.6372C160.872 56.0919 162.154 54.992 163.281 55.1293C163.754 55.1871 164.731 55.7336 164.375 56.3361C164.309 56.4488 163.782 56.4941 163.62 56.5759C163.436 56.6685 163.291 56.9237 163.12 57.0499C161.936 57.924 160.513 58.4611 159.325 59.3563C158.349 60.0914 157.438 60.9138 156.388 61.5447C155.379 62.1496 154.326 62.5324 153.368 63.2024C153.387 63.189 152.123 63.6464 152.371 63.7296C151.262 63.3561 152.434 62.0392 152.753 61.7748ZM167.955 61.0724C169.309 60.5292 170.635 59.87 172.053 59.505C172.76 59.3227 173.487 59.1857 174.219 59.2678C174.344 59.0485 174.509 59 174.717 59.1224C174.878 59.3724 175.091 59.5642 175.356 59.6983C175.76 60.0108 177.248 60.4194 176.95 61.1095C176.754 61.566 175.262 61.604 174.853 61.7065C173.619 62.0158 172.469 62.7115 171.198 62.8823C171.079 62.8984 170.689 62.753 170.685 62.7538C170.189 62.8628 169.776 63.3806 169.35 63.6288C168.433 64.163 167.115 64.2527 166.457 65.1747C168.589 66.6295 170.44 65.1867 172.314 64.0883C173.438 63.4305 174.643 62.9559 175.871 62.5342C176.512 62.314 177.159 62.085 177.809 61.8917C178.079 61.7929 178.355 61.722 178.639 61.6785C178.903 61.6256 179.092 61.7223 179.206 61.9688C179.992 61.9425 180.059 61.4463 180.532 62.3718C181.199 63.6767 180.179 63.6104 179.22 63.7708C177.89 63.9927 176.538 64.4928 175.227 64.8242C174.925 64.9008 172.275 65.5191 172.272 65.541C172.152 66.3827 179.758 65.6032 180.411 65.477C181.563 65.2539 182.799 64.6204 183.991 64.7731C184.907 64.8903 186.994 66.2425 185.533 67.1409C185.245 65.7553 184.258 66.8996 183.742 67.3672C183.056 67.9896 182.072 67.9297 181.13 68.1736C179.842 68.5065 176.545 69.756 175.63 68.1631C175.919 69.5591 170.663 68.8497 169.94 68.8036C169.236 68.7583 168.327 68.909 167.646 68.7069C167.202 68.5752 166.955 68.2846 166.537 68.2192C166.434 68.3301 166.312 68.4058 166.169 68.4458C165.957 68.338 165.766 68.2008 165.595 68.0346C164.187 67.3836 162.009 67.0238 162.792 64.9498C163.529 62.9939 166.166 61.7903 167.955 61.0724ZM181.149 62.2813C181.184 62.1595 181.219 62.0377 181.254 61.9156C181.258 62.2892 182.143 62.4486 182.041 62.9326C181.814 64.0041 180.793 62.394 180.705 62.2185C180.853 62.2395 181.001 62.2602 181.149 62.2813ZM186.553 64.0617C186.656 64.5006 187.833 65.4352 187.541 65.6508C187.077 65.0158 185.794 65.3041 186.553 64.0617ZM166.696 104.115C167.127 103.255 168.43 104.719 168.293 103.251C169.001 103.315 168.559 103.858 169.408 103.619C169.726 103.53 169.941 103.175 170.329 103.093C170.432 103.072 170.879 103.107 171.033 103.103C171.543 103.087 173.544 103.03 172.167 102.356C172.938 101.843 173.033 102.103 173.728 102.573C173.55 101.602 174.574 102.153 175.05 102.274C174.71 101.72 175.554 101.131 175.827 100.756C175.729 101.333 175.781 101.979 176.611 101.61C176.817 101.518 176.771 101.111 176.935 101.044C177.235 100.922 177.403 101.144 177.51 101.131C177.616 101.119 177.839 101.179 178.062 101.095C178.351 100.985 178.212 100.595 178.579 100.536C178.817 100.499 178.992 100.852 179.284 100.855C179.433 100.857 179.683 100.704 179.797 100.712C179.817 100.713 179.96 100.367 180.135 100.359C180.391 100.346 180.495 101.036 180.588 101.171C181.036 101.81 181.632 102.227 182.319 102.568C181.076 103.716 178.568 103.594 177.004 103.981C176.157 104.19 175.435 104.493 174.66 104.882C174.473 105.005 174.312 105.155 174.177 105.333C174.068 105.259 173.958 105.186 173.848 105.113C173.423 105.139 173.022 104.928 172.544 105.009C171.067 105.259 169.911 106.372 168.411 106.62C167.737 106.732 167.183 106.888 166.743 106.299C166.358 105.784 166.422 104.663 166.696 104.115ZM164.672 97.2593C165.007 97.544 164.604 98.471 165.252 98.3703C165.712 98.2987 165.62 97.5811 165.981 97.429C166.455 97.2295 166.741 97.7029 167.187 97.6591C168.018 97.5768 167.971 96.8466 167.268 96.5259C167.998 96.332 168.232 97.2006 168.879 97.1927C169.728 97.1825 169.525 96.1746 170.247 96.0075C170.56 95.9351 170.456 96.3974 170.659 96.455C171.065 96.5697 171.348 96.3726 171.707 96.1991C172.029 96.044 172.258 95.7444 172.609 95.6427C172.769 95.5963 173.176 95.6813 173.293 95.5951C173.529 95.4216 173.741 94.7458 173.974 94.6564C173.926 94.6746 174.69 95.0595 174.799 95.0957C174.732 95.3811 174.577 95.4149 174.333 95.1976C174.333 95.8416 176.112 96.0423 175.747 95.2464C176.709 95.6471 175.992 95.8533 175.896 96.4126C175.858 96.6375 175.728 96.6314 175.767 96.8691C175.784 96.9786 176.288 96.8843 176.282 97.0335C176.24 97.9947 173.195 98.2903 172.619 98.375C171.425 98.5505 170.295 98.8458 169.144 99.2094C168.287 99.4801 166.809 100.256 165.897 100.207C164.586 100.138 164.415 98.4161 164.672 97.2593ZM161.741 87.4513C161.422 86.3821 162.448 84.1735 163.784 84.4495C164.112 84.5173 164.193 84.7912 164.448 84.9127C164.804 85.0827 165.383 84.9933 165.691 85.1689C166.383 85.5629 166.034 86.5667 166.727 86.9294C165.633 87.1964 162.25 89.1508 161.741 87.4513ZM163.008 91.6056C163.479 91.3506 164.243 91.3179 164.565 90.8275C164.725 90.9391 165.028 91.6164 165.315 91.5127C165.449 91.4645 165.587 91.0974 165.578 91.0977C165.833 91.0904 165.884 90.742 166.275 90.7811C166.634 90.8173 167.035 91.2513 167.355 91.4131C167.3 90.3372 167.574 90.2344 168.441 89.6584C168.631 89.5322 168.79 89.0585 168.965 88.8669C168.797 89.996 169.22 90.0022 170.116 90.1719C171.239 90.3845 171.939 90.9914 172.389 92.0834C171.432 91.8956 170.197 92.1217 169.82 93.157C169.056 91.7525 166.28 93.6906 165.382 94.0875C164.715 94.3822 163.939 94.7782 163.38 94.0916C162.987 93.608 163.212 93.0262 163.221 92.5965C163.223 92.4616 163.362 92.4537 163.349 92.2528C163.333 91.9964 163.001 91.8938 163.008 91.6056ZM173.227 113.691C172.974 113.788 171.673 113.842 171.665 113.408C171.658 113.025 173.961 113.411 173.227 113.691ZM171.113 112.288C170.129 112.899 169.028 110.747 168.666 110.127C169.698 110.26 170.202 109.391 170.811 108.731C171.389 110.007 172.268 109.332 173.193 108.906C174.283 108.403 175.477 108.4 176.594 107.996C176.943 107.87 177.264 107.683 177.604 107.539C177.878 107.436 178.151 107.33 178.423 107.222C178.616 107.047 178.685 106.831 178.629 106.575C178.537 106.36 178.6 106.224 178.816 106.168C179.073 106.245 179.336 106.29 179.604 106.302C180.034 106.216 180.653 105.808 180.133 105.367C180.69 104.859 181.247 105.365 181.783 105.587C181.656 105.222 181.529 104.857 181.402 104.491C181.668 104.605 182.457 105.715 182.537 105.709C183.048 105.67 182.995 104.981 183.288 104.703C183.457 104.913 183.505 106.479 184.171 105.951C184.455 105.726 183.843 104.958 183.692 104.783C184.453 104.956 185.117 105.87 185.323 106.58C184.961 106.632 184.627 106.559 184.321 106.36C184.124 107.348 185.942 106.948 186.237 107.464C186.813 108.475 183.064 109.177 182.575 109.271C181.598 109.458 180.444 109.528 179.548 109.964C178.69 110.382 178.487 110.501 177.484 110.579C176.339 110.669 175.221 111.048 174.114 111.344C173.152 111.6 171.966 111.76 171.113 112.288ZM192.039 76.1048C192.943 75.7774 195.989 74.0785 196.764 74.834C196.682 74.754 197.323 76.0864 197.316 76.0026C197.371 76.6956 197.354 76.9745 196.507 77.3066C195.9 77.5443 195.371 77.0391 194.824 77.2397C194.225 77.4602 194.644 77.8504 194.335 78.1229C193.997 78.4217 193.345 78.5508 192.923 78.6816C191.893 79.002 190.853 79.2698 189.827 79.6151C187.74 80.3175 185.529 80.9711 183.384 81.4679C181.78 81.8391 179.059 82.7617 177.582 81.672C177.438 82.2915 177.085 82.2068 176.596 82.297C176.212 82.3677 175.518 82.559 175.176 82.5689C174.608 82.5856 173.029 82.4358 173.247 81.6341C173.187 81.8549 174.475 81.099 174.252 81.052C174.799 81.1679 174.622 80.8908 175.07 80.7366C175.655 80.5353 176.267 80.5461 176.865 80.3329C178.371 79.7955 179.635 79.0981 181.225 78.7614C184.858 77.9924 188.535 77.3738 192.039 76.1048ZM46.4294 158.931C46.1351 158.939 45.9061 158.097 46.8015 158.698C46.6776 158.776 46.5536 158.853 46.4294 158.931ZM39.3564 157.842C38.9562 157.945 38.7965 157.72 38.8781 157.168C39.4362 156.946 39.5955 157.171 39.3564 157.842ZM33.8959 156.715C33.7934 156.222 34.1562 156.111 34.4851 155.89C34.452 156.543 34.452 156.543 33.8959 156.715ZM20.1568 152.663C19.6033 152.54 18.8658 151.996 18.739 152.91C18.6464 152.698 18.1739 151.703 18.3768 151.472C18.4827 151.352 18.8838 151.909 18.8411 151.854C19.3255 150.868 20.1605 152.058 20.6272 152.41C20.4705 152.494 20.3135 152.579 20.1568 152.663ZM164.06 43.6963C164.251 43.2898 164.476 43.1607 164.735 43.3093C164.328 44.2603 162.95 44.7758 164.06 43.6963ZM173.635 34.7698C173.976 35.4138 173.463 35.686 173.096 36.2213C173.311 35.6439 173.459 35.2438 173.635 34.7698ZM215.248 97.634C216.479 97.6337 219.102 96.9798 219.844 98.396C220.336 97.4336 220.894 99.2383 221.321 99.5277C221.368 99.5604 221.676 99.3242 221.818 99.4112C222.034 99.5423 222.219 99.8995 222.343 100.112C222.715 100.752 222.875 101.513 223.081 102.218C220.93 102.218 218.725 101.714 216.577 101.531C215.166 101.41 213.784 101.407 212.372 101.483C212.091 101.499 211.534 101.405 211.294 101.459C211.05 101.513 210.608 102.012 210.339 101.932C210.757 102.721 216.105 104.631 216.513 103.757C216.03 103.463 214.956 103.237 214.957 102.525C214.958 101.728 215.964 101.73 216.498 101.753C217.665 101.804 219.618 102.195 220.097 103.416C220.302 103.939 220.365 105.257 220.139 105.762C219.994 106.089 219.748 106.481 219.358 106.547C219.198 106.574 218.967 106.36 218.943 106.365C218.143 106.536 216.661 107.183 215.788 106.271C215.158 107.091 212.126 106.195 211.198 105.886C209.574 105.345 207.338 104.603 206.352 103.078C205.15 101.22 207.594 99.6495 208.997 98.8942C210.915 97.8621 213.107 97.6349 215.248 97.634ZM223.442 101.93C223.82 102.037 224.197 102.145 224.574 102.252C224.473 102.918 222.984 102.391 223.442 101.93ZM234.851 126.135C234.967 123.467 234.2 121.118 233.758 118.537C233.648 117.898 233.76 116.779 233.277 116.253C232.816 115.751 231.786 116.159 231.746 115.27C231.291 115.806 231.337 115.918 230.777 115.302C230.88 115.566 230.894 115.834 230.822 116.108C230.474 115.907 229.215 115.242 229.321 116.152C228.286 115.921 228.586 115.27 227.995 114.772C227.911 114.702 227.574 114.953 227.443 114.846C227.205 114.652 227.088 114.476 226.888 114.227C226.633 114.536 226.287 114.76 225.975 115.005C225.795 114.609 225.443 114.318 225.019 114.221C225.415 115.054 226.393 116.133 225.052 116.607C224.251 116.89 222.939 116.543 222.091 116.609C218.948 116.854 215.505 116.165 212.466 115.411C209.344 114.637 206.187 113.545 203.379 111.948C202.781 111.607 202.404 111.204 201.888 110.782C201.387 110.371 201.023 110.307 200.421 110.044C199.337 109.571 198.345 108.813 197.521 107.969C195.748 106.153 194.1 103.777 194.594 101.118C195.086 98.4675 196.897 96.3962 198.834 94.6509C201.122 92.5895 203.705 90.8684 206.447 89.4808C207.673 88.8608 210.809 86.5307 212.02 87.8941C212.794 88.765 212.358 89.8763 211.301 90.0699C211.04 90.1178 210.767 89.9417 210.504 90.0623C210.123 90.2364 210.257 90.442 210.1 90.5872C209.828 90.8392 209.538 91.2323 209.131 91.4508C207.709 92.2134 206.335 92.8176 204.977 93.7464C204.351 94.1743 203.748 94.3583 203.196 94.7318C202.647 95.103 202.522 95.7175 201.783 95.3384C202.046 96.419 200.468 97.5762 199.849 98.2383C198.89 99.2634 197.741 100.572 198.188 102.089C199.064 105.058 203.02 107.313 205.552 108.618C208.711 110.246 212.195 111.543 215.713 112.079C217.462 112.346 219.27 112.511 221.032 112.68C222.404 112.812 224.509 112.329 225.496 113.573C225.527 112.123 230.027 112.251 230.984 112.065C229.064 105.46 225.294 99.5879 221.263 94.1012C219.285 91.4079 217.342 88.638 215.087 86.1689C212.618 83.4659 209.798 81.0502 207.118 78.563C201.862 73.6848 195.917 69.331 189.868 65.4957C183.833 61.6694 177.583 57.9036 170.971 55.1754C163.419 52.0597 155.469 50.0104 147.51 48.265C148.589 46.8806 150.346 46.2054 151.728 45.1925C152.212 44.838 152.866 43.9869 153.495 43.8707C154.176 43.7445 154.712 44.4817 155.197 44.8517C156.588 45.9136 157.55 45.4627 159.143 45.3987C160.097 45.3605 162.354 45.8946 162.756 44.597C163.291 45.3132 162.516 45.8873 162.119 46.4125C162.408 46.8179 162.641 46.3973 162.926 46.3339C163.014 46.2606 163.102 46.187 163.189 46.1137C163.331 45.9075 163.459 45.9063 163.572 46.1096C163.742 46.3672 163.914 46.3102 164.086 45.9385C164.133 45.9087 164.18 45.8786 164.228 45.8488C164.434 45.7384 164.633 45.5637 164.824 45.4262C166.272 44.385 167.562 43.498 169.161 42.731C170.503 42.0873 169.781 40.8557 170.666 39.986C170.866 39.7891 171.203 39.8878 171.418 39.7211C171.627 39.5572 171.659 39.3715 171.812 39.196C172.179 38.7739 171.742 38.2841 172.68 38.8008L172.341 36.8846C174.181 38.6802 174.173 33.513 174.425 32.7484C174.392 32.8495 174.59 32.0671 174.59 32.0738C174.644 30.5232 174.854 29.3994 173.049 29.3094C173.733 28.8769 173.942 29.7215 174.257 28.8471C174.415 28.409 173.922 27.6561 174.708 27.9385C174.873 27.0074 174.71 26.2539 174.504 25.3491C174.292 24.423 174.417 23.805 174.426 22.8788C174.437 21.8283 173.948 20.7725 173.792 19.738C173.669 18.9278 173.796 17.6501 172.755 17.9477C172.608 17.7173 173.122 17.0084 173.102 16.6579C173.069 16.1135 172.482 15.5604 172.316 15.0376C172.071 15.2917 171.726 15.3764 171.393 15.2616C171.706 14.5513 171.412 14.3127 171.113 13.7003C170.942 13.3495 171.045 12.9622 170.678 12.7108C170.468 12.5665 170.109 12.8095 169.944 12.6404C169.591 12.2783 169.721 11.7978 169.478 11.3206C169.173 10.7222 168.476 10.2651 167.996 9.81591C165.297 7.29105 162.365 5.36141 158.774 4.37483C155.151 3.37948 150.928 3.02288 147.318 4.17097C145.875 4.62979 144.594 4.58277 143.295 5.43968C142.874 5.71772 142.829 5.64324 142.615 6.10674C142.565 6.21481 143.014 6.50248 142.739 6.67918C142.441 6.87106 142.111 6.48087 141.959 6.15698C140.08 7.52557 138.32 9.35007 137.25 11.4421C136.186 13.5209 136.089 15.9631 135.683 18.2222C133.81 16.0692 131.277 15.037 128.523 16.0721C126.122 16.974 124.262 18.9565 123.792 21.5248C123.506 23.0906 123.819 24.6762 124.526 26.0889C124.831 26.6993 125.201 27.3751 125.763 27.786C126.207 28.1108 126.968 28.0652 127.178 28.6511C127.498 29.5486 125.646 31.487 125.165 32.2727C124.295 33.6944 123.487 35.1626 122.872 36.7155C120.666 33.5796 118.554 30.1546 116.045 27.2632C113.678 24.5342 110.856 22.0868 108.088 19.7801C102.343 14.9926 96.3693 10.495 89.9429 6.68093C83.9591 3.12948 76.7311 1.15778 69.7573 1.85493C62.9435 2.53631 57.7268 6.87282 53.337 11.8744C44.8964 21.491 39.7267 35.1976 39.2217 47.9989C39.0699 51.8445 39.361 55.6398 40.3049 59.3697C40.7544 61.1457 40.6891 62.8926 40.9504 64.6914C41.2452 66.7206 41.7552 68.7425 42.2483 70.7303C44.1267 78.3025 46.52 85.8689 49.2055 93.1903C50.6018 96.9976 52.2913 100.72 54.5769 104.077C55.6325 105.628 57.0001 106.841 58.136 108.313C59.2381 109.742 59.5292 111.495 59.7715 113.247C60.3526 117.449 60.738 121.669 61.0874 125.895C61.2357 127.686 61.409 129.462 61.6447 131.24C61.8502 132.791 61.3333 132.715 60.0368 133.241C60.2997 131.848 54.1055 132.796 53.5207 132.891C52.8842 132.995 52.2103 132.996 51.7091 133.078C51.1486 133.17 50.6001 133.303 49.9546 133.284C49.0058 133.257 47.2293 133.013 46.8671 134.232C46.6178 132.819 44.971 134.364 46.1894 134.102C44.9388 134.242 43.6626 134.008 42.3969 134.127C40.9463 134.262 39.4832 134.391 38.0428 134.611C37.04 134.764 36.0831 135.152 35.0786 135.265C33.7932 135.41 32.4517 135.396 31.1538 135.511C26.3663 135.936 21.4042 136.987 16.7506 138.19C15.6964 138.463 14.4853 138.656 13.4782 139.094C13.2085 139.211 12.9659 139.473 12.7076 139.573C12.2746 139.741 12.3338 139.625 11.9492 139.702C9.64504 140.166 7.26801 140.923 4.96413 141.517C3.68622 141.846 1.60756 142.144 0.565151 143.041C0.0978729 143.443 -0.310487 144.156 0.43832 144.613C1.03649 144.978 1.89025 144.395 2.37436 144.08C1.94307 145.212 1.12966 145.775 1.56896 147.062C1.91579 148.079 2.69884 149.332 3.90361 148.676C4.06498 149.054 4.13028 149.805 4.6054 149.944C5.03233 150.068 5.34143 149.524 5.75966 149.652C5.90942 149.698 5.85254 149.983 5.98662 150.057C6.21765 150.185 6.45187 150.24 6.71657 150.33C6.94411 150.408 7.31039 150.567 7.5478 150.584C7.69843 150.595 8.05339 150.335 8.05223 150.335C8.39819 150.388 8.58423 151.054 8.83325 151.247C9.15657 151.497 9.42359 151.554 9.82846 151.644C10.6701 151.833 11.755 152.155 12.3106 151.288C12.1834 151.907 13.0202 151.846 13.3894 151.925C13.3484 151.599 13.1694 151.3 12.8931 151.121C13.7185 151.176 13.3838 152.001 13.9939 152.22C14.4287 152.375 14.3793 151.98 14.712 151.937C15.1502 151.879 15.4828 152.199 16.1672 151.904C16.3155 152.567 16.3698 153.236 17.1792 153.335C17.6544 153.393 18.7622 152.53 18.6995 153.248C19.7609 152.935 20.1637 153.147 20.7184 154.088C20.8121 153.51 21.2658 153.678 21.6819 153.642C22.3417 153.585 22.3585 153.639 22.8699 153.263C22.9166 153.229 23.3189 152.302 23.4977 152.878C23.5781 153.136 23.0466 153.743 22.8499 153.898C23.0942 154.022 23.895 154.458 24.2029 154.378C24.4694 154.309 24.4702 153.85 24.7904 153.827C24.712 154.09 24.6339 154.354 24.5553 154.617C25.1781 154.708 25.6985 154.289 26.1905 153.982C26.6595 155.175 28.0001 154.503 28.7291 155.401C29.1149 155.876 29.1329 156.237 29.8677 156.361C30.6197 156.488 31.2765 156.156 31.9156 156.78C31.713 156.393 31.2083 156.072 31.7099 155.656C32.0512 156.143 32.2273 156.73 32.6209 157.183C32.6752 156.953 32.7295 156.722 32.7837 156.492C33.8097 157.596 35.1012 157.606 36.4154 158.218V157.41C37.3564 158.855 37.4066 157.94 38.5307 157.35C38.4543 157.775 38.3777 158.2 38.3014 158.625C39.1103 158.563 39.866 159.528 40.5301 158.708C40.9312 159.385 41.4173 159.052 42.0747 159.267C42.4485 159.39 42.7269 159.76 43.0905 159.894C43.6359 160.095 43.7987 160.086 44.3121 160.261C44.7687 160.416 45.0282 160.718 45.5996 160.815C45.9708 160.879 46.3075 160.874 46.6628 160.857C46.8 160.85 46.7548 160.539 47.0598 160.612C47.5314 160.724 47.8826 161.319 48.2222 161.624C48.733 160.332 50.1633 162.063 50.8546 162.294C50.9208 161.962 50.9089 161.563 51.1472 161.291C51.427 161.908 51.5338 162.426 52.1145 162.823C52.4497 163.053 52.942 163.217 53.3292 163.301C53.5738 163.353 54.0185 163.29 54.1723 163.366C54.4347 163.495 54.5313 163.841 54.7963 163.873C54.9522 163.892 55.1832 163.48 55.2999 163.512C55.8339 163.658 56.1305 164.311 56.6698 164.664C58.2745 165.715 60.2939 165.817 62.0818 166.047C62.5305 166.105 62.5955 165.981 62.96 166.246C63.1545 166.388 63.0663 166.818 63.3054 166.939C64.2066 167.393 64.2072 166.424 64.3961 165.821C64.6942 166.217 64.7456 166.74 65.1533 167.054C65.3759 167.048 65.5988 167.053 65.8212 167.07C65.9465 167.214 66.029 167.38 66.0673 167.568C66.6071 167.935 67.2186 167.807 67.7762 168.083C67.959 168.173 68.2829 168.719 68.5082 168.876C68.9113 169.157 69.5347 169.307 69.9953 169.429C70.9612 169.685 72.3462 169.345 72.9209 170.36C73.6839 169.537 73.3887 170.519 73.9068 170.726C74.2127 170.848 74.6728 170.363 75.012 170.411C75.623 170.498 75.843 171.163 76.0386 171.647C76.4107 171.564 76.1553 170.505 76.1448 170.272C76.6072 170.217 76.7099 171.443 76.7897 171.712C77.5197 171.358 76.3216 170.257 77.1064 169.904C77.0344 170.842 77.7771 171.614 76.4507 171.749C76.6339 172.314 80.9119 172.941 81.2091 172.442C81.275 173.364 81.8903 172.503 82.1173 172.188C82.1428 172.725 81.9608 173.489 82.5605 173.739C82.968 173.908 83.8868 173.469 84.0468 173.067C84.2293 173.681 84.5352 173.661 84.9154 174.051C85.1767 174.319 85.3488 174.784 85.6227 175.008C86.1269 175.42 87.0646 175.357 87.6521 175.265C88.8014 175.085 88.6656 174.863 89.0751 176.065C89.1677 175.609 89.4579 174.655 89.9641 175.364C90.2862 175.815 89.6004 176.808 89.4022 177.204C89.8451 176.959 90.2848 176.669 90.7886 176.563C90.8168 176.72 90.8426 177.051 90.7683 177.196C90.7834 177.166 91.3209 177.529 91.5203 177.63C91.4724 177.605 91.6779 176.702 91.6721 176.732C92.3811 177.172 91.8892 178.014 92.5173 178.449C92.6795 178.561 93.0603 178.43 93.2565 178.498C93.5981 178.617 93.8936 178.94 94.1971 179.128C93.9548 178.801 93.9896 178.252 94.0062 177.874C94.1606 177.96 94.2709 178.281 94.4267 178.307C94.4856 178.316 95.0966 178.398 95.0925 178.395C95.7284 178.843 95.5975 178.899 95.0516 179.438C95.2466 179.746 96.0619 179.211 96.2825 179.121C96.3286 179.242 96.3405 179.68 96.4273 179.758C96.4799 179.888 96.5327 180.018 96.5855 180.147C96.7483 180.025 96.923 179.984 97.1094 180.025C97.2272 180.066 98.1469 180.443 98.2094 180.314C98.0082 180.249 97.8257 180.148 97.6626 180.013C98.1934 179.533 98.5425 179.277 99.0316 179.971C99.0931 180.058 98.8815 180.372 98.9442 180.486C99.1779 180.91 99.6579 181.247 99.9839 181.593C100.119 181.116 99.8048 179.921 100.554 179.965C101.153 179.999 101.608 181.459 101.401 181.913C101.639 181.651 103.06 181.391 103.328 181.473C104.087 181.704 103.874 182.409 104.807 181.376C105.443 181.817 104.882 181.985 104.997 182.523C105.165 182.559 105.324 182.517 105.475 182.398C105.362 184.687 107.041 182.938 108.13 183.288C108.558 183.425 108.668 183.914 109.127 184.056C109.37 184.132 109.64 183.953 109.876 183.997C110.065 183.97 110.254 183.936 110.44 183.896C110.677 183.777 110.788 183.91 110.774 184.297C111.155 184.495 111.011 184.573 111.456 184.612C111.743 184.637 112.007 184.336 112.332 184.388C112.895 184.476 112.82 184.911 113.18 185.138C113.503 185.342 113.868 185.335 114.266 185.296C114.469 185.276 115.038 185.013 115.107 185.012C115.532 185.006 115.302 184.915 115.812 185.282C116.21 185.569 116.377 185.755 116.865 185.887C117.425 186.038 118.418 186.368 118.795 185.961C119.304 186.729 119.702 186.165 120.374 186.216C120.717 186.242 120.772 186.377 121.078 186.431C121.574 186.518 122.192 186.443 122.719 186.613C123.55 186.882 123.644 187.016 124.493 187.053C124.647 186.992 124.8 186.932 124.953 186.872C124.999 187.129 125.119 187.339 125.314 187.502C125.79 187.602 126.102 187.361 126.493 187.096C126.785 188.011 127.733 188.092 128.543 188.212C129.85 188.406 131.101 188.512 132.362 188.945C133.426 189.31 134.493 189.72 135.518 190.187C136.419 190.599 137.27 191.214 138.29 190.925C140.6 190.271 142.84 187.884 144.773 186.513C147.063 184.89 149.533 183.552 151.925 182.093C161.451 176.282 171.514 171.367 180.906 165.341C186.034 162.051 190.792 158.142 196.298 155.48C195.514 158.739 194.18 162.049 194.421 165.461C194.518 166.837 194.921 168.461 195.98 169.421C197.291 170.608 198.75 169.853 200.004 169.005C202.689 167.188 204.48 164.536 206.49 162.047C208.867 159.102 210.711 155.937 212.457 152.581C212.875 153.172 212.557 154.161 212.563 154.816C212.571 155.652 212.795 156.458 213.18 157.204C214.175 159.13 216.067 159.597 217.777 158.277C221.068 155.738 222.977 151.215 224.74 147.573C225.746 149.456 227.173 151.826 229.589 150.481C231.581 149.372 232.752 146.892 233.362 144.792C235.141 138.663 234.577 132.419 234.851 126.135Z" fill="black"/>
<path fill-rule="evenodd" clip-rule="evenodd" d="M231.828 89.3161C231.601 88.7606 231.501 88.8515 231.919 88.3129C232.244 88.6356 231.984 88.9023 231.828 89.3161ZM241.899 122.936C241.26 121.108 241.655 119.122 241.267 117.247C241.089 116.387 240.807 115.552 240.706 114.676C240.661 114.287 240.317 112.538 240.551 112.262C239.83 111.823 239.828 111.498 239.661 110.637C239.918 110.362 239.886 110.128 239.564 109.934C239.354 109.678 239.144 109.422 238.934 109.166C239.853 109.619 239.309 108.461 239.215 107.793C239.141 107.266 239.091 106.716 238.916 106.21C238.701 105.589 238.223 105.274 239.218 105.274C238.891 104.9 238.401 104.513 238.238 104.054C238.003 103.394 238.39 102.521 237.912 101.938C237.645 101.612 236.27 101.485 236.512 100.782C236.634 100.424 237.192 100.692 237.364 100.441C238.042 99.4547 236.041 99.0461 235.943 98.6267C235.816 98.0829 236.538 97.9614 236.583 97.4529C236.626 96.9552 235.857 96.1375 235.654 95.6924C235.377 95.7601 235.073 96.2009 234.756 95.9903C234.696 95.9506 234.787 94.2277 234.715 93.999C234.644 93.7741 234.499 93.1777 234.447 93.0673C234.242 92.629 233.655 92.4155 233.562 91.8976C233.506 91.5886 234.709 91.1208 233.329 91.1062C233.825 90.2271 232.917 89.6929 232.586 88.9417C232.161 87.9759 231.911 86.9326 231.474 85.9618C231.05 85.0182 230.576 84.1227 229.964 83.2883C229.41 82.5327 229.171 81.8061 228.728 81.0082C228.639 80.9381 228.551 80.868 228.462 80.7979C228.093 80.8516 227.975 80.6825 228.107 80.2903C227.825 79.8694 227.615 79.4202 227.366 78.9807C227.077 78.4699 226.686 78.0534 226.387 77.5566C225.99 76.898 225.873 76.1553 225.425 75.4947C224.874 74.6819 224.254 73.9651 223.743 73.122C223.102 72.0656 222.393 71.409 221.588 70.591C221.204 70.2014 221.158 69.2282 220.688 68.675C220.177 68.0725 219.671 67.9093 219.317 67.1184C218.855 66.0894 218.178 65.5982 217.519 64.7089C216.975 63.9752 216.709 63.132 216.11 62.4223C215.595 61.8128 215.01 61.2558 214.46 60.6779C213.766 59.948 213.254 59.061 212.531 58.3671C212.635 58.4673 211.902 57.8825 211.939 57.9012C211.777 57.818 211.253 57.7511 211.329 57.7964C210.239 57.1512 208.872 54.7899 207.231 56.0411C206.367 56.6991 206.781 57.9059 207.384 58.5613C207.643 58.8428 208.988 60.2307 209.279 59.6454C209.593 60.0929 210.559 62.2559 211.362 61.6361C211.281 62.3753 211.706 62.13 211.987 62.6297C212.172 62.9594 212.082 63.1212 212.217 63.6358C212.587 65.0506 214.001 66.4323 214.754 67.666C216.629 70.7364 218.697 73.6485 220.573 76.7225C222.361 79.6521 224.364 82.432 226.08 85.4011C228.031 88.7773 230.462 91.9642 231.932 95.6039C231.982 95.7263 232.39 95.9199 232.491 96.1036C232.668 96.4228 232.63 96.9748 232.744 97.3364C233.138 98.5899 233.778 99.8239 234.506 100.862C235.145 101.773 235.192 103.011 235.631 104.08C236.251 105.586 236.907 107.076 237.509 108.59C238.447 110.946 239.082 113.204 239.73 115.664C240.15 117.258 240.484 118.851 240.618 120.497C240.741 122.011 240.771 123.588 241.328 125.021C241.708 124.431 242.155 123.667 241.899 122.936Z" fill="black"/>
<path fill-rule="evenodd" clip-rule="evenodd" d="M27.3763 155.373C26.7024 155.236 26.0683 155.053 25.9255 154.274C25.8277 154.641 25.7301 155.008 25.6323 155.376C26.4528 155.562 27.2736 155.75 28.0941 155.937C27.9025 155.597 27.7626 155.451 27.3763 155.373Z" fill="black"/>
<path fill-rule="evenodd" clip-rule="evenodd" d="M29.1853 27.5842C29.2364 27.3645 29.3025 27.1493 29.3841 26.9393C29.4395 27.144 29.7112 27.5868 29.553 27.7799C29.3516 28.0249 29.1478 27.8862 29.1853 27.5842ZM32.489 21.2587C32.7102 21.3569 33.1888 21.3759 33.4634 21.4588C32.7511 22.0753 32.6257 21.894 31.7048 21.8224C31.6639 21.1986 31.9158 21.0049 32.489 21.2587ZM26.3154 36.7023C26.4109 36.7049 26.5067 36.7073 26.6028 36.7096C26.6086 36.438 26.6016 36.1667 26.5813 35.8956C27.5524 36.1091 27.0027 34.4014 26.6977 34.0475C27.645 34.0793 28.1065 31.0612 28.4066 30.4797C28.673 29.9633 28.9749 29.7635 29.1696 29.1338C29.34 28.5827 29.5243 28.0868 29.7701 27.5655C30.3349 26.3669 31.0759 25.2784 30.9392 23.8814C31.4178 24.9296 31.8386 23.8832 32.1422 23.382C32.6313 22.5745 33.8244 21.5441 33.9512 20.585C34.0633 19.7406 33.4398 19.6959 33.8079 18.9129C34.1799 18.1203 34.4859 18.1997 35.1377 17.9462C35.5713 17.7774 35.6575 17.9824 35.9634 17.4316C36.1617 17.075 36.0917 16.8092 36.3457 16.5168C36.4505 16.6086 36.5697 16.6465 36.7032 16.6307C36.9093 16.3571 37.0446 16.0522 37.1087 15.716C37.2767 15.2622 37.358 14.8454 37.6111 14.4131C37.8511 14.0037 38.2772 12.9081 38.503 12.7107C38.7427 12.501 40.1025 12.6076 40.0967 12.6152C40.6583 11.9043 39.6277 11.1961 41.0547 11.3459C40.7729 10.8178 41.7629 10.1625 42.0502 9.86865C42.768 9.13528 42.8252 8.79591 42.9767 7.87358C43.0536 7.40336 42.5515 7.45769 43.2245 7.3505C43.5029 7.3064 43.7699 7.66447 43.9707 7.6119C44.8574 7.38059 43.9298 7.42469 44.1745 7.06107C44.2517 6.94571 44.6461 6.48016 44.6423 6.48513C44.6232 6.50849 44.7311 6.08004 44.8205 5.96993C44.99 5.95533 45.1569 5.92554 45.3209 5.88056C45.4042 5.71117 45.4779 5.53768 45.5418 5.36011C46.1835 4.82155 47.1436 4.5806 47.5873 3.98889C47.8744 3.60629 47.7885 3.23158 48.1594 2.85015C48.5126 2.48682 48.9799 2.74997 49.0498 1.92928C49.1389 0.885164 48.0244 0.420497 47.5685 1.47425C46.3321 -0.0581903 41.1642 5.56426 40.5671 6.29879C37.9739 9.48751 35.4251 12.7551 33.2979 16.2812C31.2254 19.7169 29.5243 23.3321 28.1947 27.1216C27.5536 28.9487 27.1632 30.7676 26.7717 32.6576C26.6402 33.2905 25.6578 36.1109 26.0667 36.742C26.1494 36.7289 26.2324 36.7154 26.3154 36.7023Z" fill="black"/>
<path fill-rule="evenodd" clip-rule="evenodd" d="M230.438 114.899C230.875 114.605 230.875 114.605 230.952 114.051C230.366 114.159 230.366 114.159 230.438 114.899Z" fill="black"/>
<path fill-rule="evenodd" clip-rule="evenodd" d="M15.1317 152.172C15.1371 152.172 15.141 152.173 15.1442 152.176C15.1351 152.165 15.1021 152.13 15.1317 152.172Z" fill="black"/>
<path fill-rule="evenodd" clip-rule="evenodd" d="M14.8384 152.47C14.9734 152.763 15.1902 152.836 15.4891 152.688C15.607 152.858 14.4669 151.631 14.8384 152.47Z" fill="black"/>
<path fill-rule="evenodd" clip-rule="evenodd" d="M34.5531 18.5032C33.869 19.8528 34.7258 18.8712 34.6819 19.3096C34.7107 19.0216 34.8294 18.6112 34.5531 18.5032Z" fill="black"/>
<path fill-rule="evenodd" clip-rule="evenodd" d="M145.768 39.3915C146.065 41.8115 149.355 40.6669 150.095 39.2031C150.634 38.1374 151.995 33.9262 150.53 33.0366C149.445 32.3771 149.213 35.2194 148.945 35.8543C148.497 36.9177 148.147 36.1642 147.15 36.437C146.049 36.7381 145.646 38.388 145.768 39.3915Z" fill="black"/>
<path fill-rule="evenodd" clip-rule="evenodd" d="M142.174 34.9621C143.35 35.225 144.503 35.0895 145.338 34.1549C145.801 33.6374 146.416 32.6108 145.583 32.1099C144.828 31.6563 143.973 32.7185 143.178 32.4989C142.096 32.2001 142.653 31.0336 142.282 30.2632C140.919 31.0529 140.159 34.5118 142.174 34.9621Z" fill="black"/>
<path fill-rule="evenodd" clip-rule="evenodd" d="M143.393 41.073C142.259 41.0707 142.25 42.4737 142.842 43.0751C143.408 43.6504 144.84 44.2328 145.608 43.7854C147.122 42.9022 144.311 41.1641 143.393 41.073Z" fill="black"/>
<path fill-rule="evenodd" clip-rule="evenodd" d="M77.4313 96.8673C77.6734 96.9856 78.3868 97.5943 78.6875 97.3194C78.2631 96.8892 77.8385 96.459 77.4142 96.0288C77.1797 96.2876 77.0189 96.6658 77.4313 96.8673Z" fill="black"/>
<path fill-rule="evenodd" clip-rule="evenodd" d="M72.074 35.3125C71.9536 35.403 71.8328 35.4933 71.7124 35.5835C72.119 35.9244 72.1089 36.0257 72.5187 35.703C72.3971 35.5418 72.249 35.4118 72.074 35.3125Z" fill="black"/>
<path fill-rule="evenodd" clip-rule="evenodd" d="M148.908 115.604C148.68 115.192 148.25 115.952 147.959 116.075C147.485 116.276 147.096 115.213 147.232 116.487C146.162 115.994 145.512 117.126 144.821 117.715C143.846 118.548 142.653 119 142.002 120.183C145.065 120.904 148.43 118.247 150.714 116.501C151.087 116.216 152.949 114.778 151.687 114.639C151.17 114.583 149.291 116.296 148.908 115.604Z" fill="black"/>
<path fill-rule="evenodd" clip-rule="evenodd" d="M148 113.109C148.6 112.633 147.306 112.59 147.101 112.54C147.119 112.918 147.136 113.296 147.154 113.674C147.443 113.498 147.725 113.309 148 113.109Z" fill="black"/>
<path fill-rule="evenodd" clip-rule="evenodd" d="M145.746 114.695C145.925 114.582 146.425 114.231 146.085 113.968C145.778 114.165 145.558 114.486 145.51 114.853C145.588 114.8 145.667 114.748 145.746 114.695Z" fill="black"/>
<path fill-rule="evenodd" clip-rule="evenodd" d="M96.1412 84.0266C95.7578 84.1779 95.586 84.4171 95.6264 84.7448C96.2155 84.6236 96.1032 84.0637 96.1412 84.0266Z" fill="black"/>
</svg>
