<svg width="24" height="24" viewBox="0 0 24 24" fill="none" xmlns="http://www.w3.org/2000/svg">
<g clip-path="url(#clip0_2138_10)">
<mask id="mask0_2138_10" style="mask-type:alpha" maskUnits="userSpaceOnUse" x="0" y="0" width="24" height="24">
<rect width="24" height="24" fill="#D9D9D9"/>
</mask>
<g mask="url(#mask0_2138_10)">
<path d="M4.96289 20.93C4.67956 20.93 4.44206 20.8342 4.25039 20.6425C4.05872 20.4508 3.96289 20.2133 3.96289 19.93V18.93C3.12956 18.93 2.42122 18.6383 1.83789 18.055C1.25456 17.4717 0.962891 16.7633 0.962891 15.93V10.93C0.962891 10.0967 1.25456 9.38833 1.83789 8.80499C2.42122 8.22166 3.12956 7.92999 3.96289 7.92999V5.92999C3.96289 5.09666 4.25456 4.38833 4.83789 3.80499C5.42122 3.22166 6.12956 2.92999 6.96289 2.92999H16.9629C17.7962 2.92999 18.5046 3.22166 19.0879 3.80499C19.6712 4.38833 19.9629 5.09666 19.9629 5.92999V7.92999C20.7962 7.92999 21.5046 8.22166 22.0879 8.80499C22.6712 9.38833 22.9629 10.0967 22.9629 10.93V15.93C22.9629 16.7633 22.6712 17.4717 22.0879 18.055C21.5046 18.6383 20.7962 18.93 19.9629 18.93V19.93C19.9629 20.2133 19.8671 20.4508 19.6754 20.6425C19.4837 20.8342 19.2462 20.93 18.9629 20.93C18.6796 20.93 18.4421 20.8342 18.2504 20.6425C18.0587 20.4508 17.9629 20.2133 17.9629 19.93V18.93H5.96289V19.93C5.96289 20.2133 5.86706 20.4508 5.67539 20.6425C5.48372 20.8342 5.24622 20.93 4.96289 20.93ZM3.96289 16.93H19.9629C20.2462 16.93 20.4837 16.8342 20.6754 16.6425C20.8671 16.4508 20.9629 16.2133 20.9629 15.93V10.93C20.9629 10.6467 20.8671 10.4092 20.6754 10.2175C20.4837 10.0258 20.2462 9.92999 19.9629 9.92999C19.6796 9.92999 19.4421 10.0258 19.2504 10.2175C19.0587 10.4092 18.9629 10.6467 18.9629 10.93V14.93H4.96289V10.93C4.96289 10.6467 4.86706 10.4092 4.67539 10.2175C4.48372 10.0258 4.24622 9.92999 3.96289 9.92999C3.67956 9.92999 3.44206 10.0258 3.25039 10.2175C3.05872 10.4092 2.96289 10.6467 2.96289 10.93V15.93C2.96289 16.2133 3.05872 16.4508 3.25039 16.6425C3.44206 16.8342 3.67956 16.93 3.96289 16.93ZM6.96289 12.93H16.9629V10.93C16.9629 10.48 17.0546 10.0717 17.2379 9.70499C17.4212 9.33833 17.6629 9.01333 17.9629 8.72999V5.92999C17.9629 5.64666 17.8671 5.40916 17.6754 5.21749C17.4837 5.02583 17.2462 4.92999 16.9629 4.92999H6.96289C6.67956 4.92999 6.44206 5.02583 6.25039 5.21749C6.05872 5.40916 5.96289 5.64666 5.96289 5.92999V8.72999C6.26289 9.01333 6.50456 9.33833 6.68789 9.70499C6.87122 10.0717 6.96289 10.48 6.96289 10.93V12.93Z" fill="#1C1B1F"/>
</g>
</g>
<defs>
<clipPath id="clip0_2138_10">
<rect width="24" height="24" fill="white"/>
</clipPath>
</defs>
</svg>
