<svg width="431" height="340" viewBox="0 0 431 340" fill="none" xmlns="http://www.w3.org/2000/svg">
<ellipse cx="213.5" cy="152.5" rx="151.5" ry="152.5" fill="#FF5678"/>
<path fill-rule="evenodd" clip-rule="evenodd" d="M147.314 165.392C148.636 178.767 149.958 192.141 151.279 205.515C158.474 201.4 165.669 197.285 172.864 193.17V223.638V231.647C172.864 232.356 172.445 234.79 172.864 235.404C173.22 235.924 175.857 235.939 176.48 236.027C180.548 236.598 184.626 237.105 188.71 237.557C199.473 238.749 210.992 240.456 221.796 239.087C231.187 237.897 240.291 234.549 248.871 230.653C251.884 229.285 254.854 227.821 257.769 226.257C258.387 225.925 260.631 225.142 260.967 224.467C261.241 223.916 260.597 221.978 260.511 221.398C260.149 218.954 259.786 216.51 259.424 214.067L254.36 179.942L263.926 189.517C264.675 190.267 266.098 192.396 267.135 192.729C267.895 192.973 269.778 192.218 270.53 192.073C275.946 191.027 281.362 189.98 286.779 188.935C288.041 188.691 290.885 188.7 291.948 187.936C292.521 187.524 292.548 186.687 292.75 185.893C294.071 180.705 295.392 175.518 296.713 170.331C296.951 169.397 298.279 166.451 297.941 165.51C297.82 165.172 297.234 164.942 296.876 164.722C288.701 159.717 280.526 154.712 272.351 149.708C267.873 146.966 263.394 144.225 258.916 141.483C257.041 140.335 254.736 138.265 252.611 137.623C251.291 137.224 249.371 137.523 248.006 137.484C245.231 137.404 242.457 137.325 239.682 137.246C239.248 137.233 237.726 136.923 237.36 137.179C237.056 137.393 237.182 137.69 237.082 138.199C236.838 139.442 236.837 140.782 236.716 142.043C236.62 143.055 236.811 144.911 236.356 145.828C236.066 146.413 236.434 146.18 236.041 146.463C235.573 146.8 234.078 146.692 233.52 146.756C230.801 147.073 228.082 147.39 225.363 147.706C222.131 148.082 218.862 148.789 215.614 148.463C210.691 147.971 205.382 147.995 200.547 146.955C199.291 146.685 198.838 145.975 197.869 145.006C195.977 143.112 194.105 141.197 192.192 139.324C191.255 138.406 191.657 138.561 190.69 138.909C189.479 139.346 188.251 140.399 187.155 141.068C182.956 143.632 178.756 146.196 174.557 148.759L148.919 164.413C148.384 164.739 147.849 165.066 147.314 165.392Z" fill="#FFB661"/>
<path fill-rule="evenodd" clip-rule="evenodd" d="M392.536 167.055C387.251 187.166 376.622 209.095 355.207 215.505C350.001 217.064 344.936 218.24 339.528 217.647C339.014 217.59 338.583 217.663 338.094 217.672C337.216 217.689 337.974 218.004 336.99 217.7C336.223 217.463 335.505 216.869 334.706 216.607C332.581 215.91 330.316 215.775 328.156 215.212C322.85 213.828 317.381 212.12 312.239 210.212C309.818 209.314 307.593 208.062 305.316 206.859C303.001 205.636 300.548 204.876 298.207 203.754C296.356 202.867 293.187 201.711 291.886 200.048C290.5 198.274 292.418 194.498 292.967 192.612C294.832 186.196 297.053 179.873 298.455 173.329C303.295 178.951 310.014 182.433 316.969 184.679C320.742 185.898 324.624 186.779 328.549 187.33C332.113 187.831 335.957 188.436 339.53 187.726C342.226 187.189 345.611 185.947 347.537 183.884C348.225 183.147 349.049 181.797 348.664 180.727C348.175 179.369 346.751 180.009 345.98 178.995C345.309 178.112 345.414 176.048 345.2 174.973C344.821 173.07 344.301 171.22 343.666 169.388C342.434 165.832 340.899 162.268 340.531 158.484C340.211 155.201 340.957 152.097 342.591 149.249C343.363 147.902 345.302 144.239 347.194 144.391C349.272 144.558 346.47 153.336 346.378 155.127C346.015 162.226 346.965 169.789 350.599 176.011C351.991 178.394 354.003 181.167 356.974 181.463C360.121 181.775 362.659 179.293 364.157 176.782C367.812 170.656 365.969 162.25 364.118 155.83C361.848 147.952 355.921 142.522 352.174 135.448C357.769 136.011 360.765 139.574 363.636 144.093C366.797 149.069 369.258 155.042 370.471 160.832C371.084 163.757 370.661 166.694 370.665 169.648C370.666 170.629 370.666 174.25 372.262 174.107C373.968 173.955 374.553 169.872 374.804 168.626C375.379 165.769 376.001 162.912 376.5 160.041C377.384 154.961 377.777 149.758 378.836 144.714C379.015 143.861 379.371 141.495 380.644 142.134C381.626 142.626 381.468 146.285 381.505 147.136C381.593 149.231 381.717 151.327 381.734 153.425C381.759 156.535 381.14 159.754 381.444 162.845C381.642 164.864 382.723 167.095 384.064 164.372C385.393 161.671 385.664 158.303 386.405 155.398C387.184 152.348 387.988 149.253 389.64 146.545C390.098 145.794 390.591 144.601 391.61 144.954C392.35 145.211 392.897 146.97 393.126 147.59C394.158 150.395 393.983 153.514 393.918 156.45C393.838 160.048 393.453 163.566 392.536 167.055ZM289.479 172.274C289.197 172.182 287.997 172.068 287.7 172.042C287.351 172.012 287.747 171.368 286.903 171.551C287.066 171.956 287.355 172.226 287.771 172.361C286.502 172.792 285.566 171.729 284.698 171.592C283.868 171.461 283.833 171.592 283.013 172.471C282.126 171.386 282.292 172.063 281.562 172.063C281.297 172.063 281.285 172.465 280.853 172.417C280.475 172.375 280.436 171.801 280.213 171.734C279.001 171.366 277.756 173.215 276.382 171.612C276.049 173.28 272.236 171.19 270.768 171.483C269.23 171.79 269.894 172.343 268.651 171.398C267.466 170.498 267.797 171.096 266.419 171.833C266.451 171.815 265.641 172.363 265.717 172.372C264.763 172.26 264.817 171.272 263.61 171.325C262.331 171.38 261.785 172.385 260.615 171.149C260.361 172.074 260.309 171.676 259.709 171.909C259.379 171.987 259.091 171.901 258.843 171.649C258.768 171.903 258.604 172.059 258.349 172.117C257.696 172.175 256.47 172.266 255.877 171.951C254.988 171.478 255.703 171.296 255.086 170.764C254.809 172.231 254.203 171.92 252.924 172.056C251.949 172.161 251.734 171.861 250.803 171.715C249.885 171.572 248.699 171.929 247.804 172.081C247.434 172.144 246.94 172.402 246.564 172.311C246.225 172.23 246.08 171.966 245.877 171.897C245.631 171.814 245.684 171.598 245.259 171.494C244.966 171.423 244.441 171.698 244.149 171.745C242.062 172.085 240.058 172.088 238.068 171.266C239.048 172.992 235.776 172.06 235.193 171.345C234.464 172.49 233.582 171.682 232.113 171.771C230.697 171.857 228.569 172.292 227.995 170.525C227.883 170.884 227.08 171.926 226.76 172.085C225.833 172.546 225.722 171.864 224.86 171.587C223.686 171.209 223.931 171.926 223.203 172.072C221.974 172.319 221.31 171.451 220.224 170.99C220.178 171.707 220.154 172.148 219.536 172.594C218.988 170.596 217.034 172.758 217.37 170.087C216.626 170.572 215.58 170.945 215.368 171.926C216.612 171.583 215.501 172.398 215.449 172.425C215.285 172.511 214.729 171.73 214.601 171.62C214.565 171.988 214.53 172.357 214.495 172.725C214 172.477 213.535 172.033 213.133 171.81C212.771 171.609 213.29 171.192 212.678 171.163C212.355 171.147 212.018 171.848 211.68 171.908C211.162 171.998 211.411 171.254 211.194 171.279C210.864 171.317 210.326 171.801 210.077 171.792C209.259 171.761 209.812 171.38 209.188 171.204C208.072 170.891 208.144 171.623 207.341 171.887C205.506 172.491 205.69 169.711 203.823 171.565C203.376 172.009 203.089 172.694 202.477 172.655C201.209 172.576 201.654 171.07 201.912 170.332C202.178 170.464 197.282 172.985 197.32 172.886C197.351 172.282 198.121 171.816 197.433 171.279C196.87 172.489 196.278 172.51 194.98 172.735C194.349 172.845 194.225 172.992 193.55 172.728C193.12 172.562 192.831 171.874 192.403 171.836C192.461 171.841 191.676 172.44 191.556 172.494C190.848 172.814 190.4 172.451 189.712 172.583C189.124 172.695 188.893 173.195 188.31 173.058C187.531 172.875 187.988 171.943 186.916 172.203C186.549 172.292 186.329 173 185.752 173.146C184.852 173.375 183.748 172.948 182.797 173.171C182.042 173.348 181.482 173.422 180.821 173.459C180.288 173.489 180.507 173.073 179.525 173.564L179.109 172.512C178.618 172.955 178.126 173.398 177.634 173.841C177.541 173.444 177.482 173.042 177.457 172.634C176.724 173.37 175.801 173.496 174.815 173.562C173.748 173.634 172.953 173.867 171.915 174.063C171.586 174.124 170.741 174.223 170.471 174.108C170.511 174.125 169.966 173.898 170.13 173.941C170.059 173.796 169.994 173.65 169.933 173.5C169.841 173.085 169.543 173.067 169.04 173.445C168.78 173.405 168.274 173.063 168.015 173.147C167.345 173.365 167.436 173.885 166.769 173.809C166.336 173.759 166.115 173.118 165.664 173.075C164.974 173.008 164.376 173.782 163.754 173.951C165.645 173.437 161.303 173.836 162.653 173.871C161.768 173.848 160.849 173.804 160.031 174.201C159.579 173.892 160.128 173.269 159.671 173.013C159.257 172.781 159.225 173.394 159.177 173.408C159.438 173.334 159.308 173.856 159.046 173.949C158.232 174.238 157.58 173.502 157.538 172.773C156.846 173.817 156.651 173.397 155.634 173.461C154.63 173.525 153.764 174.053 152.76 174.043C150.773 174.024 149.426 173.332 148.763 171.555C150.879 171.813 153.009 170.449 155.079 170.77C155.759 170.876 156.184 171.388 156.78 171.297C157.514 171.185 158.026 170.382 158.968 170.296C161.044 170.105 163.091 170.291 165.182 169.972C167.679 169.59 170.285 169.365 172.806 169.55C174.754 169.694 176.332 168.947 178.307 168.804C180.862 168.617 183.437 168.584 185.996 168.45C188.625 168.311 191.455 167.891 194.076 168.026C194.895 168.067 195.6 168.148 196.412 168.099C196.755 168.078 197.081 167.844 197.441 167.879C197.911 167.925 198.112 168.407 198.599 168.39C199.427 168.361 200.312 167.678 201.295 167.659C202.913 167.629 204.523 167.632 206.145 167.54C207.572 167.459 209.102 167.124 210.523 167.143C211.526 167.155 211.773 168.011 212.358 168.1C213.408 168.258 218.722 165.227 219.182 167.948C221.948 166.05 225.658 167.657 228.738 167.3C232.694 166.842 236.723 167.251 240.706 167.087C244.759 166.922 248.928 167.075 252.965 167.458C254.637 167.617 256.253 167.766 257.93 167.67C258.677 167.627 259.541 167.435 260.289 167.608C260.47 167.65 261.856 168.62 261.684 168.647C262.441 167.966 261.929 167.867 263.261 167.832C264.288 167.805 265.259 168.027 266.28 168.087C268.113 168.196 269.96 167.942 271.789 167.998C273.316 168.045 274.808 168.27 276.344 168.281C277.998 168.293 279.952 168.34 281.149 169.677C281.023 169.257 280.897 168.838 280.77 168.418C282.617 168.563 284.442 169.223 286.309 168.914C285.837 169.368 285.357 169.738 285.177 170.403C286.184 170.275 286.866 169.571 287.925 169.565C288.816 169.56 289.001 170.008 289.941 169.429C290.057 170.138 290.173 170.847 290.288 171.555C291.59 171.248 290.736 170.275 290.831 169.398C291.889 169.716 292.785 169.351 292.368 170.876C292.046 172.052 290.581 172.632 289.479 172.274ZM287.65 185.376C287.196 186.654 283.269 185.924 282.341 185.788C281.141 185.614 279.769 185.338 278.664 185.201C278.532 185.024 278.373 184.874 278.188 184.75C278.049 184.944 277.873 185.082 277.66 185.163C277.153 185.274 277.151 185.799 276.485 185.683C276.454 186.459 276.992 186.018 277.405 186.3C276.365 186.998 276.841 186.195 276.258 186.207C276.113 186.002 275.912 185.921 275.654 185.965C275.325 186.051 275.023 186.192 274.746 186.388C274.486 186.663 274.263 186.677 274.078 186.431C273.901 186.252 273.684 186.142 273.428 186.1C272.405 186.267 272.119 186.722 270.966 186.648C269.319 186.541 267.537 186.976 265.916 186.747C264.911 186.605 263.232 185.023 262.776 186.565C262.081 185.422 260.975 184.644 260.31 183.476C263.408 183.296 266.505 183.082 269.606 182.97C272.321 182.872 275.29 183.179 277.827 183.05C280.204 182.93 282.721 182.667 285.147 182.45C287.719 182.219 288.57 182.784 287.65 185.376ZM206.827 185.564C207.952 185.876 209.023 185.169 210.114 185.393C210.475 185.466 211.221 186.124 211.385 186.138C211.686 186.162 212.569 185.515 212.948 185.429C215.344 184.882 218.247 184.94 220.643 185.276C221.912 185.454 222.107 184.872 223.215 184.589C224.367 184.294 226.004 184.521 227.217 184.44C230.07 184.248 232.922 184.385 235.756 184.175C238.665 183.961 241.56 183.845 244.471 183.694C246.453 183.592 251.218 182.459 252.861 183.934C254.216 185.15 252.471 187.262 251.115 187.744C250.101 188.104 249.616 187.346 248.863 187.418C248.007 187.501 248.305 188.515 247.541 187.574C247.067 188.51 244.088 188.111 243.234 188.173C241.374 188.308 239.8 188.682 238.533 186.942C238.619 187.444 238.705 187.946 238.791 188.447C237.112 187.548 235.31 187.836 233.852 188.149C233.13 188.305 230.915 189.378 230.133 188.915C229.595 188.597 230.543 188.052 229.635 187.781C229.16 187.638 228.338 188.43 227.757 188.39C226.148 188.279 226.605 187.195 225.025 188.575C224.489 188.111 224.311 187.322 224.382 186.646C223.234 187.627 223.33 189.263 221.278 188.963C220.513 188.852 220.372 188.07 219.974 187.926C219.124 187.618 219.028 188.171 218.292 188.608C218.015 188.773 217.676 189.039 217.349 189.072C216.677 189.139 216.57 188.83 216.478 188.84C216.031 188.889 215.468 189.117 214.938 188.954C214.462 188.808 214.322 187.966 213.484 188.163C212.681 188.352 212.675 188.898 212.82 189.716C212.029 189.634 211.55 189.192 210.958 188.714C210.36 190.111 209.102 188.954 208.405 190.133C207.499 189.048 206.917 189.346 205.792 188.287C205.848 188.729 205.903 189.171 205.957 189.613C205.08 189.444 204.689 188.823 203.94 189.644C203.213 188.287 201.009 190.221 199.877 188.91C199.373 190.57 196.034 190.173 194.624 190.202C193.374 190.228 192.449 190.125 191.228 190.416C190.149 190.673 188.654 190.939 187.639 190.822C186.976 190.745 186.251 190.623 185.425 190.713C184.234 190.842 183.206 191.46 181.972 191.168C180.115 190.728 178.976 188.282 181.045 187.208C182.461 186.473 185.011 186.745 186.57 186.61C189.152 186.385 192.046 185.914 194.632 186.127C196.648 186.295 198.487 185.813 200.545 185.609C202.094 185.455 204.633 185.179 205.644 186.718C206.032 186.269 205.992 185.333 206.827 185.564ZM178.558 206.631C178.281 205.247 190.087 204.484 191.258 204.394C193.719 204.204 196.185 204.068 198.652 204.006C200.679 203.954 202.571 204.342 204.598 204.03C206.492 203.739 208.777 203.142 210.425 204.486C210.668 202.648 217.774 203.543 219.126 203.548C225.012 203.569 230.643 203.583 236.336 203.218C239.589 203.009 243.044 202.728 246.298 202.891C247.766 202.965 248.948 203.357 250.407 203.017C251.359 202.795 252.385 202.333 253.296 202.986C254.361 203.75 254.816 206.345 254.082 207.428C253.548 208.217 253.074 208.129 252.22 207.993C250.907 207.784 249.932 207.479 248.593 208.014C248.81 207.927 247.696 208.176 247.788 208.169C246.272 208.283 244.191 209.344 242.885 208.121C243.408 208.213 244.169 207.276 243.509 207.198C243.013 207.141 242.699 207.673 242.312 207.852C240.989 208.462 240.312 208.271 239.522 206.991C237.928 208.374 237.756 207.991 237.057 206.289C236.518 206.704 236.402 207.688 235.978 208.01C235.915 208.059 236.176 208.656 235.87 208.632C235.586 208.608 235.493 208.142 235.275 208.105C235.135 208.081 235.063 207.672 234.929 207.647C234.784 207.62 234.636 207.881 234.472 207.874C234.034 207.853 232.782 208.787 233.231 207.476C232.567 208.322 232.282 207.783 232.042 207.013C231.276 207.597 230.511 208.181 229.744 208.764C229.388 207.771 228.775 208.042 228.004 208.388C228.236 207.699 228.09 207.047 227.507 207.526C227.17 207.804 226.943 208.685 226.598 209.059C225.199 207.639 224.69 208.029 222.758 208.213C222.021 208.283 221.104 208.42 220.445 207.973C219.866 207.581 219.538 206.141 218.547 207.304C218.768 207.046 218.422 209.034 218.361 209.349C217.924 209.054 217.553 208.691 217.248 208.261C216.678 209.392 215.181 208.377 213.955 208.608C212.024 208.972 210.033 209.585 208.328 208.145C208.207 208.61 206.81 209.202 206.808 209.22C206.891 208.396 207.409 208.686 206.351 208.53C206.156 208.501 205.935 208.852 205.751 208.891C205.12 209.021 204.383 208.897 203.747 208.879C201.102 208.803 198.681 209.39 196.068 209.603C195.188 209.675 194.143 209.816 193.317 209.483C192.465 209.14 192.488 208.75 191.627 208.972C191.899 208.901 191.088 209.756 191.132 209.723C191.016 209.808 190.533 209.391 190.362 209.423C190.311 209.605 190.261 209.787 190.211 209.969C190.003 209.943 189.796 209.917 189.588 209.892C189.02 209.968 188.508 209.392 187.974 209.373C188.072 209.376 186.534 209.95 186.604 209.985C185.53 209.448 185.839 209.604 184.476 209.931C183.188 210.24 181.906 210.168 180.585 210.36C176.742 210.92 179.031 208.989 178.558 206.631ZM175.164 225.89C174.441 224.863 176.364 224.507 176.979 224.417C177.988 224.267 179.329 224.564 180.002 224.404C181.026 224.159 182.016 223.576 183.17 223.418C184.626 223.218 186.094 223.186 187.556 223.061C188.043 223.019 188.646 222.851 189.12 222.879C189.826 222.922 190.119 223.296 190.689 223.298C191.659 223.303 192.857 222.689 193.851 222.577C195.125 222.431 196.411 222.364 197.691 222.3C200.388 222.166 203.057 222.222 205.753 222.219C206.982 222.217 210.256 220.938 210.869 222.372C211.721 221.286 213.907 221.434 215.125 221.402C217.272 221.347 219.396 221.139 221.541 221.039C223.378 220.954 225.429 221.348 227.233 221.072C228.227 220.92 228.556 220.601 229.683 220.745C230.521 220.851 231.797 220.408 232.516 220.604C232.479 220.594 233.413 221.174 233.121 221.192C233.443 221.171 233.424 221.397 233.778 221.296C234.242 221.165 234.029 220.579 234.992 220.371C236.495 220.046 238.499 220.422 240.06 220.339C241.574 220.258 243.087 220.223 244.603 220.23C245.301 220.233 246.164 220.066 246.843 220.203C247.175 220.269 247.882 220.704 248.164 220.661C248.963 220.536 249.37 219.98 250.45 220.014C251.675 220.053 252.777 220.036 253.994 219.942C255.173 219.852 255.362 219.683 255.946 220.666C256.525 221.642 256.685 222.912 255.619 223.574C256.312 223.529 257.163 224.458 256.347 224.972C255.843 225.29 254.832 224.573 254.229 224.624C253.485 224.688 252.901 225.083 252.092 225.107C251.241 225.133 250.377 225.348 249.538 225.364C248.664 225.381 248.003 224.99 247.174 225.156C246.445 225.304 246.368 225.903 245.489 225.377C245.053 225.115 244.979 224.145 244.383 224.136C243.585 224.124 243.904 225.157 243.445 225.636C243.321 224.158 242.183 226.603 241.731 224.81C241.314 225.405 239.77 226.238 239.021 225.76C238.339 225.324 238.566 224.337 238.282 223.626C237.809 224.904 236.54 226.23 236.655 223.903C236.038 224.663 234.373 224.543 234.79 225.874C234.288 225.864 234.169 225.146 233.747 225.091C233.382 225.045 233.092 225.326 233.036 225.321C233.236 225.338 232.439 225.604 232.427 225.606C232.967 225.497 230.87 225.309 231.227 225.312C230.74 225.309 230.144 225.708 229.575 225.706C229.057 225.705 228.542 225.501 228.03 225.442C226.704 225.29 226.98 225.582 226.147 226C225.838 226.154 225.761 226.416 225.323 226.384C224.999 226.36 224.879 225.937 224.842 225.933C224.387 225.887 224.723 225.734 224.017 225.805C223.936 225.945 223.856 226.084 223.775 226.224C223.52 226.551 223.189 226.632 222.783 226.469C221.739 226.694 218.275 227.667 218.614 225.865C218.083 226.125 217.552 226.385 217.022 226.645C216.794 225.192 213.91 227.118 213.266 227.216C212.439 227.34 212.363 227.022 211.582 226.853C211.441 226.823 211.159 227.288 210.829 227.221C209.971 227.049 209.818 226.963 209.671 226.03C209.06 227.175 208.552 226.663 207.444 226.851C207.198 226.893 207.042 227.377 206.689 227.294C206.436 227.234 206.429 226.769 206.254 226.708C206.096 226.654 206.12 226.287 205.888 226.235C205.622 226.175 204.715 226.921 204.455 227.036C203.868 227.295 202.904 227.724 202.331 227.595C201.623 227.437 201.938 226.91 200.937 226.97C199.359 227.062 198.7 228.409 197.718 226.287C197.274 227.137 197.331 227.368 196.619 227.648C196.092 227.855 194.76 227.639 194.067 227.613C191.109 227.504 188.2 228.514 185.266 228.25C183.976 228.134 182.888 227.875 181.587 228.086C180.22 228.309 178.882 228.636 177.495 228.768C176.789 228.834 175.315 229.038 174.969 228.134C174.665 227.338 175.801 226.795 175.164 225.89ZM180.967 258.517C177.129 261.09 173.951 264.604 170.427 267.58C166.894 270.563 164.091 273.879 160.914 277.182C157.976 280.236 155.278 283.125 151.726 285.433C149.479 286.893 147.474 288.69 145.166 290.068C143.437 291.099 140.818 292.456 141.661 289.301C142.526 286.068 144.122 282.801 145.508 279.782C147.479 275.49 149.464 271.238 151.596 267.028C152.397 265.446 152.846 263.871 154.116 262.612C155.499 261.24 156.467 259.45 157.981 258.154C164.35 252.704 173.948 256.914 180.967 258.517ZM193.005 260.365C191.264 261.279 189.316 261.506 187.471 262.111C185.899 262.626 184.437 263.542 182.746 263.61C184.285 262.452 185.607 260.878 187.343 259.999C189.295 259.01 191.066 259.73 193.005 260.365ZM269.411 267.987C263.008 265.821 257.047 262.631 250.81 260.062C249.733 259.619 241.314 256.84 241.485 255.517C247.385 254.434 253.461 252.574 259.376 254.602C264.756 256.446 269.132 260.869 273.297 264.571C274.384 265.537 281.105 269.936 280.504 271.337C280.087 272.308 276.849 272.043 276.084 271.844C275.096 271.587 274.527 270.985 273.752 270.325C272.457 269.222 271.024 268.532 269.411 267.987ZM257.591 231.808C258.563 230.911 259.146 229.55 260.075 228.722C261.268 227.658 263.194 228.176 264.499 228.729C268.414 230.387 271.761 233.175 275.652 234.905C279.964 236.823 283.697 239.385 287.587 242.026C291.142 244.44 294.986 246.438 298.615 248.742C302.313 251.09 306.453 252.616 310.201 254.881C314.016 257.186 317.817 259.5 321.483 262.04C328.02 266.569 334.827 271.22 339.663 277.659C342.149 280.969 344.476 284.723 346.3 288.44C347.959 291.818 349.757 296.509 347.608 300.024C345.545 303.399 342.027 306.058 339.05 308.576C337.923 309.53 336.85 310.688 335.389 311.102C333.611 311.604 331.537 311.466 329.709 311.614C319.935 312.409 310.829 311.658 301.196 309.906C291.908 308.217 282.582 307.271 273.223 306.097C267.943 305.435 262.664 304.663 257.456 303.56C255.229 303.088 252.964 302.544 250.785 301.902C248.883 301.341 247.283 300.105 245.327 299.616C237.024 297.538 227.526 296.743 219.306 293.248C226.58 290.218 234.309 288.388 241.764 285.87C249.61 283.221 257.273 280.998 265.542 280.245C269.798 279.857 273.606 278.768 277.7 277.628C281.601 276.542 285.673 276.209 289.68 275.722C291.462 275.505 296.547 275.829 297.138 273.495C298.017 270.019 293.02 269.618 290.891 269.929C287.869 270.371 285.377 271.126 283.065 268.642C280.704 266.105 278.409 263.507 276.005 261.002C271.548 256.357 266.953 250.984 260.652 248.9C252.966 246.358 244.052 248.771 236.382 250.217C228.281 251.744 220.193 253.206 212.243 255.426C208.951 256.345 204.706 258.37 201.289 258.044C197.922 257.723 194.108 257.171 190.854 256.198C189.382 255.758 188.172 254.942 186.855 254.181C185.142 253.191 183.264 252.557 181.446 251.788C177.77 250.233 174.186 248.8 170.22 248.189C166.88 247.674 163.333 247.368 160.096 248.542C156.921 249.693 154.107 252.038 151.891 254.542C149.485 257.263 147.496 260.312 145.523 263.352C144.576 264.811 143.42 266.084 142.439 267.51C141.616 268.708 141.135 270.039 140.264 271.204C138.314 273.808 136.99 277.14 135.808 280.17C134.495 283.535 133.037 287.538 133.35 291.199C133.469 292.583 133.592 294.416 134.127 295.699C134.806 297.331 135.774 297.289 137.17 297.905C139.569 298.963 140.242 301.886 143.342 301.316C146.249 300.781 148.771 298.38 150.892 296.465C153.657 293.971 156.303 291.341 158.949 288.721C161.664 286.031 164.339 283.048 166.499 279.884C167.349 278.639 168.012 277.232 169.016 276.098C170.296 274.653 171.733 274.479 173.47 273.904C188.664 268.872 203.931 264.019 219.6 260.696C223.353 259.9 227.137 258.873 230.825 257.814C234.736 256.69 236.761 257.878 239.989 260.017C246.732 264.486 254.703 267.633 262.212 270.549C264.576 271.467 268.341 271.525 270.189 273.336C259.233 275.01 248.793 278.231 238.226 281.438C233.016 283.019 227.746 284.39 222.516 285.902C217.285 287.415 212.252 289.375 207.093 291.08C201.958 292.777 196.531 293.47 191.346 295.035C186.053 296.633 180.783 297.733 175.35 298.704C169.864 299.685 164.417 300.817 158.912 301.695C156.392 302.097 153.872 302.515 151.38 303.068C148.941 303.609 146.585 304.906 144.134 305.206C133.189 306.549 122.458 309.539 111.555 311.23C103.414 312.492 89.2516 314.253 83.9727 306.066C78.6643 297.834 85.1769 288.23 90.9878 282.344C94.5991 278.686 98.657 275.466 102.914 272.601C107.471 269.536 111.855 266.226 116.413 263.165C126.726 256.238 137.91 250.588 148.991 245.022C154.309 242.35 159.448 239.484 164.621 236.552C167.189 235.097 168.61 237.445 170.64 239.041C172.237 240.297 175.168 243.391 177.402 241.961C177.488 242.476 177.574 242.991 177.66 243.507C178.314 243.208 178.969 242.909 179.623 242.61C180.063 243.765 180.011 244.483 181.239 245.09C181.993 245.462 183.602 245.911 184.321 245.254C184.467 245.711 184.614 246.167 184.761 246.623C185.389 246.575 185.51 244.773 185.629 244.351C186.706 245.927 188.195 247.245 190.088 247.69C190.097 247.587 189.78 246.292 189.794 246.284C190.393 245.917 191.148 247.49 191.466 247.827C192.518 248.944 193.146 248.771 194.309 247.87C194.394 247.962 194.787 248.991 194.844 248.972C195.096 248.892 195.574 247.98 195.627 247.897C195.554 249.097 197.865 249.339 198.681 249.081C198.498 248.729 198.315 248.378 198.132 248.027C200.975 247.646 202.091 250.673 204.82 250.52C206.837 250.406 205.219 249.964 206.361 249.098C207.358 248.341 207.536 249.996 207.634 249.944C207.824 249.744 207.971 249.515 208.076 249.255C208.445 250.673 211.384 251.944 211.08 249.614C212.236 250.077 213.057 250.846 214.337 251.009C215.892 251.206 217.553 250.876 219.104 250.746C222.447 250.468 225.598 249.784 228.611 248.249C230.398 247.339 232.3 246.513 233.979 245.415C235.385 244.496 238.051 241.706 239.922 242.908C239.443 241.491 241.699 242.804 241.771 240.979C242.133 241.253 242.496 241.526 242.858 241.8C243.075 241.323 243.015 240.57 243.306 240.154C243.705 239.582 243.901 239.919 244.241 239.597C244.622 239.237 244.955 238.274 245.412 237.999C245.883 237.717 246.438 238.054 246.945 237.807C247.717 237.431 251.036 233.762 250.474 236.906C251.902 236.42 250.801 235.975 250.979 235.022C251.338 233.111 252.209 234.486 253.077 234.653C254.499 234.926 254.471 233.748 255.263 232.892C255.987 232.11 257.348 231.76 256.879 230.402C257.415 230.691 257.529 231.257 257.591 231.808ZM171.889 191C170.769 192.251 169.93 191.716 168.685 191.532C168.551 191.085 168.324 191.023 168.002 191.346C167.633 191.559 167.237 191.699 166.811 191.766C165.79 192.018 164.73 191.911 163.731 192.293C163.759 191.958 164.111 191.362 163.886 191.021C162.835 191.749 162.184 192.213 160.894 192.226C159.849 192.237 158.014 191.437 157.146 192.394C157.119 192.021 157.092 191.649 157.066 191.277C156.641 191.489 156.271 191.773 155.957 192.129C155.897 191.577 155.864 191.16 155.5 190.714C154.809 192.137 154.053 192.171 152.712 191.627C152.9 191.703 151.369 190.804 151.428 191.053C150.944 189.009 158.583 189.178 159.385 189.097C161.389 188.894 163.391 188.777 165.397 188.592C167.3 188.417 168.72 188.119 170.036 189.71C169.45 187.412 175.001 187.526 171.889 191ZM84.2938 155.362C84.5043 158.836 85.2758 162.529 83.9281 165.873C82.8447 168.561 80.6834 171.596 78.355 173.35C73.5874 176.942 69.5468 172.547 68.8831 167.717C68.1915 162.68 69.5624 156.524 73.8901 153.418C76.4761 151.563 78.98 151.691 81.957 152.301C82.6561 152.445 83.7913 152.39 84.1911 153.086C84.285 153.249 84.2008 155.359 84.2938 155.362ZM147.613 201.65C146.789 202.067 145.927 202.311 145.201 202.878C144.949 203.075 144.863 203.523 144.596 203.689C144.109 203.991 143.412 203.79 142.905 204.04C142.065 204.451 141.462 205.04 140.464 205.419C138.981 205.983 137.681 206.755 136.279 207.487C133.944 208.708 131.438 209.755 128.997 210.749C127.764 211.251 124.356 212.228 124.474 214.036C124.198 214.111 123.917 213.507 123.341 213.555C122.551 213.621 121.507 214.536 120.687 214.762C119.152 215.183 117.964 215.22 117.964 217.181C117.476 216.848 117.352 216.034 116.702 215.927C115.971 215.805 115.663 216.596 115.078 216.842C114.389 217.132 113.532 216.854 112.85 217.162C112.551 217.479 112.22 217.755 111.855 217.99C111.483 218.033 111.114 218.022 110.746 217.956C109.298 218.264 107.965 218.81 106.513 219.094C105.098 219.371 104.128 219.471 104.723 221.149C103.209 221.446 102.84 219.835 101.132 220.424C99.0383 221.146 97.0816 221.666 94.8963 222.106C93.7817 222.331 92.6171 222.831 91.4946 222.949C90.6936 223.033 89.9461 222.746 89.1573 222.835C88.2069 222.942 87.443 223.383 86.4594 223.4C85.5262 223.416 84.5468 223.248 83.6305 223.083C83.7601 223.453 83.9222 223.808 84.1166 224.148C83.4832 224.015 83.1907 223.251 82.6536 223.138C82.09 223.02 81.5849 223.603 81.1156 223.473C80.9157 223.418 81.0487 222.801 80.6914 222.682C80.3652 222.576 80.228 222.702 79.9047 222.651C79.797 222.634 78.4455 222.561 78.23 222.675C77.8537 222.875 78.2346 223.25 78.1597 223.306C76.8886 224.248 76.873 223.74 76.3065 222.755C75.4743 221.309 74.4709 222.221 72.9586 221.968C71.2729 221.686 69.945 222.431 68.2862 222.326C66.497 222.211 64.3942 220.869 62.812 220.085C59.396 218.393 56.0646 216.791 53.1958 214.229C47.5873 209.218 43.0248 203.056 40.3346 196.002C37.4442 188.423 36.8965 180.519 37.1285 172.479C37.268 167.644 37.6542 162.811 38.4146 158.033C38.938 154.745 39.0477 148.904 42.7453 147.407C43.3808 155.104 41.375 162.947 42.6401 170.594C43.021 172.897 43.9499 175.966 45.708 177.672C48.3108 180.197 48.9199 176.547 49.1551 174.53C49.5933 170.786 50.4073 167.062 50.9839 163.334C51.5597 159.609 51.9667 155.842 52.7673 152.156C53.0594 150.811 55.4139 140.969 57.1421 141.435C56.7923 148.595 55.8638 155.633 55.8272 162.819C55.8129 165.702 55.5553 168.747 55.9703 171.61C56.1841 173.084 57.523 177.408 59.8258 177.047C61.9568 176.714 59.614 173.668 59.415 172.493C58.888 169.384 59.5597 165.516 60.0509 162.43C60.9811 156.589 63.0557 150.608 66.4465 145.727C69.4837 141.357 74.1599 137.197 79.7936 137.967C82.2003 138.297 84.0783 138.896 85.2876 141.099C86.2367 142.828 89.9747 144.793 87.8083 146.957C85.8364 148.928 82.6469 147.35 80.4548 146.88C77.7708 146.305 74.8943 146.997 72.6497 148.574C68.7985 151.278 66.6039 156.112 65.8875 160.647C64.922 166.76 67.5029 182.763 77.0089 179.176C83.3241 176.793 88.0807 168.223 87.5503 161.661C87.3378 159.034 86.3133 154.048 89.9389 153.338C94.584 152.43 95.2402 157.562 94.7696 160.897C94.0861 165.749 91.5278 170.26 88.6013 174.096C86.0507 177.438 83.0842 179.529 80.015 182.29C79.1063 183.107 76.7884 184.945 77.1777 186.465C77.6045 188.131 81.247 188.605 82.7054 188.879C89.9208 190.233 98.0576 188.987 105.261 188.042C120.066 186.099 134.675 181.313 146.815 172.514C147.305 177.958 147.924 183.384 148.151 188.849C148.262 191.501 148.29 194.192 148.592 196.83C148.779 198.452 149.452 200.719 147.613 201.65ZM106.562 220.621C105.981 220.925 106.609 219.083 106.447 219.692C107.316 220.004 107.354 220.314 106.562 220.621ZM167.976 154.734C168.898 153.714 171.419 151.289 172.219 153.591C172.517 152.61 172.555 151.157 173.704 152.482C174.162 150.854 179.209 151.007 180.459 150.935C184.462 150.706 188.481 150.583 192.469 150.184C200.665 149.365 209.004 149.788 217.23 149.761C219.011 149.755 220.788 149.658 222.556 149.917C224.262 150.167 226.056 150.868 227.795 150.612C229.341 150.384 230.355 149.957 231.947 150.14C233.851 150.359 235.7 150.514 237.622 150.507C246.12 150.476 254.615 150.821 263.115 150.835C264.772 150.837 266.757 150.513 268.312 151.218C268.887 151.48 269.517 152.35 269.956 152.445C270.46 152.554 270.161 151.766 270.836 152.122C271.739 152.598 271.04 154.064 270.443 154.296C270.8 154.157 269.797 154.02 269.897 154.014C269.422 154.04 269.016 154.406 268.505 154.383C267.726 154.349 267.074 153.873 266.447 153.454C266.436 153.625 266.781 154.766 266.388 154.823C266.049 154.873 265.732 153.749 265.698 153.487C263.796 155.168 261.781 154.231 259.422 154.444C257.748 154.595 254.258 155.714 253.09 153.963C253.042 154.335 252.892 154.661 252.643 154.941C252.309 155.45 252.021 155.407 251.777 154.81C251.695 154.814 250.882 154.991 250.866 154.99C250.294 154.944 249.552 154.738 248.969 154.688C248.069 154.611 248.235 155.269 247.517 155.279C247.125 155.285 246.126 154.718 245.442 154.682C244.259 154.62 243.05 155.123 241.882 154.971C241.079 154.866 240.352 154.21 239.563 154.185C238.58 154.152 238.262 154.904 237.483 153.848C237.324 153.805 237.225 154.426 237.162 154.436C237.177 154.434 236.42 154.546 236.331 154.581C236.176 154.64 235.571 154.918 235.387 154.921C234.99 154.928 234.774 154.643 234.353 154.637C233.656 154.625 231.43 155.239 231.493 153.947C229.005 154.871 226.882 154.511 224.329 154.729C223.158 154.83 222.422 154.673 221.308 154.457C219.912 154.187 218.985 154.526 217.593 154.595C216.256 154.661 215.834 154.094 214.705 153.581C214.259 153.379 213.965 153.113 213.419 153.225C213.107 153.29 213.329 153.815 213.237 153.851C212.757 154.037 212.422 153.84 211.764 153.885C210.549 153.968 210.066 154.985 208.817 154.03C209.232 153.98 209.647 153.929 210.062 153.878C208.868 153.371 207.293 153.112 207.582 154.959C206.564 154.816 207.445 154.121 206.944 153.873C206.444 153.624 205.883 154.04 205.253 154.245C203.588 154.787 202.2 154.518 200.464 154.421C198.491 154.31 193.877 155.924 192.464 153.829C192.422 154.271 191.949 155.5 191.32 155.442C191.115 155.423 191.686 154.118 191.751 153.98C191.427 154.672 189.949 154.803 189.22 155.161C189.302 154.79 189.383 154.418 189.465 154.047C188.789 154.769 188.46 154.329 187.664 154.57C187.316 154.675 186.812 155.395 186.514 155.438C186.168 155.035 185.732 154.862 185.208 154.918C184.858 154.831 184.509 154.813 184.16 154.867C182.763 154.968 181.49 155.747 180.1 155.217C178.897 154.757 178.432 153.576 177.715 155.455C177.526 155.121 177.337 154.787 177.149 154.453C176.916 154.816 176.683 155.178 176.45 155.541C175.54 154.943 175.484 154.597 174.437 154.817C174.191 154.915 173.939 154.901 173.681 154.775C173.619 154.959 173.558 155.143 173.496 155.327C173.471 155.79 173.334 155.943 173.085 155.785C172.875 155.71 172.686 155.595 172.518 155.441C171.825 155.495 170.94 155.677 170.196 155.576C169.909 155.538 168.109 154.586 167.976 154.734ZM189.18 142.295C189.261 142.421 189.343 142.546 189.425 142.672C188.3 143.267 188.035 142.926 187.919 141.73C188.468 141.741 188.562 142.71 189.18 142.295ZM189.877 141.594C190.418 141.833 191.04 142.304 191.55 141.674C191.893 142.674 189.342 144.04 189.877 141.594ZM193.375 142.036C194.512 142.806 191.785 142.187 191.789 142.188C192.279 141.734 192.808 141.684 193.375 142.036ZM203.157 137.74C203.547 139.712 204.623 139.656 206.359 138.739C208.891 137.402 209.319 135.212 209.495 132.597C209.665 130.089 209.971 129.118 212.55 129.642C214.351 130.007 215.874 129.7 217.69 129.65C219.627 129.596 220.309 129.893 220.465 131.891C220.621 133.891 220.976 135.41 222.425 136.933C223.897 138.481 225.861 139.405 227.775 140.271C228.759 140.716 229.683 141.195 230.772 141.291C231.193 141.329 233.389 141.05 233.435 141.747C233.47 142.271 230.429 143.747 230.106 143.923C228.696 144.692 227.289 145.381 225.749 145.847C222.205 146.919 218.447 146.982 214.777 146.917C208.858 146.813 200.678 144.304 197.139 139.041C199.145 138.607 201.151 138.173 203.157 137.74ZM202.626 120.658C201.69 119.87 201.083 118.68 200.305 117.747C199.913 117.277 199.625 117.127 199.252 116.892C198.859 116.644 198.638 116.995 198.309 116.412C197.462 114.906 200.077 112.786 197.303 112.206C196.365 112.01 194.107 112.755 193.833 111.407C193.445 109.502 197.074 109.377 197.928 108.41C199.625 106.487 198.473 103.227 199.507 101.009C200.486 98.9077 203.012 98.5344 205.007 97.9028C207.785 97.0236 210.597 96.5136 213.419 95.8099C215.391 95.318 218.669 93.3419 220.499 95.0881C217.675 95.7162 219.316 96.7021 221.198 97.259C223.33 97.8902 225.589 98.1361 227.797 98.312C230.071 98.4926 232.387 98.5272 234.634 98.0728C236.711 97.6526 239.031 95.8428 241.209 96.3064C240.001 98.4129 236.401 99.5633 234.213 100.115C233.098 100.396 232.384 100.308 232.534 101.701C232.679 103.051 233.85 104.405 234.115 105.812C234.465 107.673 234.159 109.384 233.498 111.134C232.847 112.856 232.696 113.081 233.264 114.727C234.15 117.29 232.246 120.122 230.487 121.983C223.373 129.508 209.759 126.657 202.626 120.658ZM220.702 75.6869C220.707 75.7345 220.731 75.7636 220.702 75.6869V75.6869ZM222.918 94.6759C222.623 94.8969 220.924 95.3602 220.995 94.6945C221.09 93.803 222.621 94.1249 222.918 94.6759ZM226.79 76.6648C226.391 76.3669 225.275 76.4893 226.091 75.3603C226.357 75.8569 226.574 76.2606 226.79 76.6648ZM199.997 69.5283C200.505 68.2053 201.067 66.9743 201.296 65.5657C201.438 64.6979 201.157 63.7069 202.367 63.5706C200.825 62.8965 200.809 60.2353 200.718 58.8557C200.593 56.956 199.994 54.4123 200.827 52.6441C201.682 50.8277 202.836 50.8577 203.184 53.021C203.32 53.868 202.799 54.1419 202.701 54.7317C202.507 55.8987 202.892 55.6428 203.643 54.7539C203.954 55.6574 204.072 57.0152 205.334 56.9577C205.25 56.7134 204.767 56.1743 204.928 55.8708C205.176 55.4047 206.388 56.1169 206.542 56.2247C207.649 57.0006 207.889 57.7089 207.099 58.6874C208.192 58.8055 207.275 59.7645 207.98 60.0142C209.057 60.3956 208.335 58.5891 208.218 58.2714C208.873 58.5275 209.093 58.8199 209.508 59.3388C209.751 59.6965 209.973 60.0682 210.173 60.4525C210.396 61.1541 210.855 61.33 211.55 60.9803C212.944 61.4186 214.868 61.3499 216.118 62.116C216.688 62.4661 216.894 63.2319 217.371 63.5225C217.907 63.8499 218.626 63.7014 219.202 63.9069C218.991 64.3869 219.162 64.6464 219.713 64.6873C220.142 64.7266 220.557 64.8232 220.958 64.9771C221.258 64.7506 221.584 64.5713 221.936 64.4409C222.173 64.8594 222.508 64.9628 222.941 64.7523C224.227 64.9936 224.844 65.4809 225.661 66.2094C226.394 66.8634 225.797 66.9165 226.601 66.8583C226.924 66.8351 227.489 66.2862 228.228 66.3934C228.653 66.4761 229.062 66.6073 229.457 66.787C229.883 67.1528 230.337 67.1987 230.816 66.9249C231.594 67.3063 231.671 67.9822 232.62 68.0746C233.669 68.1771 233.331 66.8655 234.052 68.715C235.023 66.7541 235.378 69.8781 236.38 70.1304C237.418 70.3919 237.53 69.5482 238.419 70.47C238.685 70.7463 238.671 71.2028 238.969 71.4955C239.459 71.9748 240.122 71.879 240.548 72.5329C240.31 72.168 240.604 73.8264 240.599 73.7716C240.665 74.5031 240.016 75.3228 241.345 75.2604C241.331 75.3371 240.692 76.2699 240.568 76.1644C240.537 76.0581 240.511 75.9501 240.491 75.8409C240.348 75.9024 240.285 76.7909 240.311 76.9479C240.424 76.9656 240.47 76.8816 240.45 76.696C240.231 77.3811 240.56 77.8165 240.141 78.467C239.872 78.8826 239.137 79.1952 238.747 79.4517C237.804 80.071 236.882 80.6924 235.962 81.3514C233.819 82.8891 231.418 84.7433 228.719 85.0639C230.075 83.7295 237.875 78.6796 233.963 77.2301C233.237 76.9614 231.916 76.707 231.157 76.6504C230.213 76.58 229.237 77.1217 228.196 76.7837C226.939 76.3766 227.413 75.1929 226.645 74.768C225.016 73.8673 225.4 75.986 224.888 76.5407C224.349 75.9742 224.464 75.6983 223.613 75.6472C222.75 75.5949 222.544 76.3952 221.536 75.8965C220.148 75.2097 220.883 73.8412 218.913 73.8091C218.946 73.5087 219.231 72.6692 218.855 72.4351C218.349 73.0936 218.741 73.8302 218.27 74.4643C218.035 74.7824 217.524 75.0359 217.151 75.1389C216.278 75.3793 216.154 75.8396 216.296 74.5217C215.649 75.6902 213.664 75.2097 212.484 75.092C210.564 74.9009 208.525 74.5368 206.684 73.9201C204.983 73.3488 204.074 72.3684 202.67 71.4766C202.14 71.1391 201.887 71.2682 201.126 71.0585C200.375 70.8518 199.643 70.451 199.997 69.5283ZM204.046 48.8359C204.336 48.6609 204.544 51.2717 204.193 51.7595C203.55 50.7402 202.41 49.245 204.046 48.8359ZM204.972 47.7945C205.904 46.9492 205.256 49.1324 205.085 49.4986C204.74 49.2768 204.395 49.055 204.05 48.8332C204.49 48.5624 204.6 48.1316 204.972 47.7945ZM240.125 44.2761C248.733 46.0868 257.263 49.4713 264.167 55.041C270.456 60.1142 274.895 67.3122 277.384 74.9688C279.967 82.9161 279.099 91.7333 272.953 97.8159C269.716 101.02 265.441 102.953 261.366 104.839C259.414 105.743 257.403 106.495 255.444 107.378C254.036 108.012 252.318 109.026 250.712 108.85C251.531 107.986 252.72 107.969 253.712 107.44C254.91 106.801 255.889 105.575 256.922 104.7C257.947 103.83 260.221 101.092 261.797 101.755C261.578 100.296 263.237 99.619 263.984 98.6571C264.774 97.6396 264.831 96.4495 266.287 96.1166C264.723 94.8898 265.202 92.5766 265.542 90.9069C265.977 88.7713 266.178 86.8109 266.35 84.6378C266.659 80.7203 266.909 75.7295 264.749 72.2857C264.048 71.1673 263.156 70.1396 262.531 68.9778C261.777 67.578 261.943 66.3457 261.943 64.8114C260.566 65.7391 260.275 63.8474 259.693 62.9251C259.256 62.2333 258.683 61.8468 258.542 60.9761C258.439 60.3429 259.125 60.2357 258.749 59.5717C258.288 59.9206 258.104 60.4614 257.871 60.9634C257.445 60.793 257.947 60.199 257.703 60.0058C257.696 60.0007 256.875 59.6434 256.916 59.6949C256.387 59.0236 256.217 57.9099 255.959 57.111C254.991 57.6024 255.172 57.5445 254.092 56.7235C253.902 56.5791 252.952 55.9154 252.862 55.6985C252.445 54.684 253.177 55.285 252.972 54.6553C252.384 52.8469 249.085 53.1889 248.824 50.4791C247.215 51.5028 246.602 50.0523 245.651 49.0206C244.676 47.9637 243.041 47.5572 243.129 45.8808C242.622 46.0545 242.116 46.2277 241.61 46.4005C241.873 44.8536 239.581 44.9521 238.75 44.1674C239.211 44.1732 239.669 44.2094 240.125 44.2761ZM241.436 140.084C242.234 139.368 241.992 140.32 242.505 140.211C242.944 140.118 243.031 139.785 243.452 139.684C245.186 139.263 247.78 139.791 249.603 139.7C251.716 139.596 255.337 140.035 256.344 142.513C256.951 144.005 256.025 143.497 255.005 143.386C254.215 143.301 253.512 143.461 252.729 143.453C252.343 143.513 251.957 143.507 251.573 143.435C251.386 143.311 251.275 143.137 251.241 142.913C250.153 142.748 248.996 143.393 247.791 143.425C246.182 143.468 244.752 143.159 243.53 142.07C243.044 142.796 242.713 143.156 241.839 143.237C241.816 143.24 240.962 142.895 240.83 142.861C240.655 142.815 240.213 143.183 239.876 143.078C240.474 142.123 240.561 140.868 241.436 140.084ZM351.318 148.705C351.602 147.715 351.84 146.712 352.098 145.716C356.07 150.247 359.545 156.313 361.109 162.124C362.125 165.901 363.706 172.743 358.863 174.691C354.918 176.278 352.718 170.591 351.72 167.789C349.516 161.606 349.516 154.997 351.318 148.705ZM173.641 77.7013C173.692 77.6908 171.07 79.2192 171.934 77.9819C172.281 77.4841 173.597 77.1343 174.181 77.1343L173.641 77.7013ZM171.119 78.3489C170.816 78.6046 170.509 78.8573 170.2 79.1066C169.904 78.6366 169.606 78.1662 169.309 77.6963C169.895 77.449 172.379 77.2634 171.119 78.3489ZM169.271 125.868C168.723 125.495 168.288 125.693 168.123 126.318C168.123 125.696 168.446 124.251 168.943 124.083C169.264 123.973 167.876 122.328 168.266 121.897C169.258 122.466 168.664 123.012 168.955 123.747C169.086 124.079 169.48 124.393 169.566 124.648C169.713 125.08 170.305 126.568 169.271 125.868ZM166.584 122.164C166.022 122.308 167.005 123.238 167.005 123.649C167.004 123.959 166.632 124.198 166.478 124.623C166.145 125.544 166.718 126.166 165.775 126.869C165.775 124.851 164.424 119.503 167.021 118.519C165.754 117.52 166.794 116.365 167.787 117.562C168.742 118.713 168.133 121.767 166.584 122.164ZM165.231 114.199C164.72 112.385 163.184 111.751 161.428 111.858C161.495 110.929 162.197 109.59 162.704 111.264C162.913 110.77 163.057 110.124 163.533 109.796C164.334 112.313 168.327 113.703 165.841 116.43C165.638 115.687 165.44 114.942 165.231 114.199ZM160.591 111.993C151.345 112.665 138.365 114.588 130.966 107.485C126.141 102.853 126.399 95.6403 130.298 90.4943C132.522 87.5576 135.56 85.49 138.61 83.5202C139.787 82.7596 140.784 82.258 142.076 81.8209C142.285 81.7982 142.482 81.845 142.666 81.9614C142.739 81.6484 142.914 81.4168 143.194 81.2657C143.694 80.9983 144.404 80.9025 144.692 80.3469C144.385 81.3906 144.227 82.4651 144.115 83.5447C143.866 83.254 143.617 82.9634 143.368 82.6727C143.16 84.6395 141.116 83.4489 139.895 83.6945C140.699 84.8099 141.274 85.2149 141.344 86.6889C140.745 85.5807 139.493 84.8521 138.328 84.4952C138.961 86.3696 139.408 87.4821 138.771 89.5374C138.002 89.0974 137.95 88.0406 137.018 87.7875C136.771 89.0131 136.728 90.3732 136.413 91.5624C134.025 90.4706 134.257 93.4111 135.217 94.8661C135.726 95.6403 135.977 96.5364 136.432 97.2793C137.548 99.1018 136.7 96.3765 137.941 96.5056C137.662 98.428 137.565 98.6196 138.969 100.027C140.339 101.4 141.049 103.305 142.514 104.595C142.938 104.051 142.271 103.483 142.213 102.962C143.576 103.191 144.215 104.562 145.525 103.348C146.097 104.465 146.716 105.694 148.084 105.923C147.179 104.199 149.822 105.369 150.5 105.613C151.014 105.799 151.935 105.946 152.133 106.018C153.25 106.422 152.484 105.697 153.162 107.022C154.157 106.721 154.532 105.894 155.722 106.593C156.69 107.161 156.692 108.135 156.914 109.133C157.144 108.48 157.377 107.828 157.632 107.184C157.892 107.294 158.981 108.495 158.862 108.501C161.413 108.376 161.322 109.963 160.591 111.993ZM147.609 79.4589C148.121 79.0986 148.746 79.5782 149.321 79.4492C150.118 79.2711 150.57 78.5873 151.459 78.5143C151.212 79.3066 150.747 79.2327 150.354 79.855C150.22 80.0672 150.29 80.576 150.171 80.6979C149.174 81.7214 148.83 80.8865 147.813 80.1119C147.901 81.0459 148.081 81.3408 147.203 81.5914C146.408 81.8184 145.096 80.9822 144.695 80.3406C145.033 79.663 146.996 79.89 147.609 79.4589ZM153.953 77.9987C154.817 78.0814 153.777 80.6346 152.54 78.1578C153.006 78.0565 153.477 78.0034 153.953 77.9987ZM158.393 77.5056C159.754 77.2271 164.296 75.9299 164.801 78.054C164.892 78.0013 165.23 76.8019 165.387 76.9483C166.015 77.5347 166.086 78.3118 166.038 79.126C165.278 77.5389 165.548 78.9328 165.033 78.8244C164.898 78.7957 164.693 79.0475 164.352 78.9437C163.906 78.8071 163.586 77.8549 163.304 77.5322C162.834 78.2038 162.253 79.0686 161.313 79.0104C160.647 78.9691 159.575 77.252 160.437 79.1319C159.931 78.9644 159.346 78.5852 158.782 78.6611C158.151 78.7463 157.823 79.3707 157.232 79.4715C155.921 79.6943 155.723 78.4299 154.872 77.7431C156.046 77.6747 157.233 77.7422 158.393 77.5056ZM166.63 77.4849C166.726 77.0495 167.918 76.8736 168.221 77.012C168.961 77.3491 168.687 77.7937 168.551 78.5345C168.002 78.2738 167.452 78.0135 166.903 77.7528C167.723 79.0766 166.237 79.2686 166.63 77.4849ZM397.257 155.024C397.159 151.852 397.067 148.624 396.265 145.536C395.704 143.375 394.324 139.499 391.715 139.124C387.78 138.558 385.601 146.353 384.498 149.028C384.278 145.878 384.471 142.525 383.284 139.535C382.333 137.139 379.932 134.87 377.864 137.56C376.024 139.955 375.67 143.49 375.186 146.372C374.558 150.105 374.181 153.867 373.723 157.623C371.925 154.142 371.611 150.157 370.191 146.539C368.85 143.125 366.741 139.864 364.709 136.828C363.05 134.347 361.031 132.015 358.432 130.499C356.169 129.179 352.213 127.751 350.056 129.943C348.257 131.772 348.539 134.219 348.632 136.527C348.674 137.555 348.835 138.259 347.933 138.777C347.49 139.032 346.798 138.9 346.311 139.036C345.526 139.256 344.924 139.628 344.261 140.122C339.607 143.589 337.463 149.836 336.799 155.406C335.958 162.463 338.703 168.512 341.065 174.969C341.441 175.999 342.637 178.182 342.472 179.331C342.291 180.589 340.714 180.622 339.651 180.648C336.439 180.727 333.081 180.487 329.885 180.187C322.275 179.474 314.671 175.802 307.857 172.524C306.615 171.925 304.856 171.583 303.841 170.641C302.887 169.755 302.635 168.336 301.812 167.32C299.791 164.828 298.504 162.701 295.528 161.195C292.498 159.662 289.406 158.245 286.449 156.566C282.793 154.488 279.415 151.856 275.912 149.53C269.4 145.208 262.933 140.47 256.03 136.795C252.822 135.086 249.238 134.81 245.907 133.412C242.664 132.05 238.683 132.048 235.299 132.908C233.65 133.327 232.528 134.32 231.012 134.969C229.235 135.729 227.786 134.89 226.222 133.983C223.833 132.597 221.465 130.34 224.867 128.845C226.021 128.337 227.467 128.145 228.475 127.348C229.55 126.498 230.413 124.931 231.286 123.866C233.229 121.5 234.389 118.776 237.232 117.305C240.376 115.678 244.104 115.235 247.456 114.171C251.088 113.019 254.645 111.65 258.21 110.305C264.632 107.882 271.309 105.266 275.924 99.9316C279.904 95.3302 281.639 89.3902 281.478 83.3574C281.15 71.0247 274.559 58.5081 265.102 50.7972C253.506 41.3419 238.753 38.1889 224.106 38.3542C217.231 38.4319 209.027 39.3337 203.291 43.5201C198.337 47.1361 197.513 53.4606 198.25 59.1696C198.548 61.4866 199.571 64.5439 197.941 66.5858C197.028 67.7278 195.39 68.0109 194.161 68.723C192.617 69.6178 191.255 70.4754 189.506 70.9484C182.076 72.9599 174.249 72.2596 166.652 72.1482C153.996 71.9626 141.024 75.397 131.583 84.3353C123.959 91.5527 121.673 105.163 130.971 112.199C138.484 117.883 150.268 117.258 159.126 116.267C161.873 115.959 163.762 115.511 163.768 118.88C163.775 122.56 163.167 126.406 164.103 130.018C165.579 135.707 171.033 135.842 175.854 134.617C178.399 133.971 180.858 132.999 183.274 131.981C186.818 130.488 190.067 128.293 193.567 126.802C195.939 125.792 197.716 129.059 199.82 126.794C200.209 126.376 200.281 125.752 200.868 125.538C201.787 125.202 203.329 126.379 204.135 126.75C205.342 127.308 206.559 127.717 207.041 129.059C207.493 130.313 207.295 132.309 206.862 133.547C205.923 136.237 203.395 135.706 201.086 135.526C197.059 135.212 193.06 134.546 189.035 134.266C185.424 134.015 182.042 135.097 178.927 136.882C172.385 140.631 167.032 146.594 161.359 151.498C158.44 154.021 155.618 156.748 152.443 158.945C151.062 159.901 149.567 160.779 148.368 161.967C147.177 163.145 147.046 164.216 146.639 165.784C145.914 168.575 142.313 169.939 140.062 171.412C136.878 173.494 133.504 174.963 129.935 176.241C122.378 178.947 114.761 180.836 106.859 182.233C102.991 182.917 99.1549 183.366 95.249 183.735C91.8818 184.053 88.3016 185.093 84.9387 184.263C85.9071 182.688 87.6236 181.742 88.9604 180.525C90.6835 178.956 92.1491 177.097 93.4534 175.17C95.9919 171.419 97.7727 167.394 98.1814 162.844C98.5501 158.749 98.1275 153.851 95.6623 150.391C94.8108 149.196 93.126 148.871 92.3642 147.795C91.6061 146.725 91.8953 144.882 91.4803 143.635C90.4242 140.462 87.2898 136.529 84.5312 134.686C81.5386 132.686 77.1609 131.951 73.704 132.994C67.2996 134.924 63.3655 141.785 60.4348 147.329C58.8341 143.953 61.5148 138.943 58.3875 136.178C55.7498 133.846 53.6562 138.364 52.774 140.297C48.6328 149.371 47.6921 158.995 45.9572 168.704C45.25 168.006 45.6124 166.213 45.6789 165.379C45.8027 163.828 45.7909 162.306 45.7943 160.748C45.8027 156.813 46.5325 152.86 46.1979 148.928C46.0047 146.655 45.2816 141.862 41.987 142.617C39.193 143.258 37.4428 147.196 36.5649 149.604C35.2987 153.076 35.0063 156.514 35.0851 160.183C35.1723 164.236 34.4018 168.223 34.2151 172.271C33.8523 180.134 34.2107 187.928 36.4615 195.516C40.1471 207.942 48.6214 218.266 59.9314 224.501C66.1628 227.936 73.0756 230.11 80.1829 230.577C84.0346 230.83 87.7528 230.371 91.5716 229.972C95.3399 229.578 99.128 229.395 102.89 228.933C111.268 227.903 119.431 225.245 127.046 221.668C131.054 219.785 134.824 217.473 138.766 215.465C140.348 214.66 141.417 213.652 142.767 212.532C144.106 211.422 144.476 211.335 145.998 211.335C145.552 210.138 146.855 209.769 147.435 209.011C147.403 209.379 147.37 209.746 147.337 210.113C147.779 209.152 148.191 209.161 148.572 210.141C148.948 209.044 149.227 207.916 149.681 206.847C151.419 207.728 151.273 209.824 153.597 208.294C155.511 207.034 157.27 205.549 159.221 204.315C163.666 201.503 167.497 197.845 171.954 195.065C171.954 197.772 172.145 200.503 171.784 203.196C171.44 205.757 170.487 208.151 169.728 210.603C168.329 215.126 168.232 219.961 166.681 224.438C166.04 226.293 164.369 227.844 163.89 229.649C163.402 231.491 164.53 232.967 162.639 234.176C161.306 235.028 159.639 235.388 158.163 235.904C155.911 236.69 153.773 237.801 151.581 238.742C141.298 243.159 131.269 247.656 121.742 253.594C112.701 259.229 103.522 265.048 95.217 271.74C88.0091 277.548 80.7229 285.058 78.9682 294.532C77.2657 303.722 81.8021 313.586 90.9108 316.612C95.6467 318.186 101.001 317.991 105.933 318.06C111.24 318.133 116.864 316.851 122.082 315.923C127.593 314.944 133.009 313.41 138.535 312.535C143.838 311.696 148.701 309.82 153.916 308.664C159.471 307.432 165.169 306.764 170.755 305.656C173.27 305.158 175.733 304.422 178.255 303.96C181.015 303.455 183.806 303.265 186.54 302.596C191.843 301.297 196.92 299.203 202.245 297.995C204.639 297.451 206.997 296.724 209.392 296.216C211.598 295.748 213.316 294.506 215.526 295.526C217.311 296.351 218.736 297.764 220.425 298.749C222.617 300.026 224.928 301.17 227.213 302.269C231.804 304.477 236.566 306.003 241.366 307.661C246.409 309.403 251.361 311.388 256.585 312.538C261.94 313.718 267.404 314.046 272.797 314.979C283.841 316.888 294.791 317.745 306.001 317.814C311.668 317.85 317.334 317.177 322.987 317.257C327.992 317.327 332.342 318.458 336.919 315.791C344.231 311.53 352.713 305.111 352.533 295.789C352.37 287.344 347.316 279.277 342.577 272.617C336.82 264.53 328.613 258.834 320.57 253.255C311.997 247.31 302.368 243.202 293.358 238.012C288.75 235.358 284.5 232.502 279.497 230.616C277.108 229.716 274.778 228.672 272.418 227.703C270.518 226.923 267.776 226.492 266.15 225.198C265.136 224.391 265.039 223.168 264.771 221.968C264.177 219.311 263.246 216.792 262.342 214.23C260.598 209.283 259.438 204.245 258.688 199.057C257.974 194.111 256.387 188.968 257.209 183.941C262.613 189.181 268.166 194.217 273.695 199.318C275.767 201.229 277.801 203.181 279.884 205.081C281.447 206.507 283.403 208.626 285.583 209.049C288.366 209.59 287.35 206.503 289.261 206.025C290.429 205.733 293.952 208.708 294.876 209.296C300.73 213.021 307.212 215.381 313.651 217.917C320.403 220.576 327.346 222.937 334.612 223.606C341.323 224.226 348.185 223.431 354.661 221.599C367.558 217.949 377.048 209.29 384.013 198.066C391.949 185.275 397.724 170.292 397.257 155.024Z" fill="#6B3900"/>
<path fill-rule="evenodd" clip-rule="evenodd" d="M200.146 127.141C200.144 127.145 200.124 127.187 200.124 127.187C200.149 127.17 200.156 127.155 200.146 127.141Z" fill="#6B3900"/>
<path fill-rule="evenodd" clip-rule="evenodd" d="M200.769 127.306C200.72 126.899 200.616 126.5 200.456 126.109C200.029 126.788 199.647 127.078 200.208 127.797C200.394 127.633 200.581 127.47 200.769 127.306Z" fill="#6B3900"/>
<path fill-rule="evenodd" clip-rule="evenodd" d="M230.508 224.271C230.986 223.761 230.151 223.569 229.833 223.562C229.865 224.109 229.595 225.419 230.34 225.672C230.161 225.177 230.217 224.71 230.508 224.271Z" fill="#6B3900"/>
<path fill-rule="evenodd" clip-rule="evenodd" d="M217.91 117.69C217.089 119.279 218.902 119.771 219.952 119.004C220.742 118.427 221.209 116.956 221.339 116.012C221.758 112.959 219.626 110.052 218.563 107.342C218.289 106.642 217.912 104.24 217.028 104.174C216.012 104.098 215.936 106.31 215.923 106.881C215.884 108.602 216.339 110.356 216.872 111.98C217.446 113.732 218.869 115.835 217.91 117.69Z" fill="#6B3900"/>
<path fill-rule="evenodd" clip-rule="evenodd" d="M221.814 111.318C224.969 114.134 227.492 109.444 227.272 106.671C227.217 105.983 226.754 103.449 225.453 104.371C224.8 104.835 225.357 106.34 225.046 107.001C223.537 110.206 222.084 105.235 221.068 104.845C219.831 104.369 219.707 105.997 219.709 106.868C219.712 108.595 220.532 110.174 221.814 111.318Z" fill="#6B3900"/>
<path fill-rule="evenodd" clip-rule="evenodd" d="M210.362 111.756C211.105 110.583 212.019 109.01 212.12 107.605C212.276 105.421 211.007 105.603 209.961 107.127C209.224 108.203 208.67 110.029 207.04 109.575C205.028 109.016 205.643 106.304 204.517 105.016C201.673 108.845 207.055 116.975 210.362 111.756Z" fill="#6B3900"/>
<path fill-rule="evenodd" clip-rule="evenodd" d="M214.624 123.473C215.801 123.728 218.868 123.635 217.805 121.829C216.465 119.555 212.009 122.906 214.624 123.473Z" fill="#6B3900"/>
<path fill-rule="evenodd" clip-rule="evenodd" d="M255.835 55.6562C256.051 55.0135 255.755 54.8968 255.241 54.3906C254.755 54.8404 255.378 55.3136 255.835 55.6562Z" fill="#6B3900"/>
<path fill-rule="evenodd" clip-rule="evenodd" d="M277.777 172.072C278.553 172.196 278.803 171.785 278.525 170.838C277.301 170.759 277.052 171.17 277.777 172.072Z" fill="#6B3900"/>
<path fill-rule="evenodd" clip-rule="evenodd" d="M235.399 72.7633C236.255 73.1556 235.927 73.9606 235.912 74.6406C236.353 74.1605 237.244 73.2822 236.881 72.5924C236.322 71.5289 234.862 72.5177 235.399 72.7633Z" fill="#6B3900"/>
<path fill-rule="evenodd" clip-rule="evenodd" d="M206.24 59.3751C206.11 59.1198 205.979 58.8646 205.849 58.6094C205.317 59.0372 204.496 60.1678 205.341 60.7187C205.688 60.2973 205.987 59.8497 206.24 59.3751Z" fill="#6B3900"/>
<path fill-rule="evenodd" clip-rule="evenodd" d="M216.511 66.8798C217.576 67.7168 217.065 65.1472 217.033 64.9375C216.875 65.2387 215.973 66.4567 216.511 66.8798Z" fill="#6B3900"/>
<path fill-rule="evenodd" clip-rule="evenodd" d="M215.921 65.575C215.84 65.3628 215.758 65.1501 215.676 64.9375C215.245 65.3383 214.716 66.1563 215.429 66.625C215.625 66.2968 215.788 65.9466 215.921 65.575Z" fill="#6B3900"/>
<path fill-rule="evenodd" clip-rule="evenodd" d="M222.685 74.3989C222.772 74.479 222.859 74.5596 222.946 74.6406C223.297 73.9302 222.898 73.3969 222.234 73.375C222.282 73.7737 222.432 74.115 222.685 74.3989Z" fill="#6B3900"/>
<path fill-rule="evenodd" clip-rule="evenodd" d="M194.146 154.305C194.568 154.017 194.952 153.688 195.297 153.319C194.046 152.553 194.796 154.213 193.29 153.193C192.966 153.643 193.496 154.648 194.146 154.305Z" fill="#6B3900"/>
<path fill-rule="evenodd" clip-rule="evenodd" d="M246.69 223.984C247.165 223.253 247.251 223.274 246.602 222.719C246.06 223.623 246.116 223.39 246.69 223.984Z" fill="#6B3900"/>
<path fill-rule="evenodd" clip-rule="evenodd" d="M147.314 107.579C147.573 107.85 147.832 108.121 148.091 108.391C148.212 108.037 148.871 107.036 148.423 106.703C148.054 106.995 147.684 107.287 147.314 107.579Z" fill="#6B3900"/>
<path fill-rule="evenodd" clip-rule="evenodd" d="M156.521 110.256C156.108 110.187 155.119 109.885 154.891 110.27C155.495 110.767 156.86 110.313 156.521 110.256Z" fill="#6B3900"/>
</svg>
